<?xml version="1.0" standalone="no"?>
<!DOCTYPE svg PUBLIC "-//W3C//DTD SVG 1.1//EN" "http://www.w3.org/Graphics/SVG/1.1/DTD/svg11.dtd" >
<svg xmlns="http://www.w3.org/2000/svg" xmlns:xlink="http://www.w3.org/1999/xlink" version="1.1">
<metadata></metadata>
<defs>
<font id="europa-lightlight" horiz-adv-x="1060" >
<font-face units-per-em="2048" ascent="1548" descent="-500" />
<missing-glyph horiz-adv-x="557" />
<glyph horiz-adv-x="0" />
<glyph unicode="&#xd;" horiz-adv-x="681" />
<glyph unicode=" "  horiz-adv-x="557" />
<glyph unicode="&#x09;" horiz-adv-x="557" />
<glyph unicode="&#xa0;" horiz-adv-x="557" />
<glyph unicode="!" horiz-adv-x="524" d="M180 57.5q0 34.5 23.5 58t58.5 23.5t58.5 -23.5t23.5 -58t-23.5 -58.5t-58.5 -24t-58.5 24t-23.5 58.5zM209 371v1063h106v-1063h-106z" />
<glyph unicode="&#x22;" horiz-adv-x="684" d="M164 946v488h102v-488h-102zM418 946v488h102v-488h-102z" />
<glyph unicode="#" horiz-adv-x="1298" d="M104 487v99h277l41 295h-266v98h278l70 485l100 -14l-67 -471h288l70 485l100 -14l-67 -471h270v-98h-283l-41 -295h273v-99h-287l-72 -516l-100 15l70 501h-289l-72 -516l-100 15l70 501h-263zM483 586h289l41 295h-289z" />
<glyph unicode="$" horiz-adv-x="1187" d="M162 268l96 58q16 -43 46 -85t71 -76t91 -56.5t109 -28.5v614q-74 33 -138 72t-113.5 88t-77 107.5t-27.5 132.5q0 61 21.5 122.5t65.5 111.5t110.5 85t158.5 43v166h89v-166q59 -6 112 -26.5t97.5 -49t79 -62.5t55.5 -65l-82 -63q-35 53 -104.5 101t-157.5 61v-582 l28 -12q170 -72 256 -166t86 -234q0 -80 -28.5 -146.5t-77.5 -115.5t-117 -79.5t-147 -39.5v-165h-89v165q-74 4 -140 32t-119.5 69t-93.5 91t-60 99zM326 1100q0 -104 69.5 -170t179.5 -119v541q-117 -12 -183 -82t-66 -170zM664 84q113 16 188.5 86.5t75.5 187.5 q0 57 -21.5 102.5t-57.5 80t-84 62.5t-101 52v-571z" />
<glyph unicode="%" horiz-adv-x="1458" d="M66 1140.5q0 67.5 25.5 125t68.5 100.5t101 67.5t126 24.5t126 -24.5t101 -67.5t69 -100.5t26 -125t-26 -125t-69 -100.5t-101 -67.5t-126 -24.5t-126 24.5t-101 67.5t-68.5 100.5t-25.5 125zM164 1141q0 -47 17.5 -87t47 -71t70.5 -48t88 -17t88 17t70.5 48t47 71 t17.5 87q0 45 -17.5 86t-47 71.5t-70.5 48t-88 17.5t-88 -17.5t-70.5 -48t-47 -71.5t-17.5 -86zM186 -6l973 1495l72 -49l-973 -1495zM750 292.5q0 67.5 25.5 125t68.5 100.5t101.5 67.5t126 24.5t125.5 -24.5t101 -67.5t69 -100.5t26 -125t-26 -124.5t-69 -100t-101 -68 t-125.5 -25t-126 25t-101.5 68t-68.5 100t-25.5 124.5zM848 293q0 -47 17.5 -87t47 -71t70.5 -48t88 -17t88 17t71 48t47 71t17 87q0 45 -17 86t-47 71.5t-71 48t-88 17.5t-88 -17.5t-70.5 -48t-47 -71.5t-17.5 -86z" />
<glyph unicode="&#x26;" horiz-adv-x="1431" d="M156 317q0 61 24.5 112.5t71.5 101t115 102.5l151 119l-110 102q-51 47 -86 92t-54.5 92t-19.5 103q0 61 24.5 118.5t71.5 101.5t113.5 70.5t150.5 26.5t150.5 -26.5t114 -70.5t72 -103.5t24.5 -124.5q0 -49 -15.5 -91.5t-50.5 -86.5t-89 -94t-134 -116l403 -360 q14 23 26.5 63.5t21 94t12.5 116t4 127.5h104q0 -80 -8 -152.5t-20.5 -134t-28.5 -108.5t-33 -76l262 -233l-67 -80l-252 225q-37 -47 -88 -92t-116.5 -81t-142.5 -57.5t-165 -21.5q-96 0 -176 27t-138.5 73t-90 108.5t-31.5 133.5zM266 322q0 -59 28 -104.5t74 -76t106 -46 t126 -15.5q76 0 141.5 19.5t118.5 50t96 68.5t72 77l-436 391l-141 -111q-61 -47 -102.5 -86.5t-62 -78.5t-20.5 -88zM356 1143q0 -55 25 -100.5t62.5 -85t81.5 -75.5t83 -71l107 88q47 39 78.5 76t49 74.5t17.5 85.5q0 98 -69.5 158.5t-182 60.5t-182.5 -60.5t-70 -150.5z " />
<glyph unicode="'" horiz-adv-x="307" d="M102 946v488h103v-488h-103z" />
<glyph unicode="(" horiz-adv-x="630" d="M135 604q0 139 22.5 260t64.5 232.5t101.5 219t133.5 218.5l86 -59q-68 -102 -123 -198.5t-94 -200t-59.5 -219.5t-20.5 -253q0 -139 20.5 -253.5t59.5 -218t94 -201t123 -197.5l-86 -60q-74 111 -133.5 218.5t-101.5 219t-64.5 232.5t-22.5 260z" />
<glyph unicode=")" horiz-adv-x="630" d="M88 -266l86 -60q74 111 133.5 218.5t101.5 219t64.5 232.5t22.5 260t-22.5 260t-64.5 232.5t-101.5 219t-133.5 218.5l-86 -59q68 -102 123 -198.5t94 -200t59.5 -219.5t20.5 -253q0 -139 -20.5 -253.5t-59.5 -218t-94 -201t-123 -197.5z" />
<glyph unicode="*" horiz-adv-x="815" d="M63 1176l25 77l279 -90v295h82v-295l278 90l25 -77l-273 -89l168 -233l-67 -49l-172 235l-170 -235l-68 49l168 231z" />
<glyph unicode="+" horiz-adv-x="1064" d="M70 438h411v-438h103v438h411v99h-411v421h-103v-421h-411v-99z" />
<glyph unicode="," horiz-adv-x="448" d="M66 -301l170 481l98 -35l-174 -479z" />
<glyph unicode="-" horiz-adv-x="681" d="M68 436v99h546v-99h-546z" />
<glyph unicode="." horiz-adv-x="434" d="M135 57.5q0 34.5 23.5 58t58.5 23.5t58.5 -23.5t23.5 -58t-23.5 -58.5t-58.5 -24t-58.5 24t-23.5 58.5z" />
<glyph unicode="/" horiz-adv-x="993" d="M39 -219l811 1841l88 -39l-811 -1841z" />
<glyph unicode="0" horiz-adv-x="1212" d="M86 716.5q0 141.5 29.5 274.5t93 236.5t163 167t236.5 63.5t235.5 -63.5t161 -167t92 -236.5t29.5 -274q0 -139 -29.5 -272.5t-92 -238t-161 -168t-235.5 -63.5t-236.5 63.5t-163 167t-93 236.5t-29.5 274.5zM197 716.5q0 -112.5 23.5 -226t72.5 -204.5t127 -148.5 t188.5 -57.5t187 57.5t126 148.5t72 204.5t22.5 226t-22.5 226.5t-72 205t-126 148.5t-187 57.5t-188.5 -57.5t-127 -148.5t-72.5 -205t-23.5 -226.5z" />
<glyph unicode="1" horiz-adv-x="794" d="M57 1130l379 304h88v-1434h-106v1282l-297 -233z" />
<glyph unicode="2" horiz-adv-x="1089" d="M109 1143q18 55 53 111.5t87 101.5t122.5 73.5t163.5 28.5q94 0 171.5 -31.5t132 -86t84 -126t29.5 -153.5q0 -68 -18.5 -126t-46 -106.5t-57 -87.5t-50.5 -69l-454 -574h645v-98h-856l544 686q27 35 60 74t59.5 84t45 97t18.5 113.5t-20.5 116t-58.5 95.5t-95.5 64.5 t-131 23.5t-128 -22.5t-93.5 -59.5t-64.5 -81t-39.5 -87z" />
<glyph unicode="3" horiz-adv-x="1114" d="M98 289l101 49q18 -51 47.5 -97t72.5 -82t100.5 -57.5t131.5 -21.5q70 0 131 20.5t106.5 60.5t71 97t25.5 129q0 123 -79 206t-241 83h-84v106h74q70 0 125 21.5t94 60.5t60.5 90.5t21.5 112.5q0 129 -85 208t-218 79q-61 0 -110.5 -17.5t-86.5 -47t-63.5 -67.5 t-40.5 -79l-98 41q18 49 52 97t83 88t114.5 64.5t149.5 24.5q88 0 164 -29.5t130 -81t85 -123t31 -153.5q0 -63 -17.5 -116.5t-46.5 -95.5t-64.5 -73.5t-72.5 -52.5q100 -33 164.5 -124t64.5 -226q0 -96 -34.5 -172t-95 -128t-141.5 -80t-171 -28q-96 0 -171 29t-130 73 t-92 100t-58 112z" />
<glyph unicode="4" horiz-adv-x="1105" d="M4 408l739 1026h103v-928h198v-98h-198v-408h-107v408h-735zM195 506h544v758z" />
<glyph unicode="5" horiz-adv-x="1177" d="M143 270l97 54q18 -43 47.5 -86t74 -78t100.5 -57.5t126 -22.5q76 0 142.5 26.5t115.5 75.5t77.5 117t28.5 150q0 80 -26.5 146.5t-74.5 114.5t-115.5 75.5t-147.5 27.5q-61 0 -116.5 -15.5t-104 -39t-88 -53t-70.5 -60.5v789h792v-99h-686v-493q45 25 117 50.5t166 25.5 q96 0 181 -33t147.5 -94.5t99.5 -148.5t37 -193q0 -111 -38 -199t-103.5 -148.5t-151.5 -93.5t-180 -33q-86 0 -158 26t-128 67t-96 94t-65 108z" />
<glyph unicode="6" horiz-adv-x="1122" d="M106 436q0 127 70 260q14 29 60 107l106 182l139 236l156 256l86 -56l-348 -569q27 14 75 30.5t121 16.5q104 0 188.5 -39t143 -103.5t90 -146.5t31.5 -168t-30.5 -169t-89 -149.5t-144.5 -107.5t-194.5 -41t-194.5 41t-144.5 106.5t-89.5 147.5t-31 166zM217 446 q0 -80 26.5 -146.5t72.5 -115.5t109.5 -76.5t139.5 -27.5t139.5 27.5t109.5 76.5t72.5 115t26.5 143.5t-26.5 142t-72.5 111.5t-110.5 73t-140.5 26q-74 0 -137.5 -25t-109.5 -71t-72.5 -110.5t-26.5 -142.5z" />
<glyph unicode="7" horiz-adv-x="1040" d="M106 1335v99h930l-753 -1457l-90 50l677 1308h-764z" />
<glyph unicode="8" horiz-adv-x="1155" d="M131 397q0 129 65.5 225.5t163.5 143.5q-37 20 -69.5 52t-57 72t-39 88t-14.5 101q0 70 26.5 138.5t78 122t125 86t168 32.5t168 -32.5t125 -86t78 -122t26.5 -138.5q0 -53 -14.5 -101t-39 -88t-57.5 -72t-69 -52q98 -47 163.5 -143.5t65.5 -225.5q0 -86 -33 -162.5 t-91 -134t-140 -91.5t-182.5 -34t-182.5 34t-140 91.5t-91 134t-33 162.5zM242 395.5q0 -67.5 24.5 -126t68.5 -100.5t105.5 -65.5t137 -23.5t137 23.5t105.5 65.5t68.5 100.5t24.5 126t-24.5 126t-68.5 99.5t-105.5 64.5t-137 23.5t-137 -23.5t-105.5 -64.5t-68.5 -99.5 t-24.5 -126zM291 1081.5q0 -65.5 22.5 -117t62.5 -87t91.5 -54t110.5 -18.5q57 0 109 18.5t92 54t62.5 87t22.5 117t-22.5 115.5t-62.5 85t-92 53.5t-109 18.5q-59 0 -110.5 -18.5t-91.5 -53.5t-62.5 -85t-22.5 -115.5z" />
<glyph unicode="9" horiz-adv-x="1122" d="M98 993q0 82 31 166t89 149.5t144.5 107.5t195 42t194.5 -41t144 -107.5t89 -148.5t31 -164q0 -127 -70 -260q-29 -55 -143 -254l-305 -520l-86 55l336 564q-27 -14 -75 -30.5t-122 -16.5q-104 0 -188 39.5t-142.5 104t-90.5 147.5t-32 167zM209 991q0 -78 26.5 -142.5 t72.5 -111.5t110.5 -72.5t140.5 -25.5q74 0 137.5 24.5t109.5 70.5t72.5 110.5t26.5 144.5q0 78 -26.5 144.5t-72.5 115.5t-109.5 77t-139.5 28t-139.5 -28t-109.5 -77t-72.5 -115.5t-26.5 -142.5z" />
<glyph unicode=":" horiz-adv-x="450" d="M143 57.5q0 34.5 23.5 58t58.5 23.5t58.5 -23.5t23.5 -58t-23.5 -58.5t-58.5 -24t-58.5 24t-23.5 58.5zM143 876.5q0 34.5 23.5 58t58.5 23.5t58.5 -23.5t23.5 -58t-23.5 -58t-58.5 -23.5t-58.5 23.5t-23.5 58z" />
<glyph unicode=";" horiz-adv-x="448" d="M66 -301l170 481l98 -35l-174 -479zM152 876.5q0 34.5 23.5 58t58 23.5t58 -23.5t23.5 -58t-23.5 -58t-58 -23.5t-58 23.5t-23.5 58z" />
<glyph unicode="&#x3c;" horiz-adv-x="1064" d="M25 500v110l946 406v-107l-834 -354l834 -354v-107z" />
<glyph unicode="=" horiz-adv-x="1064" d="M113 309v99h839v-99h-839zM113 588v98h839v-98h-839z" />
<glyph unicode="&#x3e;" horiz-adv-x="1064" d="M94 94l946 406v110l-946 406v-107l834 -354l-834 -354v-107z" />
<glyph unicode="?" horiz-adv-x="978" d="M63 1163q39 133 143.5 214t258.5 81q84 0 158.5 -26.5t130 -75.5t87 -118t31.5 -153q0 -90 -33.5 -153.5t-82.5 -112.5t-103.5 -89t-95.5 -79q-10 -10 -15 -17t-8.5 -17.5t-3.5 -26.5v-39v-182h-106v184q0 43 1 67.5t8 43t20.5 33t38.5 36.5q49 41 97 76t86 74t62.5 86.5 t24.5 113.5q0 57 -19.5 106.5t-56.5 86.5t-92 57.5t-125 20.5q-72 0 -125 -20.5t-90 -53.5t-58.5 -72t-31.5 -78zM395 57.5q0 34.5 23.5 58t58.5 23.5t58.5 -23.5t23.5 -58t-23.5 -58.5t-58.5 -24t-58.5 24t-23.5 58.5z" />
<glyph unicode="@" horiz-adv-x="1636" d="M98 716.5q0 153.5 58.5 289t159 235.5t236.5 158.5t294 58.5q152 0 278.5 -55t219 -152.5t143.5 -231.5t51 -294q0 -131 -31.5 -213t-78 -128t-98.5 -62.5t-91 -16.5q-55 0 -107.5 31t-62.5 108q-41 -55 -112.5 -97t-159.5 -42q-49 0 -101.5 15.5t-96.5 47t-71.5 81 t-27.5 114.5q0 61 25.5 110.5t68.5 82t98.5 50t114.5 17.5q84 0 146.5 -28.5t103.5 -61.5v60q0 70 -20.5 115.5t-52.5 73.5t-74 38t-85 10q-76 0 -137 -23.5t-104 -52.5l-43 78q51 31 124.5 57.5t161.5 26.5q147 0 233.5 -82t86.5 -217v-334q0 -41 21.5 -66.5t74.5 -25.5 q27 0 62.5 11.5t67.5 46t54.5 99t22.5 173.5q0 147 -45 267t-125 206t-191.5 132t-244.5 46q-141 0 -261 -51t-208 -139t-138.5 -208t-50.5 -255t50.5 -255t138.5 -209t209 -141.5t262 -52.5q117 0 208 29t144 57l35 -75q-63 -35 -162.5 -66t-222.5 -31q-158 0 -294 58.5 t-237.5 159t-160 235.5t-58.5 288.5zM590 563q0 -72 59.5 -122t159.5 -50q96 0 154.5 45t93.5 103v104q-39 35 -98.5 64.5t-145.5 29.5q-59 0 -102 -16t-70 -41t-39 -55.5t-12 -61.5z" />
<glyph unicode="A" horiz-adv-x="1310" d="M25 0l571 1434h119l571 -1434h-115l-163 418h-705l-164 -418h-114zM344 516h623l-312 799z" />
<glyph unicode="B" horiz-adv-x="1128" d="M180 0v1434h389q92 0 167 -26t128.5 -74t83 -116.5t29.5 -154.5q0 -82 -23.5 -138.5t-53.5 -93t-57.5 -55t-35.5 -20.5q8 -2 48 -20.5t85 -59.5t80 -110.5t35 -174.5q0 -176 -113 -283.5t-321 -107.5h-441zM287 98h323q94 0 159 26t103.5 66.5t55 93t16.5 105.5 t-16.5 106.5t-53 96.5t-95 69.5t-140.5 26.5h-352v-590zM287 786h301q74 0 126 22.5t86 59.5t50 86.5t16 104.5q0 127 -79.5 201.5t-227.5 74.5h-272v-549z" />
<glyph unicode="C" horiz-adv-x="1378" d="M90 716.5q0 155.5 52.5 291t146.5 235.5t224 157.5t286 57.5q158 0 286.5 -58.5t223.5 -160.5l-76 -70q-78 86 -188.5 135.5t-245.5 49.5q-133 0 -244 -50.5t-189.5 -136.5t-121.5 -202.5t-43 -247.5q0 -133 43 -249t121.5 -202t188.5 -136t243 -50q145 0 263 57.5 t195 149.5l74 -74q-94 -111 -230 -174.5t-300 -63.5q-156 0 -286 57.5t-224 158t-146.5 235.5t-52.5 290.5z" />
<glyph unicode="D" horiz-adv-x="1370" d="M180 0v1434h391q156 0 286 -54.5t224.5 -149.5t146.5 -226.5t52 -287t-52 -286.5t-146.5 -226t-224.5 -149.5t-286 -54.5h-391zM287 98h264q141 0 256 44t194.5 126t123.5 196t44 253t-44 252.5t-123.5 195.5t-194.5 126t-256 44h-264v-1237z" />
<glyph unicode="E" horiz-adv-x="1101" d="M180 0v1434h795v-99h-688v-551h639v-98h-639v-588h700v-98h-807z" />
<glyph unicode="F" horiz-adv-x="1067" d="M180 0v1434h785v-103h-678v-547h637v-98h-637v-686h-107z" />
<glyph unicode="G" horiz-adv-x="1482" d="M90 715q0 156 52.5 292t145.5 236t224 157.5t291 57.5q82 0 157.5 -15.5t141 -42t121 -64.5t94.5 -81l-76 -71q-68 76 -184.5 123t-253.5 47t-248 -49.5t-189.5 -136.5t-121.5 -203.5t-43 -251.5q0 -133 41 -248t119.5 -201t191.5 -135t254 -49q55 0 116.5 8t121 24.5 t113.5 42t97 60.5v438h-391v101h496v-586q-55 -49 -122 -85t-139.5 -59.5t-147 -36t-146.5 -12.5q-164 0 -295 57.5t-225.5 158t-144.5 235.5t-50 289z" />
<glyph unicode="H" horiz-adv-x="1398" d="M180 0v1434h107v-650h825v650h107v-1434h-107v686h-825v-686h-107z" />
<glyph unicode="I" horiz-adv-x="524" d="M209 0v1434h106v-1434h-106z" />
<glyph unicode="J" horiz-adv-x="954" d="M27 182l82 68q39 -66 110.5 -118t179.5 -52q70 0 121 24.5t84 67.5t48.5 99.5t15.5 117.5v1045h106v-1045q0 -100 -27.5 -177t-78 -129t-119 -80t-148.5 -28q-70 0 -128 18.5t-104 48.5t-82 66.5t-60 73.5z" />
<glyph unicode="K" horiz-adv-x="1165" d="M180 0v1434h107v-691l637 691h139l-649 -703l751 -731h-153l-725 702v-702h-107z" />
<glyph unicode="L" horiz-adv-x="999" d="M180 0v1434h107v-1336h684v-98h-791z" />
<glyph unicode="M" horiz-adv-x="1658" d="M180 0v1434h101l548 -881l549 881h101v-1434h-107v1223l-543 -865l-544 863v-1221h-105z" />
<glyph unicode="N" horiz-adv-x="1454" d="M180 0v1434h107l880 -1250v1250h107v-1434h-107l-880 1253v-1253h-107z" />
<glyph unicode="O" horiz-adv-x="1597" d="M90 716.5q0 155.5 53.5 291t148.5 235.5t224 157.5t282.5 57.5t282.5 -57.5t224.5 -157.5t148.5 -235.5t53 -291t-53 -290.5t-147.5 -235.5t-224.5 -158t-283.5 -57.5t-283.5 57.5t-224 158t-147.5 235.5t-53.5 290.5zM201 717q0 -133 43 -249t121.5 -202t188.5 -136 t245 -50t244.5 50t188.5 136t122 202t43 249q0 131 -43 247.5t-122 202.5t-188.5 136.5t-244.5 50.5t-245 -50.5t-188.5 -136.5t-121.5 -202.5t-43 -247.5z" />
<glyph unicode="P" horiz-adv-x="1052" d="M180 0v1434h367q104 0 188 -32t142.5 -88.5t90 -132t31.5 -163.5t-31.5 -164t-90 -132t-142.5 -88t-188 -32h-260v-602h-107zM287 700h262q76 0 138.5 24t107.5 64.5t69.5 99t24.5 130.5q0 70 -24.5 129t-69.5 100t-107.5 64.5t-138.5 23.5h-262v-635z" />
<glyph unicode="Q" horiz-adv-x="1615" d="M90 716.5q0 155.5 52.5 291t146.5 235.5t224 157.5t285.5 57.5t285.5 -57.5t224.5 -157.5t146.5 -235.5t52 -288.5q0 -147 -46 -274.5t-128 -225.5l205 -182l-65 -78l-211 186q-92 -80 -209 -125t-254 -45q-156 0 -286 57.5t-224 158t-146.5 235.5t-52.5 290.5zM201 717 q0 -133 43 -249t121.5 -202t189.5 -136t244 -50q115 0 211 36t172 101l-277 248l68 80l280 -254q68 86 106 194.5t38 231.5q0 131 -43 247.5t-122 202.5t-189.5 136.5t-243.5 50.5t-244 -50.5t-189.5 -136.5t-121.5 -202.5t-43 -247.5z" />
<glyph unicode="R" horiz-adv-x="1099" d="M180 0v1434h346q111 0 197 -30t146.5 -84t91 -130t30.5 -166q0 -115 -44 -188.5t-103.5 -118.5t-123 -64.5t-99.5 -23.5l409 -629h-129l-401 623h-213v-623h-107zM287 725h245q162 0 255.5 81t93.5 222t-94.5 222t-254.5 81h-245v-606z" />
<glyph unicode="S" horiz-adv-x="1097" d="M111 268l96 58q20 -49 53 -93.5t77 -78t99.5 -54t122.5 -20.5q63 0 121.5 19.5t101.5 55t69 86.5t26 117q0 68 -27 116t-72 85t-102 66l-123 57q-74 33 -143.5 72t-123 87t-86 109.5t-32.5 141.5q0 66 24.5 131t73.5 117.5t123 85t172 32.5q72 0 132.5 -18.5t109.5 -47 t87 -65.5t66 -76l-82 -63q-20 31 -49.5 60.5t-67.5 53t-87 38t-107 14.5q-131 0 -210 -73t-79 -183q0 -66 28 -113t77 -86t116.5 -72.5t145.5 -68.5q86 -39 149.5 -79t106.5 -88t64.5 -103.5t21.5 -125.5q0 -88 -32.5 -159.5t-90 -121.5t-134.5 -78t-165 -28t-158.5 26 t-127 67t-97.5 94t-67 106z" />
<glyph unicode="T" horiz-adv-x="1036" d="M33 1335v99h971v-99h-433v-1335h-106v1335h-432z" />
<glyph unicode="U" horiz-adv-x="1380" d="M180 539v895h107v-885q0 -104 22.5 -190.5t71.5 -149t126 -96t183.5 -33.5t183 33.5t126 96t72 148.5t22.5 191v885h106v-895q0 -125 -33.5 -228.5t-98 -178.5t-160 -116t-218.5 -41t-218 41t-159.5 116t-98.5 178.5t-34 228.5z" />
<glyph unicode="V" horiz-adv-x="1220" d="M12 1434h115l485 -1219l486 1219h110l-598 -1475z" />
<glyph unicode="W" horiz-adv-x="1923" d="M8 1434h115l418 -1172l366 1172h109l373 -1172l413 1172h113l-529 -1475l-423 1298l-426 -1298z" />
<glyph unicode="X" horiz-adv-x="1202" d="M43 0l496 739l-463 695h129l397 -609l399 609h125l-462 -695l495 -739h-129l-430 653l-432 -653h-125z" />
<glyph unicode="Y" horiz-adv-x="1163" d="M33 1434h123l428 -762l428 762h118l-495 -871v-563h-107v563z" />
<glyph unicode="Z" horiz-adv-x="1155" d="M49 0l873 1335h-826v99h1010l-873 -1336h842v-98h-1026z" />
<glyph unicode="[" horiz-adv-x="630" d="M174 -471v1987h344v-99h-237v-1790h237v-98h-344z" />
<glyph unicode="\" horiz-adv-x="993" d="M55 1583l88 39l811 -1841l-88 -39z" />
<glyph unicode="]" horiz-adv-x="628" d="M172 -373h238v1790h-238v99h344v-1987h-344v98z" />
<glyph unicode="^" horiz-adv-x="1097" d="M78 717l422 831h98l422 -831h-123l-348 706l-352 -706h-119z" />
<glyph unicode="_" horiz-adv-x="1024" d="M86 -365h852v-106h-852v106z" />
<glyph unicode="`" horiz-adv-x="540" d="M47 1346l80 75l305 -305l-72 -67z" />
<glyph unicode="a" horiz-adv-x="1034" d="M98 289q0 78 32 137t84 99t119.5 60.5t139.5 20.5t155 -20.5t152 -67.5v70q0 86 -28.5 138t-69.5 81t-90 38t-88 9q-78 0 -158 -23.5t-145 -62.5l-47 92q53 33 145 65.5t207 32.5q96 0 167.5 -27.5t119 -74.5t71 -109.5t23.5 -134.5v-612h-96v162q-66 -90 -159 -138.5 t-190 -48.5q-61 0 -122.5 20.5t-110.5 59.5t-80 97.5t-31 136.5zM209 289q0 -53 22.5 -93t59.5 -66t82 -38t90 -12q53 0 101 16.5t88 43t73 60t55 68.5v158q-53 35 -131 56.5t-153 21.5q-53 0 -104.5 -12.5t-92.5 -39t-65.5 -67.5t-24.5 -96z" />
<glyph unicode="b" horiz-adv-x="1161" d="M180 0v1548h105v-762q8 14 32.5 43t65.5 57.5t100.5 50t139.5 21.5q98 0 182 -35.5t147.5 -100t99 -156t35.5 -200t-35.5 -199.5t-98 -155.5t-147.5 -100.5t-181 -36q-66 0 -120 15.5t-98.5 41t-77 58.5t-53.5 68v-158h-96zM287 279q20 -37 52 -73t74 -63.5t93 -45 t112 -17.5q80 0 146.5 29.5t114 82t73 123t25.5 152.5t-25.5 152.5t-73 123t-114 82t-146.5 29.5q-61 0 -112 -17.5t-93 -45t-74 -63.5t-52 -73v-376z" />
<glyph unicode="c" horiz-adv-x="983" d="M74 467q0 100 35.5 190.5t100 157t152 105t191.5 38.5q68 0 125 -16t105 -40.5t84 -56.5t61 -63l-76 -67q-39 49 -114.5 94t-182.5 45q-84 0 -152.5 -31.5t-116.5 -85t-75 -123t-27 -147.5t27 -147.5t75 -123t116.5 -85t152.5 -31.5q113 0 190.5 50t118.5 106l74 -70 q-55 -74 -152.5 -132.5t-232.5 -58.5q-104 0 -191.5 39t-152 105.5t-100 156t-35.5 191.5z" />
<glyph unicode="d" horiz-adv-x="1161" d="M74 466.5q0 108.5 35.5 200t98 156t146.5 100t178 35.5q80 0 139.5 -22.5t101.5 -53t67.5 -61t36.5 -45.5v772h104v-1548h-96v172q-23 -35 -54.5 -69.5t-74.5 -63.5t-99.5 -46.5t-124.5 -17.5q-94 0 -178 36t-146.5 100.5t-98 155.5t-35.5 199.5zM184 467 q0 -82 26 -152.5t73 -123t111.5 -82t142.5 -29.5q63 0 116.5 19.5t95.5 50t73.5 69.5t51.5 78v340q-23 41 -54.5 80t-73 69.5t-94 49t-113.5 18.5q-78 0 -143.5 -29.5t-112.5 -82t-73 -123t-26 -152.5z" />
<glyph unicode="e" d="M74 471q0 98 33.5 186t93 155t143.5 106.5t184 39.5q96 0 180.5 -36.5t145.5 -101t97 -156t36 -197.5v-21q0 -6 -2 -22h-805q2 -55 26.5 -115.5t71 -111t114 -84t157.5 -33.5q55 0 104 13t90 36t73 51.5t56 59.5l72 -74q-72 -86 -175 -138.5t-222 -52.5q-102 0 -188.5 39 t-150 106.5t-99 158t-35.5 192.5zM184 522h693q-2 39 -20.5 96.5t-59.5 109.5t-106.5 89t-160.5 37q-96 0 -160.5 -38t-105.5 -90t-59.5 -108.5t-20.5 -95.5z" />
<glyph unicode="f" horiz-adv-x="661" d="M47 836v98h201v366q0 68 21.5 118t58.5 85t86 52.5t104 17.5q29 0 69 -8.5t95 -36.5l-45 -92q-16 10 -48 21t-75 11q-86 0 -123 -55t-37 -141v-338h246v-98h-246v-836h-106v836h-201z" />
<glyph unicode="g" horiz-adv-x="1128" d="M74 466.5q0 108.5 35.5 200t99 156t146.5 100t180 35.5q68 0 123 -17t99 -45t75.5 -63.5t52.5 -70.5v172h96v-957q0 -111 -33 -197.5t-93 -148t-144 -94.5t-185 -33q-76 0 -140 16.5t-118.5 44t-97.5 61.5t-74 69l72 76q25 -29 58.5 -58.5t78.5 -52t100.5 -37 t120.5 -14.5q88 0 153.5 27.5t108.5 75.5t64.5 115t21.5 146v183q-12 -16 -36.5 -46t-65.5 -60t-99.5 -52.5t-137.5 -22.5q-96 0 -179.5 36t-147 100.5t-99 155.5t-35.5 199.5zM184 467q0 -82 26 -152.5t72 -123t111.5 -82t143.5 -29.5q66 0 119 19.5t96 50t73.5 69.5 t48.5 78v340q-18 39 -48.5 78t-73.5 69.5t-96.5 50t-118.5 19.5q-78 0 -143.5 -29.5t-111.5 -82t-72 -123t-26 -152.5z" />
<glyph unicode="h" horiz-adv-x="1093" d="M180 0v1548h107v-768q18 33 46.5 65t67.5 57.5t88.5 40.5t108.5 15q63 0 125.5 -20t112 -65.5t80 -114t30.5 -162.5v-596h-106v580q0 72 -20.5 124t-55.5 85.5t-82 49t-98 15.5q-61 0 -109.5 -18.5t-84.5 -49t-61.5 -67.5t-41.5 -74v-645h-107z" />
<glyph unicode="i" horiz-adv-x="458" d="M147 1237q0 35 24 58.5t58.5 23.5t58 -23.5t23.5 -58.5t-23.5 -58.5t-58 -23.5t-58.5 23.5t-24 58.5zM176 0v934h107v-934h-107z" />
<glyph unicode="j" horiz-adv-x="503" d="M-45 -453l41 93q29 -16 52.5 -23.5t49.5 -7.5q16 0 38 4t40.5 19.5t31.5 44t13 77.5v1180h107v-1196q0 -63 -20.5 -108.5t-52.5 -73t-71 -40t-78 -12.5q-49 0 -89 14.5t-62 28.5zM193 1237q0 35 23.5 58.5t58 23.5t58 -23.5t23.5 -58.5t-23.5 -58.5t-58 -23.5t-58 23.5 t-23.5 58.5z" />
<glyph unicode="k" horiz-adv-x="962" d="M180 0v1548h107v-1042l467 428h149l-485 -447l532 -487h-157l-506 467v-467h-107z" />
<glyph unicode="l" horiz-adv-x="466" d="M180 0l4 1548h103v-1548h-107z" />
<glyph unicode="m" horiz-adv-x="1572" d="M147 0v934h97v-158q37 72 109.5 127t183.5 55q92 0 166.5 -45t113.5 -137q2 4 20.5 34t54.5 62.5t91 59t133 26.5q53 0 108.5 -17t99.5 -57t72.5 -105.5t28.5 -164.5v-614h-106v582q0 143 -61.5 207.5t-159.5 64.5q-51 0 -92 -15.5t-72 -41t-53.5 -58t-36.5 -65.5v-674 h-107v582q0 143 -61.5 207.5t-159.5 64.5q-51 0 -92 -15.5t-74 -41t-56.5 -58t-39.5 -65.5v-674h-107z" />
<glyph unicode="n" d="M147 0v934h97v-170q18 33 45.5 67.5t67.5 63.5t92.5 46t116 17t126 -20t111.5 -65.5t79.5 -114t30.5 -162.5v-596h-106v580q0 72 -20.5 124t-55.5 85.5t-82 49t-98 15.5q-61 0 -109.5 -18.5t-84 -49t-61.5 -67.5t-42 -74v-645h-107z" />
<glyph unicode="o" horiz-adv-x="1097" d="M74 467q0 100 34.5 190.5t98 157t150.5 105t191.5 38.5t191.5 -38.5t150.5 -105t98.5 -157t35 -190.5q0 -102 -35 -191.5t-98.5 -156t-150.5 -105.5t-191.5 -39t-191.5 39t-150.5 105.5t-98 156t-34.5 191.5zM184 467q0 -80 24.5 -149.5t71 -123t114 -84t155.5 -30.5 t155.5 30.5t113.5 84t70.5 123t24.5 149.5t-24.5 149.5t-70.5 123t-113.5 84t-155.5 30.5t-155.5 -30.5t-114 -84t-71 -123t-24.5 -149.5z" />
<glyph unicode="p" horiz-adv-x="1128" d="M147 -471v1405h97v-172q20 35 53 70.5t77 63.5t99 45t123 17q94 0 178 -35.5t146.5 -100t98.5 -156t36 -200t-36 -199.5t-98.5 -155.5t-146.5 -100.5t-178 -36q-78 0 -137.5 22.5t-100.5 52.5t-66.5 59.5t-37.5 46.5v-627h-107zM254 297q20 -41 53 -80t75 -69.5t94 -49 t114 -18.5q78 0 143.5 29.5t112.5 82t72.5 123t25.5 152.5t-25.5 152.5t-72.5 123t-112.5 82t-143.5 29.5q-61 0 -113.5 -18.5t-94.5 -49t-75 -69.5t-53 -80v-340z" />
<glyph unicode="q" horiz-adv-x="1128" d="M74 466.5q0 108.5 35.5 200t98 156t146.5 100t178 35.5q68 0 123.5 -17t99.5 -45t76.5 -63.5t53.5 -70.5v172h96v-1405h-107v627q-12 -16 -37.5 -46t-66.5 -60t-100.5 -52.5t-137.5 -22.5q-94 0 -178 36t-146.5 100.5t-98 155.5t-35.5 199.5zM184 467q0 -82 26 -152.5 t73 -123t112.5 -82t143.5 -29.5q61 0 113.5 18.5t94 49t74.5 69.5t53 80v340q-20 41 -53 80t-74.5 69.5t-94 49t-113.5 18.5q-78 0 -143.5 -29.5t-112.5 -82t-73 -123t-26 -152.5z" />
<glyph unicode="r" horiz-adv-x="673" d="M147 0v934h97v-152q16 33 41.5 65t60.5 56.5t78 39.5t96 15q33 0 72 -6t70 -18l-46 -103q-14 8 -46.5 15.5t-67.5 7.5q-49 0 -87 -15.5t-69 -41t-53.5 -58t-38.5 -65.5v-674h-107z" />
<glyph unicode="s" horiz-adv-x="915" d="M76 174l84 72q39 -61 118.5 -113.5t194.5 -52.5q39 0 82 8t80 27.5t60.5 50.5t23.5 78q0 41 -19.5 67.5t-55.5 46t-83 32.5t-102 26q-70 16 -130.5 37.5t-105.5 54.5t-70.5 76t-25.5 102q0 55 22.5 104.5t65.5 86t104.5 59t139.5 22.5q111 0 195.5 -38.5t136.5 -92.5 l-70 -77q-37 37 -104.5 70.5t-159.5 33.5q-96 0 -158.5 -43t-62.5 -119q0 -43 21.5 -70.5t59 -48t89.5 -32.5l110 -29q61 -14 118.5 -33.5t100.5 -50.5t68.5 -74t25.5 -106q0 -70 -30.5 -121t-79.5 -85t-113.5 -50.5t-132.5 -16.5q-72 0 -134.5 17.5t-112.5 46.5t-88 63.5 t-62 71.5z" />
<glyph unicode="t" horiz-adv-x="772" d="M57 836v98h203v301h107v-301h317v-98h-317v-564q0 -39 8 -73.5t26.5 -61t49 -42t75.5 -15.5q47 0 84 14.5t60 28.5l41 -92q-47 -27 -93.5 -41.5t-99.5 -14.5q-63 0 -111.5 21.5t-81 59.5t-49 88.5t-16.5 107.5v584h-203z" />
<glyph unicode="u" d="M147 338v596h107v-580q0 -72 19.5 -124t54 -85.5t82 -49t100.5 -15.5q61 0 108.5 17.5t83 47t61 66.5t44.5 74v649h106v-934h-96v166q-41 -74 -119.5 -132.5t-201.5 -58.5q-66 0 -128.5 20.5t-111.5 65.5t-79 113t-30 164z" />
<glyph unicode="v" horiz-adv-x="966" d="M16 934h115l354 -752l355 752h110l-467 -975z" />
<glyph unicode="w" horiz-adv-x="1523" d="M20 934h115l303 -731l297 731h62l295 -731l301 731h110l-418 -975l-323 780l-326 -780z" />
<glyph unicode="x" horiz-adv-x="999" d="M53 0l383 481l-356 453h131l289 -379l288 379h132l-357 -453l383 -481h-131l-315 406l-316 -406h-131z" />
<glyph unicode="y" horiz-adv-x="1001" d="M29 934h114l406 -838l325 838h111l-237 -598l-89 -225l-79 -201l-60 -148l-28 -67q-41 -104 -99.5 -147.5t-136.5 -43.5q-51 0 -96 18.5t-97 63.5l64 86q23 -23 55.5 -43t75.5 -20q47 0 79 30.5t60 100.5l97 244z" />
<glyph unicode="z" horiz-adv-x="952" d="M78 0l604 827h-561v107h762l-604 -828h581v-106h-782z" />
<glyph unicode="{" horiz-adv-x="638" d="M80 463v119q39 0 76 6t65.5 27.5t46 62.5t17.5 110v494q0 61 20.5 105.5t52 73t71.5 42t81 13.5h41v-99h-21q-31 0 -56 -5t-43.5 -20.5t-29 -44t-10.5 -77.5v-482q0 -80 -18.5 -131t-49 -79.5t-68.5 -39t-77 -12.5v-8q39 -2 77 -12t68.5 -39t49 -80t18.5 -131v-481 q0 -49 10.5 -78t29 -44t44 -20.5t55.5 -5.5h21v-98h-41q-104 0 -164.5 57.5t-60.5 175.5v494q0 70 -17.5 111t-46 62.5t-65.5 27.5t-76 6z" />
<glyph unicode="|" horiz-adv-x="532" d="M213 -471v1987h106v-1987h-106z" />
<glyph unicode="}" horiz-adv-x="638" d="M88 -373h21q31 0 56 5.5t43.5 20.5t29 44t10.5 78v481q0 80 18.5 131t49 80t68.5 39t77 12v8q-39 2 -77 12.5t-68.5 39t-49 80t-18.5 130.5v482q0 49 -10.5 77.5t-29 44t-44 20.5t-55.5 5h-21v99h41q39 0 80 -13.5t72.5 -42t52 -73t20.5 -105.5v-494q0 -70 17.5 -110.5 t46 -62t65.5 -27.5t76 -6v-119q-39 0 -76 -6t-65.5 -27.5t-46 -62.5t-17.5 -111v-494q0 -119 -60.5 -176t-164.5 -57h-41v98z" />
<glyph unicode="~" horiz-adv-x="837" d="M45 639q23 88 85.5 132t133.5 44q51 0 92 -18.5t78 -41t71 -41t68 -18.5q41 0 79 30t48 95l93 -51q-23 -88 -85.5 -132t-134.5 -44q-51 0 -92 18.5t-77.5 41t-70.5 41t-69 18.5q-41 0 -79 -30t-48 -95z" />
<glyph unicode="&#xa1;" horiz-adv-x="524" d="M180 889q0 35 23.5 58.5t58.5 23.5t58.5 -23.5t23.5 -58.5t-23.5 -58.5t-58.5 -23.5t-58.5 23.5t-23.5 58.5zM209 -487v1062h106v-1062h-106z" />
<glyph unicode="&#xa2;" horiz-adv-x="1187" d="M174 467q0 94 31 178t87 148.5t134 107.5t170 53v189h88v-187q57 -4 110.5 -20t97.5 -41t79 -54.5t57 -58.5l-76 -67q-35 47 -105.5 88t-162.5 49v-772q96 8 171 55t110 101l73 -70q-25 -35 -61.5 -66.5t-82.5 -58.5t-99.5 -43t-110.5 -21v-170h-88v173q-92 10 -170 52 t-134 107.5t-87 149.5t-31 178zM285 467q0 -72 21.5 -136.5t62.5 -115.5t98 -86t129 -45v766q-72 -10 -129 -45t-98 -87t-62.5 -116.5t-21.5 -134.5z" />
<glyph unicode="&#xa3;" horiz-adv-x="1187" d="M160 647v98h168q-57 100 -89 175t-32 151q0 63 24.5 132t75.5 126t128 93t179 36q74 0 134.5 -18.5t107.5 -48t82 -65.5t59 -71l-82 -61q-18 27 -44.5 54.5t-63.5 51t-85 39t-108 15.5q-84 0 -140 -29t-91 -72t-50.5 -93t-15.5 -93q0 -33 8.5 -64.5t25 -69.5t41 -84 t59.5 -104h393v-98h-338q23 -39 44 -97t21 -126q0 -66 -20.5 -119t-50.5 -86q43 -10 78 -33l71 -47q37 -23 76 -41t88 -18q39 0 68.5 12t50 32.5t33 44.5t18.5 46l90 -45q-12 -35 -34.5 -69.5t-55.5 -62.5t-77 -45.5t-99 -17.5q-68 0 -117 22.5t-90 49.5t-82 49.5t-92 22.5 q-72 0 -113 -44t-55 -100l-96 52q20 70 75.5 127t133.5 73q49 39 69.5 96.5t20.5 102.5q0 57 -25.5 115.5t-54.5 105.5h-221z" />
<glyph unicode="&#xa4;" horiz-adv-x="1150" d="M66 229l137 138q-49 59 -76 133.5t-27 161.5q0 84 27 158.5t76 135.5l-137 138l77 77l138 -137q59 47 133.5 75t160.5 28q84 0 159 -28t136 -75l138 137l77 -77l-137 -138q47 -61 75 -136t28 -158q0 -86 -28 -161t-75 -134l137 -138l-77 -77l-138 137q-61 -49 -136 -76 t-159 -27q-86 0 -160.5 27t-133.5 76l-138 -137zM203 659.5q0 -77.5 28.5 -145.5t79.5 -119t119 -79.5t145.5 -28.5t146.5 28.5t119 79.5t79.5 119t29.5 145.5t-29.5 146t-79.5 119t-119 80t-146.5 29.5t-145.5 -29.5t-119 -80t-79.5 -119t-28.5 -146z" />
<glyph unicode="&#xa5;" horiz-adv-x="1187" d="M45 1434h127l428 -760l424 760h119l-316 -553h289v-97h-342l-78 -135h420v-96h-469v-553h-106v553h-469v96h420l-78 135h-342v97h288z" />
<glyph unicode="&#xa6;" horiz-adv-x="532" d="M213 328h106v-799h-106v799zM213 717v799h106v-799h-106z" />
<glyph unicode="&#xa7;" horiz-adv-x="1040" d="M147 545q0 61 21.5 108t56.5 82t80 57.5t92 34.5q-43 25 -85 54.5t-73.5 68.5t-52 86t-20.5 105q0 68 27.5 125t76.5 100t115 67.5t141 24.5q119 0 205 -53t135 -115l-84 -65q-35 49 -97 89t-161 40q-63 0 -110 -18.5t-78 -49.5t-45.5 -69.5t-14.5 -77.5q0 -63 32 -108.5 t80 -80.5t106 -61l108 -51q51 -25 102.5 -53.5t92.5 -65.5t66.5 -86t25.5 -117q0 -66 -22.5 -114t-59.5 -81.5t-81 -55t-87 -32.5q43 -25 85 -55.5t73.5 -69t52 -85t20.5 -103.5q0 -68 -27.5 -125t-76.5 -100t-114.5 -67.5t-141.5 -24.5q-119 0 -205 53t-135 115l84 65 q35 -49 97.5 -89t160.5 -40q63 0 110.5 18.5t78 49t45 68.5t14.5 79q0 63 -32 108.5t-80 80t-105 61.5l-109 51q-55 27 -106.5 55.5t-91 65.5t-64.5 86t-25 115zM252 549q0 -55 23.5 -92t62.5 -66t88 -51l98 -49q33 2 77 14t85 37t69.5 66t28.5 102q0 55 -23.5 93t-61 66.5 t-87.5 51.5l-100 49h-4q-23 0 -66 -10t-85 -35t-73.5 -68t-31.5 -108z" />
<glyph unicode="&#xa8;" horiz-adv-x="800" d="M133 1237q0 35 23.5 58.5t58.5 23.5t58.5 -23.5t23.5 -58.5t-23.5 -58.5t-58.5 -23.5t-58.5 23.5t-23.5 58.5zM504 1237q0 35 23.5 58.5t58.5 23.5t58.5 -23.5t23.5 -58.5t-23.5 -58.5t-58.5 -23.5t-58.5 23.5t-23.5 58.5z" />
<glyph unicode="&#xa9;" horiz-adv-x="1679" d="M102 716.5q0 153.5 58.5 289t159 235.5t234.5 158.5t285.5 58.5t286 -58.5t234.5 -158.5t158.5 -235.5t58.5 -289t-58.5 -288.5t-158.5 -235.5t-234.5 -159t-286 -58.5t-285.5 58.5t-234.5 159t-159 235.5t-58.5 288.5zM190 721q0 -133 48.5 -253t135.5 -210 t205.5 -143.5t260 -53.5t260.5 53.5t206 143.5t135 210t48 253t-48 252t-135 208t-206 140t-260.5 51t-260 -51t-205.5 -140t-135.5 -208t-48.5 -252zM465 713q0 84 29.5 157.5t83 129t126 88t158.5 32.5q113 0 190.5 -47t116.5 -96l-67 -59q-29 37 -88.5 73.5t-151.5 36.5 q-70 0 -126 -25.5t-96 -68.5t-61.5 -100.5t-21.5 -120.5q0 -66 21.5 -123.5t61.5 -100.5t96 -67.5t126 -24.5q92 0 155.5 39t98.5 86l64 -59q-20 -27 -50 -54.5t-70 -51t-90 -38t-108 -14.5q-86 0 -158.5 33t-126 88t-83 129t-29.5 158z" />
<glyph unicode="&#xaa;" horiz-adv-x="626" d="M61 1055q0 86 61.5 139t156.5 53q59 0 101 -18.5t64 -34.5v39q0 43 -16 69.5t-39.5 40t-49.5 17.5t-42 4q-43 0 -86 -14.5t-76 -32.5l-41 84q35 23 89 40t120 17q61 0 107.5 -17.5t75 -46t43 -65.5t14.5 -76v-370h-90v82q-29 -41 -78 -69t-109 -28q-37 0 -73.5 12.5 t-66.5 36t-47.5 58.5t-17.5 80zM160 1055q0 -51 40 -74t85 -23q53 0 93 25t66 59v72q-16 14 -53 30.5t-90 16.5q-66 0 -103.5 -29.5t-37.5 -76.5z" />
<glyph unicode="&#xab;" horiz-adv-x="929" d="M45 502l352 459l82 -66l-305 -393l305 -393l-82 -66zM352 502l353 459l81 -66l-305 -393l305 -393l-81 -66z" />
<glyph unicode="&#xac;" horiz-adv-x="1380" d="M37 895v98h1208v-583h-102v485h-1106z" />
<glyph unicode="&#xad;" horiz-adv-x="681" d="M68 436v99h546v-99h-546z" />
<glyph unicode="&#xae;" horiz-adv-x="829" d="M45 1087q0 76 28.5 143.5t80 119t118 80t144.5 28.5q76 0 143.5 -28.5t117.5 -80t78.5 -119t28.5 -143.5q0 -78 -28.5 -144t-78.5 -117.5t-117.5 -80t-143.5 -28.5q-78 0 -144.5 28.5t-118 80t-80 117.5t-28.5 144zM121 1087.5q0 -61.5 22.5 -115.5t62.5 -94t94 -62.5 t115.5 -22.5t116 22.5t94.5 62.5t63.5 94t23.5 115.5t-23.5 115.5t-63.5 94t-94.5 63.5t-116 23.5t-115.5 -23.5t-94 -63.5t-62.5 -94t-22.5 -115.5zM301 899v385h125q59 0 94 -32.5t35 -86.5q0 -43 -23.5 -73.5t-64.5 -40.5l100 -152h-78l-94 145h-28v-145h-66zM367 1106 h53q35 0 54.5 15.5t19.5 44t-19.5 44t-54.5 15.5h-53v-119z" />
<glyph unicode="&#xaf;" horiz-adv-x="643" d="M12 1194v98h619v-98h-619z" />
<glyph unicode="&#xb0;" horiz-adv-x="679" d="M45 1163.5q0 61.5 23.5 114.5t63.5 93t93.5 63.5t114.5 23.5t114.5 -23.5t93.5 -63.5t63.5 -93t23.5 -114.5t-23.5 -115t-63.5 -93.5t-93.5 -63.5t-114.5 -23.5t-114.5 23.5t-93.5 63.5t-63.5 93.5t-23.5 115zM139 1163q0 -84 58.5 -141t142.5 -57t142.5 57t58.5 141 t-58.5 142.5t-142.5 58.5t-142.5 -58.5t-58.5 -142.5z" />
<glyph unicode="&#xb1;" horiz-adv-x="1064" d="M92 0v98h881v-98h-881zM92 537v98h389v336h103v-336h389v-98h-389v-349h-103v349h-389z" />
<glyph unicode="&#xb2;" horiz-adv-x="718" d="M68 807l338 371q53 57 85.5 104t32.5 107q0 31 -10 62.5t-32.5 56t-57.5 41t-84 16.5q-84 0 -127 -44t-66 -104l-79 33q12 39 35.5 76t57.5 64.5t78 44t101 16.5q59 0 109.5 -19.5t87 -53.5t57 -82t20.5 -103q0 -76 -34.5 -131.5t-87.5 -116.5q-2 -2 -21 -23l-51 -57 l-72 -82l-84 -94h361v-82h-557z" />
<glyph unicode="&#xb3;" horiz-adv-x="733" d="M88 991l78 35q16 -57 63 -101t133.5 -44t134.5 45t48 110.5t-48 110.5t-130 45h-48v80h48q70 0 119 35.5t49 107.5q0 27 -9.5 53.5t-29 48t-50 35t-75.5 13.5q-78 0 -120 -37t-61 -82l-73 37q27 63 89 115.5t165 52.5q57 0 103 -18.5t80 -50.5t52.5 -74t18.5 -89 q0 -39 -11.5 -68.5t-29 -52t-38 -38t-40.5 -25.5q37 -12 61.5 -33.5t40 -49.5t21.5 -57.5t6 -58.5q0 -59 -23.5 -104t-62.5 -76t-89 -46t-102 -15q-109 0 -177 59t-93 137z" />
<glyph unicode="&#xb4;" horiz-adv-x="540" d="M109 1116l305 305l71 -71l-307 -301z" />
<glyph unicode="&#xb5;" horiz-adv-x="1081" d="M156 -471v1405h106v-559q0 -78 19.5 -134.5t54.5 -92t82 -52t104 -16.5q61 0 107.5 17.5t82.5 44t60.5 59t42.5 63.5v670h107v-934h-97v156q-20 -35 -50 -67t-69.5 -57.5t-90 -41t-111.5 -15.5q-150 0 -242 99v-545h-106z" />
<glyph unicode="&#xb6;" horiz-adv-x="1163" d="M131 946.5q0 100.5 39 189.5t104.5 154.5t154.5 104.5t189 39h365l-8 -1819h-107v1720h-143v-1720h-107v848q-100 0 -189 38t-154.5 103.5t-104.5 153.5t-39 188.5z" />
<glyph unicode="&#xb7;" horiz-adv-x="567" d="M168 735q0 47 34 82t81 35t81.5 -35t34.5 -82t-34.5 -80.5t-81.5 -33.5t-81 33.5t-34 80.5z" />
<glyph unicode="&#xb8;" horiz-adv-x="645" d="M211 -479l121 379l104 -13l-119 -397z" />
<glyph unicode="&#xb9;" horiz-adv-x="565" d="M31 1397l291 241h69v-831h-86v706l-221 -182z" />
<glyph unicode="&#xba;" horiz-adv-x="663" d="M37 1163.5q0 61.5 23.5 114.5t63.5 93t93 63.5t114.5 23.5t115 -23.5t93.5 -63.5t63.5 -93t23.5 -114.5t-23.5 -115t-63.5 -93.5t-93.5 -63.5t-115 -23.5t-114.5 23.5t-93 63.5t-63.5 93.5t-23.5 115zM135 1163q0 -82 56.5 -140t140.5 -58t140 58t56 140q0 41 -15 77 t-42 63.5t-63.5 43t-77.5 15.5q-84 0 -139.5 -58.5t-55.5 -140.5z" />
<glyph unicode="&#xbb;" horiz-adv-x="929" d="M164 109l305 393l-305 393l82 66l352 -459l-352 -459zM471 109l305 393l-305 393l82 66l352 -459l-352 -459z" />
<glyph unicode="&#xbc;" horiz-adv-x="1699" d="M104 1192l291 242h70v-832h-86v707l-221 -183zM369 -6l972 1495l72 -49l-973 -1495zM969 190l444 641h74v-559h110v-82h-110v-190h-86v190h-432zM1120 272h281v410z" />
<glyph unicode="&#xbd;" horiz-adv-x="1699" d="M104 1192l291 242h70v-832h-86v707l-221 -183zM287 -6l973 1495l71 -49l-973 -1495zM997 0l338 371q53 57 86 104t33 107q0 31 -10 62.5t-32.5 56t-57.5 41t-84 16.5q-84 0 -127 -44t-66 -104l-80 33q12 39 36 76t57.5 64.5t77.5 44t102 16.5q59 0 109.5 -19.5t87 -53.5 t57 -82t20.5 -103q0 -76 -35 -131.5t-88 -116.5q-2 -2 -20 -23l-51 -57l-72 -82l-84 -94h360v-82h-557z" />
<glyph unicode="&#xbe;" horiz-adv-x="1699" d="M90 786l78 35q16 -57 63.5 -101t133.5 -44t134 45t48 110.5t-48 110.5t-130 45h-47v80h47q70 0 119 35.5t49 107.5q0 27 -9.5 53.5t-29 48t-50 35t-75.5 13.5q-78 0 -120 -37t-60 -82l-74 37q27 63 89 115.5t165 52.5q57 0 103 -18.5t80 -50t52.5 -73.5t18.5 -90 q0 -39 -11.5 -68.5t-29 -52t-38 -38t-40.5 -25.5q37 -12 61.5 -33.5t40 -49t21.5 -57.5t6 -59q0 -59 -23.5 -104t-62.5 -75.5t-89 -46t-102 -15.5q-109 0 -177 59.5t-93 136.5zM408 -6l972 1495l72 -49l-973 -1495zM971 190l444 641h74v-559h110v-82h-110v-190h-86v190h-432 zM1122 272h281v410z" />
<glyph unicode="&#xbf;" horiz-adv-x="978" d="M106 -139q0 90 34 153.5t83 112.5t103.5 89t95.5 79q10 10 15 17t8.5 17.5t3.5 26.5v39v183h106v-185q0 -43 -1 -67.5t-8 -43t-20.5 -32.5t-38.5 -37q-49 -41 -97 -76t-86 -73.5t-62.5 -86.5t-24.5 -114q0 -57 19.5 -106.5t56.5 -86.5t92 -57.5t125 -20.5q72 0 125 20.5 t90 53.5t58.5 72t31.5 78l100 -33q-39 -133 -143 -214t-258 -81q-84 0 -158.5 26.5t-130 76t-87.5 118t-32 152.5zM420 889q0 35 23.5 58.5t58.5 23.5t58.5 -23.5t23.5 -58.5t-23.5 -58.5t-58.5 -23.5t-58.5 23.5t-23.5 58.5z" />
<glyph unicode="&#xc0;" horiz-adv-x="1310" d="M25 0l571 1434h119l571 -1434h-115l-163 418h-705l-164 -418h-114zM344 516h623l-312 799zM375 1833l80 76l305 -305l-72 -68z" />
<glyph unicode="&#xc1;" horiz-adv-x="1310" d="M25 0l571 1434h119l571 -1434h-115l-163 418h-705l-164 -418h-114zM344 516h623l-312 799zM553 1604l305 305l72 -72l-307 -301z" />
<glyph unicode="&#xc2;" horiz-adv-x="1310" d="M25 0l571 1434h119l571 -1434h-115l-163 418h-705l-164 -418h-114zM328 1622l327 236l328 -236l-61 -76l-267 197l-266 -197zM344 516h623l-312 799z" />
<glyph unicode="&#xc3;" horiz-adv-x="1310" d="M25 0l571 1434h119l571 -1434h-115l-163 418h-705l-164 -418h-114zM344 516h623l-312 799zM346 1655q23 72 76 110.5t119 38.5q41 0 74.5 -14t62.5 -31l55 -30q29 -14 60 -15q33 0 65.5 22.5t42.5 78.5l86 -52q-23 -72 -76 -110.5t-118 -38.5q-41 0 -75 14t-63 31l-55 31 q-29 14 -59 14q-33 0 -66 -22.5t-43 -77.5z" />
<glyph unicode="&#xc4;" horiz-adv-x="1310" d="M25 0l571 1434h119l571 -1434h-115l-163 418h-705l-164 -418h-114zM344 516h623l-312 799zM389 1724.5q0 34.5 23.5 58t58.5 23.5t58.5 -23.5t23.5 -58t-23.5 -58.5t-58.5 -24t-58.5 24t-23.5 58.5zM760 1724.5q0 34.5 23.5 58t58.5 23.5t58.5 -23.5t23.5 -58 t-23.5 -58.5t-58.5 -24t-58.5 24t-23.5 58.5z" />
<glyph unicode="&#xc5;" horiz-adv-x="1310" d="M25 0l571 1434h119l571 -1434h-115l-163 418h-705l-164 -418h-114zM344 516h623l-312 799zM453 1720q0 86 58 144.5t144 58.5t144.5 -58.5t58.5 -144.5t-58.5 -144t-144.5 -58t-144 58t-58 144zM537 1720.5q0 -51.5 33.5 -85t85 -33.5t86 33.5t34.5 85t-34.5 86t-86 34.5 t-85 -34.5t-33.5 -86z" />
<glyph unicode="&#xc6;" horiz-adv-x="1771" d="M25 0l835 1434h785v-99h-615v-551h565v-98h-565v-588h627v-98h-733v418h-539l-244 -418h-116zM442 516h482v827z" />
<glyph unicode="&#xc7;" horiz-adv-x="1378" d="M90 716.5q0 155.5 52.5 291t146.5 235.5t224 157.5t286 57.5q158 0 286.5 -58.5t223.5 -160.5l-76 -70q-78 86 -188.5 135.5t-245.5 49.5q-133 0 -244 -50.5t-189.5 -136.5t-121.5 -202.5t-43 -247.5q0 -133 43 -249t121.5 -202t188.5 -136t243 -50q145 0 263 57.5 t195 149.5l74 -74q-94 -111 -230 -174.5t-300 -63.5q-156 0 -286 57.5t-224 158t-146.5 235.5t-52.5 290.5zM588 -479l121 379l104 -13l-119 -397z" />
<glyph unicode="&#xc8;" horiz-adv-x="1101" d="M180 0v1434h795v-99h-688v-551h639v-98h-639v-588h700v-98h-807zM360 1845l80 76l305 -305l-71 -68z" />
<glyph unicode="&#xc9;" horiz-adv-x="1101" d="M180 0v1434h795v-99h-688v-551h639v-98h-639v-588h700v-98h-807zM381 1616l305 305l72 -72l-307 -301z" />
<glyph unicode="&#xca;" horiz-adv-x="1101" d="M180 0v1434h795v-99h-688v-551h639v-98h-639v-588h700v-98h-807zM256 1647l328 235l327 -235l-61 -76l-266 196l-267 -196z" />
<glyph unicode="&#xcb;" horiz-adv-x="1101" d="M180 0v1434h795v-99h-688v-551h639v-98h-639v-588h700v-98h-807zM313 1724.5q0 34.5 23.5 58t58.5 23.5t58.5 -23.5t23.5 -58t-23.5 -58.5t-58.5 -24t-58.5 24t-23.5 58.5zM684 1724.5q0 34.5 23.5 58t58.5 23.5t58.5 -23.5t23.5 -58t-23.5 -58.5t-58.5 -24t-58.5 24 t-23.5 58.5z" />
<glyph unicode="&#xcc;" horiz-adv-x="524" d="M33 1833l80 76l305 -305l-72 -68zM209 0v1434h106v-1434h-106z" />
<glyph unicode="&#xcd;" horiz-adv-x="524" d="M109 1604l305 305l71 -72l-307 -301zM209 0v1434h106v-1434h-106z" />
<glyph unicode="&#xce;" horiz-adv-x="524" d="M-63 1561l327 235l328 -235l-62 -76l-266 196l-266 -196zM209 0v1434h106v-1434h-106z" />
<glyph unicode="&#xcf;" horiz-adv-x="524" d="M-2 1724.5q0 34.5 23.5 58t58.5 23.5t58.5 -23.5t23.5 -58t-23.5 -58.5t-58.5 -24t-58.5 24t-23.5 58.5zM209 0v1434h106v-1434h-106zM369 1724.5q0 34.5 23.5 58t58 23.5t58 -23.5t23.5 -58t-23.5 -58.5t-58 -24t-58 24t-23.5 58.5z" />
<glyph unicode="&#xd0;" horiz-adv-x="1388" d="M49 686v98h150v650h391q156 0 286 -54.5t224 -149.5t146 -226.5t52 -287t-52 -286.5t-146 -226t-224.5 -149.5t-285.5 -54.5h-391v686h-150zM305 98h264q141 0 256 44t195 126t124 196t44 253t-44 252.5t-124 195.5t-194.5 126t-256.5 44h-264v-551h432v-98h-432v-588z " />
<glyph unicode="&#xd1;" horiz-adv-x="1454" d="M180 0v1434h107l880 -1250v1250h107v-1434h-107l-880 1253v-1253h-107zM410 1696q23 72 76 110.5t118 38.5q41 0 75 -14t62 -31l56 -31q29 -14 59 -14q33 0 65.5 22.5t43.5 77.5l86 -51q-23 -72 -76 -110.5t-119 -38.5q-41 0 -74.5 14t-62.5 31l-55 31q-29 14 -60 14 q-33 0 -65.5 -22.5t-42.5 -77.5z" />
<glyph unicode="&#xd2;" horiz-adv-x="1597" d="M90 716.5q0 155.5 53.5 291t148.5 235.5t224 157.5t282.5 57.5t282.5 -57.5t224.5 -157.5t148.5 -235.5t53 -291t-53 -290.5t-147.5 -235.5t-224.5 -158t-283.5 -57.5t-283.5 57.5t-224 158t-147.5 235.5t-53.5 290.5zM201 717q0 -133 43 -249t121.5 -202t188.5 -136 t245 -50t244.5 50t188.5 136t122 202t43 249q0 131 -43 247.5t-122 202.5t-188.5 136.5t-244.5 50.5t-245 -50.5t-188.5 -136.5t-121.5 -202.5t-43 -247.5zM565 1853l80 76l305 -305l-71 -68z" />
<glyph unicode="&#xd3;" horiz-adv-x="1597" d="M90 716.5q0 155.5 53.5 291t148.5 235.5t224 157.5t282.5 57.5t282.5 -57.5t224.5 -157.5t148.5 -235.5t53 -291t-53 -290.5t-147.5 -235.5t-224.5 -158t-283.5 -57.5t-283.5 57.5t-224 158t-147.5 235.5t-53.5 290.5zM201 717q0 -133 43 -249t121.5 -202t188.5 -136 t245 -50t244.5 50t188.5 136t122 202t43 249q0 131 -43 247.5t-122 202.5t-188.5 136.5t-244.5 50.5t-245 -50.5t-188.5 -136.5t-121.5 -202.5t-43 -247.5zM643 1624l305 305l72 -71l-307 -302z" />
<glyph unicode="&#xd4;" horiz-adv-x="1597" d="M90 716.5q0 155.5 53.5 291t148.5 235.5t224 157.5t282.5 57.5t282.5 -57.5t224.5 -157.5t148.5 -235.5t53 -291t-53 -290.5t-147.5 -235.5t-224.5 -158t-283.5 -57.5t-283.5 57.5t-224 158t-147.5 235.5t-53.5 290.5zM201 717q0 -133 43 -249t121.5 -202t188.5 -136 t245 -50t244.5 50t188.5 136t122 202t43 249q0 131 -43 247.5t-122 202.5t-188.5 136.5t-244.5 50.5t-245 -50.5t-188.5 -136.5t-121.5 -202.5t-43 -247.5zM471 1642l328 236l327 -236l-61 -75l-266 196l-267 -196z" />
<glyph unicode="&#xd5;" horiz-adv-x="1597" d="M90 716.5q0 155.5 53.5 291t148.5 235.5t224 157.5t282.5 57.5t282.5 -57.5t224.5 -157.5t148.5 -235.5t53 -291t-53 -290.5t-147.5 -235.5t-224.5 -158t-283.5 -57.5t-283.5 57.5t-224 158t-147.5 235.5t-53.5 290.5zM201 717q0 -133 43 -249t121.5 -202t188.5 -136 t245 -50t244.5 50t188.5 136t122 202t43 249q0 131 -43 247.5t-122 202.5t-188.5 136.5t-244.5 50.5t-245 -50.5t-188.5 -136.5t-121.5 -202.5t-43 -247.5zM483 1655q23 72 76 110.5t119 38.5q41 0 74.5 -14t62.5 -31l55 -30q29 -14 60 -15q33 0 65.5 22.5t42.5 78.5l86 -52 q-23 -72 -76 -110.5t-118 -38.5q-41 0 -75 14t-62 31l-56 31q-29 14 -59 14q-33 0 -65.5 -22.5t-43.5 -77.5z" />
<glyph unicode="&#xd6;" horiz-adv-x="1597" d="M90 716.5q0 155.5 53.5 291t148.5 235.5t224 157.5t282.5 57.5t282.5 -57.5t224.5 -157.5t148.5 -235.5t53 -291t-53 -290.5t-147.5 -235.5t-224.5 -158t-283.5 -57.5t-283.5 57.5t-224 158t-147.5 235.5t-53.5 290.5zM201 717q0 -133 43 -249t121.5 -202t188.5 -136 t245 -50t244.5 50t188.5 136t122 202t43 249q0 131 -43 247.5t-122 202.5t-188.5 136.5t-244.5 50.5t-245 -50.5t-188.5 -136.5t-121.5 -202.5t-43 -247.5zM532 1724.5q0 34.5 24 58t58.5 23.5t58 -23.5t23.5 -58t-23.5 -58.5t-58 -24t-58.5 24t-24 58.5zM903 1724.5 q0 34.5 23.5 58t58.5 23.5t58.5 -23.5t23.5 -58t-23.5 -58.5t-58.5 -24t-58.5 24t-23.5 58.5z" />
<glyph unicode="&#xd7;" horiz-adv-x="1064" d="M100 160l70 -70l362 363l363 -363l70 70l-363 362l363 363l-70 69l-363 -362l-362 362l-70 -69l363 -363z" />
<glyph unicode="&#xd8;" horiz-adv-x="1613" d="M98 715q0 156 53.5 292t148.5 236t224 157.5t283 57.5q129 0 240.5 -41t201.5 -114l150 178l71 -62l-151 -182q92 -100 144.5 -234.5t52.5 -288t-53.5 -288.5t-147.5 -235.5t-225 -158t-285 -57.5q-123 0 -230.5 37t-195.5 105l-139 -166l-72 61l141 168 q-100 102 -155.5 238.5t-55.5 296.5zM209 717q0 -135 44 -252t124 -203l805 961q-74 61 -169 96t-206 35q-135 0 -244.5 -50.5t-188.5 -136.5t-122 -202.5t-43 -247.5zM446 199q72 -57 163.5 -88t197.5 -31q135 0 244.5 50t188.5 136t122 202t43 247q0 129 -41 241.5 t-115 198.5z" />
<glyph unicode="&#xd9;" horiz-adv-x="1380" d="M180 539v895h107v-885q0 -104 22.5 -190.5t71.5 -149t126 -96t183.5 -33.5t183 33.5t126 96t72 148.5t22.5 191v885h106v-895q0 -125 -33.5 -228.5t-98 -178.5t-160 -116t-218.5 -41t-218 41t-159.5 116t-98.5 178.5t-34 228.5zM416 1845l80 76l305 -305l-72 -68z" />
<glyph unicode="&#xda;" horiz-adv-x="1380" d="M180 539v895h107v-885q0 -104 22.5 -190.5t71.5 -149t126 -96t183.5 -33.5t183 33.5t126 96t72 148.5t22.5 191v885h106v-895q0 -125 -33.5 -228.5t-98 -178.5t-160 -116t-218.5 -41t-218 41t-159.5 116t-98.5 178.5t-34 228.5zM582 1616l305 305l71 -72l-307 -301z" />
<glyph unicode="&#xdb;" horiz-adv-x="1380" d="M180 539v895h107v-885q0 -104 22.5 -190.5t71.5 -149t126 -96t183.5 -33.5t183 33.5t126 96t72 148.5t22.5 191v885h106v-895q0 -125 -33.5 -228.5t-98 -178.5t-160 -116t-218.5 -41t-218 41t-159.5 116t-98.5 178.5t-34 228.5zM362 1642l328 236l328 -236l-62 -75 l-266 196l-266 -196z" />
<glyph unicode="&#xdc;" horiz-adv-x="1380" d="M180 539v895h107v-885q0 -104 22.5 -190.5t71.5 -149t126 -96t183.5 -33.5t183 33.5t126 96t72 148.5t22.5 191v885h106v-895q0 -125 -33.5 -228.5t-98 -178.5t-160 -116t-218.5 -41t-218 41t-159.5 116t-98.5 178.5t-34 228.5zM424 1724.5q0 34.5 23.5 58t58.5 23.5 t58.5 -23.5t23.5 -58t-23.5 -58.5t-58.5 -24t-58.5 24t-23.5 58.5zM795 1724.5q0 34.5 23.5 58t58 23.5t58 -23.5t23.5 -58t-23.5 -58.5t-58 -24t-58 24t-23.5 58.5z" />
<glyph unicode="&#xdd;" horiz-adv-x="1163" d="M33 1434h123l428 -762l428 762h118l-495 -871v-563h-107v563zM496 1616l305 305l71 -72l-307 -301z" />
<glyph unicode="&#xde;" horiz-adv-x="1101" d="M180 0v1434h107v-260h272q104 0 190.5 -26t149 -76t96 -127t33.5 -177q0 -102 -33.5 -178t-96 -126t-148.5 -76t-191 -26h-272v-362h-107zM287 461h264q72 0 138.5 14t116.5 50t81 94.5t31 148.5q0 88 -31 147.5t-81 95.5t-116.5 50t-138.5 14h-264v-614z" />
<glyph unicode="&#xdf;" horiz-adv-x="1200" d="M180 0v1139q0 98 30 178t83 136t126 88t159 32q63 0 135.5 -19.5t133 -63.5t100.5 -115.5t40 -176.5q0 -68 -17.5 -119t-45 -90t-64.5 -64.5t-76 -41.5q57 -16 112.5 -49t99.5 -86.5t71 -129t27 -176.5q0 -131 -45 -220t-117 -144t-165 -79t-187 -24h-62v99h51 q123 0 204 31.5t129 84t66.5 117t18.5 131.5q0 78 -22.5 147.5t-70.5 123t-123 84t-179 30.5v95q88 0 144.5 28.5t89 69.5t44 89t11.5 87q0 53 -17.5 103.5t-54.5 88t-91 61t-128 23.5q-80 0 -137.5 -27.5t-94 -74.5t-54 -108.5t-17.5 -131.5v-1126h-107z" />
<glyph unicode="&#xe0;" horiz-adv-x="1034" d="M98 289q0 78 32 137t84 99t119.5 60.5t139.5 20.5t155 -20.5t152 -67.5v70q0 86 -28.5 138t-69.5 81t-90 38t-88 9q-78 0 -158 -23.5t-145 -62.5l-47 92q53 33 145 65.5t207 32.5q96 0 167.5 -27.5t119 -74.5t71 -109.5t23.5 -134.5v-612h-96v162q-66 -90 -159 -138.5 t-190 -48.5q-61 0 -122.5 20.5t-110.5 59.5t-80 97.5t-31 136.5zM209 289q0 -53 22.5 -93t59.5 -66t82 -38t90 -12q53 0 101 16.5t88 43t73 60t55 68.5v158q-53 35 -131 56.5t-153 21.5q-53 0 -104.5 -12.5t-92.5 -39t-65.5 -67.5t-24.5 -96zM328 1382l80 76l305 -305 l-72 -68z" />
<glyph unicode="&#xe1;" horiz-adv-x="1034" d="M98 289q0 78 32 137t84 99t119.5 60.5t139.5 20.5t155 -20.5t152 -67.5v70q0 86 -28.5 138t-69.5 81t-90 38t-88 9q-78 0 -158 -23.5t-145 -62.5l-47 92q53 33 145 65.5t207 32.5q96 0 167.5 -27.5t119 -74.5t71 -109.5t23.5 -134.5v-612h-96v162q-66 -90 -159 -138.5 t-190 -48.5q-61 0 -122.5 20.5t-110.5 59.5t-80 97.5t-31 136.5zM209 289q0 -53 22.5 -93t59.5 -66t82 -38t90 -12q53 0 101 16.5t88 43t73 60t55 68.5v158q-53 35 -131 56.5t-153 21.5q-53 0 -104.5 -12.5t-92.5 -39t-65.5 -67.5t-24.5 -96zM383 1153l305 305l72 -72 l-307 -301z" />
<glyph unicode="&#xe2;" horiz-adv-x="1034" d="M98 289q0 78 32 137t84 99t119.5 60.5t139.5 20.5t155 -20.5t152 -67.5v70q0 86 -28.5 138t-69.5 81t-90 38t-88 9q-78 0 -158 -23.5t-145 -62.5l-47 92q53 33 145 65.5t207 32.5q96 0 167.5 -27.5t119 -74.5t71 -109.5t23.5 -134.5v-612h-96v162q-66 -90 -159 -138.5 t-190 -48.5q-61 0 -122.5 20.5t-110.5 59.5t-80 97.5t-31 136.5zM188 1182l328 235l328 -235l-62 -76l-266 197l-266 -197zM209 289q0 -53 22.5 -93t59.5 -66t82 -38t90 -12q53 0 101 16.5t88 43t73 60t55 68.5v158q-53 35 -131 56.5t-153 21.5q-53 0 -104.5 -12.5 t-92.5 -39t-65.5 -67.5t-24.5 -96z" />
<glyph unicode="&#xe3;" horiz-adv-x="1034" d="M98 289q0 78 32 137t84 99t119.5 60.5t139.5 20.5t155 -20.5t152 -67.5v70q0 86 -28.5 138t-69.5 81t-90 38t-88 9q-78 0 -158 -23.5t-145 -62.5l-47 92q53 33 145 65.5t207 32.5q96 0 167.5 -27.5t119 -74.5t71 -109.5t23.5 -134.5v-612h-96v162q-66 -90 -159 -138.5 t-190 -48.5q-61 0 -122.5 20.5t-110.5 59.5t-80 97.5t-31 136.5zM203 1214q23 72 76 111t118 39q41 0 75 -14.5t63 -30.5l55 -31q29 -14 59 -14q33 0 66 22.5t43 77.5l86 -51q-23 -72 -76 -110.5t-119 -38.5q-41 0 -74.5 14t-62.5 31l-57 30q-27 14 -58 15 q-33 0 -65.5 -22.5t-42.5 -78.5zM209 289q0 -53 22.5 -93t59.5 -66t82 -38t90 -12q53 0 101 16.5t88 43t73 60t55 68.5v158q-53 35 -131 56.5t-153 21.5q-53 0 -104.5 -12.5t-92.5 -39t-65.5 -67.5t-24.5 -96z" />
<glyph unicode="&#xe4;" horiz-adv-x="1034" d="M98 289q0 78 32 137t84 99t119.5 60.5t139.5 20.5t155 -20.5t152 -67.5v70q0 86 -28.5 138t-69.5 81t-90 38t-88 9q-78 0 -158 -23.5t-145 -62.5l-47 92q53 33 145 65.5t207 32.5q96 0 167.5 -27.5t119 -74.5t71 -109.5t23.5 -134.5v-612h-96v162q-66 -90 -159 -138.5 t-190 -48.5q-61 0 -122.5 20.5t-110.5 59.5t-80 97.5t-31 136.5zM209 289q0 -53 22.5 -93t59.5 -66t82 -38t90 -12q53 0 101 16.5t88 43t73 60t55 68.5v158q-53 35 -131 56.5t-153 21.5q-53 0 -104.5 -12.5t-92.5 -39t-65.5 -67.5t-24.5 -96zM266 1237q0 35 23.5 58.5 t58.5 23.5t58.5 -23.5t23.5 -58.5t-23.5 -58.5t-58.5 -23.5t-58.5 23.5t-23.5 58.5zM637 1237q0 35 23.5 58.5t58.5 23.5t58.5 -23.5t23.5 -58.5t-23.5 -58.5t-58.5 -23.5t-58.5 23.5t-23.5 58.5z" />
<glyph unicode="&#xe5;" horiz-adv-x="1034" d="M98 289q0 78 32 137t84 99t119.5 60.5t139.5 20.5t155 -20.5t152 -67.5v70q0 86 -28.5 138t-69.5 81t-90 38t-88 9q-78 0 -158 -23.5t-145 -62.5l-47 92q53 33 145 65.5t207 32.5q96 0 167.5 -27.5t119 -74.5t71 -109.5t23.5 -134.5v-612h-96v162q-66 -90 -159 -138.5 t-190 -48.5q-61 0 -122.5 20.5t-110.5 59.5t-80 97.5t-31 136.5zM209 289q0 -53 22.5 -93t59.5 -66t82 -38t90 -12q53 0 101 16.5t88 43t73 60t55 68.5v158q-53 35 -131 56.5t-153 21.5q-53 0 -104.5 -12.5t-92.5 -39t-65.5 -67.5t-24.5 -96zM340 1313q0 86 58.5 144.5 t144.5 58.5t144 -58.5t58 -144.5t-58 -144.5t-144 -58.5t-144.5 58.5t-58.5 144.5zM424 1313q0 -51 34 -85t85 -34t86 34t35 85t-35 86t-86 35t-85 -35t-34 -86z" />
<glyph unicode="&#xe6;" horiz-adv-x="1746" d="M98 262q0 123 93.5 194.5t279.5 71.5h295v43q0 133 -80 208t-211 75q-68 0 -142.5 -20.5t-137.5 -59.5l-50 92q63 39 151.5 65.5t180.5 26.5q141 0 232.5 -62t126.5 -151v-10q59 100 158.5 161.5t228.5 61.5q94 0 177 -35.5t143.5 -99t95 -153.5t34.5 -197v-20 q0 -6 -2 -23h-799q2 -53 27 -114.5t71 -113.5t113.5 -87t157.5 -35q55 0 104.5 13t90.5 36t72.5 51.5t56.5 59.5l71 -74q-68 -82 -171 -136.5t-226 -54.5q-135 0 -244.5 67t-169.5 177q-25 -47 -62.5 -91t-86.5 -78t-110.5 -54.5t-133.5 -20.5q-70 0 -131 20.5t-106 57.5 t-71 90.5t-26 118.5zM209 266q0 -53 20.5 -89t52 -57.5t72.5 -30.5t84 -9q86 0 147.5 29.5t101.5 72.5t59.5 90t19.5 80v78q-25 0 -60.5 1t-68.5 1h-59h-27q-180 0 -261 -33.5t-81 -132.5zM877 528h686q-2 39 -19.5 95.5t-57.5 107.5t-104.5 87t-158.5 36q-96 0 -161 -37 t-106 -88t-59 -106.5t-20 -94.5z" />
<glyph unicode="&#xe7;" horiz-adv-x="983" d="M74 467q0 100 35.5 190.5t100 157t152 105t191.5 38.5q68 0 125 -16t105 -40.5t84 -56.5t61 -63l-76 -67q-39 49 -114.5 94t-182.5 45q-84 0 -152.5 -31.5t-116.5 -85t-75 -123t-27 -147.5t27 -147.5t75 -123t116.5 -85t152.5 -31.5q113 0 190.5 50t118.5 106l74 -70 q-55 -74 -152.5 -132.5t-232.5 -58.5q-104 0 -191.5 39t-152 105.5t-100 156t-35.5 191.5zM336 -479l121 379l104 -13l-119 -397z" />
<glyph unicode="&#xe8;" d="M74 471q0 98 33.5 186t93 155t143.5 106.5t184 39.5q96 0 180.5 -36.5t145.5 -101t97 -156t36 -197.5v-21q0 -6 -2 -22h-805q2 -55 26.5 -115.5t71 -111t114 -84t157.5 -33.5q55 0 104 13t90 36t73 51.5t56 59.5l72 -74q-72 -86 -175 -138.5t-222 -52.5q-102 0 -188.5 39 t-150 106.5t-99 158t-35.5 192.5zM184 522h693q-2 39 -20.5 96.5t-59.5 109.5t-106.5 89t-160.5 37q-96 0 -160.5 -38t-105.5 -90t-59.5 -108.5t-20.5 -95.5zM326 1382l80 76l305 -305l-72 -68z" />
<glyph unicode="&#xe9;" d="M74 471q0 98 33.5 186t93 155t143.5 106.5t184 39.5q96 0 180.5 -36.5t145.5 -101t97 -156t36 -197.5v-21q0 -6 -2 -22h-805q2 -55 26.5 -115.5t71 -111t114 -84t157.5 -33.5q55 0 104 13t90 36t73 51.5t56 59.5l72 -74q-72 -86 -175 -138.5t-222 -52.5q-102 0 -188.5 39 t-150 106.5t-99 158t-35.5 192.5zM184 522h693q-2 39 -20.5 96.5t-59.5 109.5t-106.5 89t-160.5 37q-96 0 -160.5 -38t-105.5 -90t-59.5 -108.5t-20.5 -95.5zM377 1153l305 305l72 -72l-308 -301z" />
<glyph unicode="&#xea;" d="M74 471q0 98 33.5 186t93 155t143.5 106.5t184 39.5q96 0 180.5 -36.5t145.5 -101t97 -156t36 -197.5v-21q0 -6 -2 -22h-805q2 -55 26.5 -115.5t71 -111t114 -84t157.5 -33.5q55 0 104 13t90 36t73 51.5t56 59.5l72 -74q-72 -86 -175 -138.5t-222 -52.5q-102 0 -188.5 39 t-150 106.5t-99 158t-35.5 192.5zM184 522h693q-2 39 -20.5 96.5t-59.5 109.5t-106.5 89t-160.5 37q-96 0 -160.5 -38t-105.5 -90t-59.5 -108.5t-20.5 -95.5zM225 1161l328 236l328 -236l-62 -76l-266 197l-266 -197z" />
<glyph unicode="&#xeb;" d="M74 471q0 98 33.5 186t93 155t143.5 106.5t184 39.5q96 0 180.5 -36.5t145.5 -101t97 -156t36 -197.5v-21q0 -6 -2 -22h-805q2 -55 26.5 -115.5t71 -111t114 -84t157.5 -33.5q55 0 104 13t90 36t73 51.5t56 59.5l72 -74q-72 -86 -175 -138.5t-222 -52.5q-102 0 -188.5 39 t-150 106.5t-99 158t-35.5 192.5zM184 522h693q-2 39 -20.5 96.5t-59.5 109.5t-106.5 89t-160.5 37q-96 0 -160.5 -38t-105.5 -90t-59.5 -108.5t-20.5 -95.5zM274 1237q0 35 24 58.5t58.5 23.5t58 -23.5t23.5 -58.5t-23.5 -58.5t-58 -23.5t-58.5 23.5t-24 58.5zM645 1237 q0 35 23.5 58.5t58.5 23.5t58.5 -23.5t23.5 -58.5t-23.5 -58.5t-58.5 -23.5t-58.5 23.5t-23.5 58.5z" />
<glyph unicode="&#xec;" horiz-adv-x="458" d="M2 1382l80 76l305 -305l-72 -68zM176 0v934h107v-934h-107z" />
<glyph unicode="&#xed;" horiz-adv-x="458" d="M76 1153l305 305l72 -72l-308 -301zM174 0v934h107v-934h-107z" />
<glyph unicode="&#xee;" horiz-adv-x="524" d="M-63 1161l327 236l328 -236l-62 -76l-266 197l-266 -197zM209 0v934h106v-934h-106z" />
<glyph unicode="&#xef;" horiz-adv-x="501" d="M-14 1237q0 35 23.5 58.5t58 23.5t58.5 -23.5t24 -58.5t-24 -58.5t-58.5 -23.5t-58 23.5t-23.5 58.5zM197 0v934h106v-934h-106zM356 1237q0 35 23.5 58.5t58.5 23.5t58.5 -23.5t23.5 -58.5t-23.5 -58.5t-58.5 -23.5t-58.5 23.5t-23.5 58.5z" />
<glyph unicode="&#xf0;" horiz-adv-x="1114" d="M74 467q0 100 34.5 190.5t98 157t151.5 105t197 38.5q96 0 174 -31.5t133 -95.5q-47 127 -133 236t-178 182l-279 -129l-39 82l236 109q-35 27 -74 52.5t-76 47.5l-69 39q-33 18 -57 29l45 88q61 -27 153 -81t184 -124l259 119l38 -84l-217 -101q70 -61 136.5 -141 t119 -175t83 -206.5t30.5 -236.5v-29q0 -123 -36 -221.5t-98.5 -167t-149.5 -106.5t-189 -38q-106 0 -194.5 39t-151 105.5t-97 156t-34.5 191.5zM184 467q0 -80 24.5 -149.5t71 -123t113 -84t152.5 -30.5q88 0 157.5 32.5t115.5 88t70.5 126t24.5 146.5t-24.5 145.5 t-70.5 122t-113.5 83t-155.5 30.5t-155.5 -30.5t-114 -84t-71 -123t-24.5 -149.5z" />
<glyph unicode="&#xf1;" horiz-adv-x="1069" d="M147 0v934h97v-170q18 33 45.5 67.5t67.5 63.5t92.5 46t116 17t126 -20t111.5 -65.5t79.5 -114t30.5 -162.5v-596h-106v580q0 72 -20.5 124t-55.5 85.5t-82 49t-98 15.5q-61 0 -109.5 -18.5t-84 -49t-61.5 -67.5t-42 -74v-645h-107zM215 1190q23 72 76 110.5t119 38.5 q41 0 74.5 -14t62.5 -31l55 -30q29 -14 60 -15q33 0 65.5 22.5t42.5 78.5l86 -52q-23 -72 -76 -110.5t-118 -38.5q-41 0 -75 14.5t-63 30.5l-57 31q-27 14 -57 14q-33 0 -66 -22.5t-43 -77.5z" />
<glyph unicode="&#xf2;" horiz-adv-x="1097" d="M74 467q0 100 34.5 190.5t98 157t150.5 105t191.5 38.5t191.5 -38.5t150.5 -105t98.5 -157t35 -190.5q0 -102 -35 -191.5t-98.5 -156t-150.5 -105.5t-191.5 -39t-191.5 39t-150.5 105.5t-98 156t-34.5 191.5zM184 467q0 -80 24.5 -149.5t71 -123t114 -84t155.5 -30.5 t155.5 30.5t113.5 84t70.5 123t24.5 149.5t-24.5 149.5t-70.5 123t-113.5 84t-155.5 30.5t-155.5 -30.5t-114 -84t-71 -123t-24.5 -149.5zM334 1382l80 76l305 -305l-72 -68z" />
<glyph unicode="&#xf3;" horiz-adv-x="1097" d="M74 467q0 100 34.5 190.5t98 157t150.5 105t191.5 38.5t191.5 -38.5t150.5 -105t98.5 -157t35 -190.5q0 -102 -35 -191.5t-98.5 -156t-150.5 -105.5t-191.5 -39t-191.5 39t-150.5 105.5t-98 156t-34.5 191.5zM184 467q0 -80 24.5 -149.5t71 -123t114 -84t155.5 -30.5 t155.5 30.5t113.5 84t70.5 123t24.5 149.5t-24.5 149.5t-70.5 123t-113.5 84t-155.5 30.5t-155.5 -30.5t-114 -84t-71 -123t-24.5 -149.5zM379 1153l305 305l72 -72l-307 -301z" />
<glyph unicode="&#xf4;" horiz-adv-x="1097" d="M74 467q0 100 34.5 190.5t98 157t150.5 105t191.5 38.5t191.5 -38.5t150.5 -105t98.5 -157t35 -190.5q0 -102 -35 -191.5t-98.5 -156t-150.5 -105.5t-191.5 -39t-191.5 39t-150.5 105.5t-98 156t-34.5 191.5zM184 467q0 -80 24.5 -149.5t71 -123t114 -84t155.5 -30.5 t155.5 30.5t113.5 84t70.5 123t24.5 149.5t-24.5 149.5t-70.5 123t-113.5 84t-155.5 30.5t-155.5 -30.5t-114 -84t-71 -123t-24.5 -149.5zM221 1161l328 236l328 -236l-62 -76l-266 197l-266 -197z" />
<glyph unicode="&#xf5;" horiz-adv-x="1097" d="M74 467q0 100 34.5 190.5t98 157t150.5 105t191.5 38.5t191.5 -38.5t150.5 -105t98.5 -157t35 -190.5q0 -102 -35 -191.5t-98.5 -156t-150.5 -105.5t-191.5 -39t-191.5 39t-150.5 105.5t-98 156t-34.5 191.5zM184 467q0 -80 24.5 -149.5t71 -123t114 -84t155.5 -30.5 t155.5 30.5t113.5 84t70.5 123t24.5 149.5t-24.5 149.5t-70.5 123t-113.5 84t-155.5 30.5t-155.5 -30.5t-114 -84t-71 -123t-24.5 -149.5zM236 1214q23 72 76 111t118 39q41 0 75 -14.5t62 -30.5l56 -31q29 -14 59 -14q33 0 65.5 22.5t43.5 77.5l86 -51q-23 -72 -76 -110.5 t-119 -38.5q-41 0 -75 14t-62 31l-56 30q-29 14 -59 15q-33 0 -65.5 -22.5t-42.5 -78.5z" />
<glyph unicode="&#xf6;" horiz-adv-x="1097" d="M74 467q0 100 34.5 190.5t98 157t150.5 105t191.5 38.5t191.5 -38.5t150.5 -105t98.5 -157t35 -190.5q0 -102 -35 -191.5t-98.5 -156t-150.5 -105.5t-191.5 -39t-191.5 39t-150.5 105.5t-98 156t-34.5 191.5zM184 467q0 -80 24.5 -149.5t71 -123t114 -84t155.5 -30.5 t155.5 30.5t113.5 84t70.5 123t24.5 149.5t-24.5 149.5t-70.5 123t-113.5 84t-155.5 30.5t-155.5 -30.5t-114 -84t-71 -123t-24.5 -149.5zM283 1237q0 35 23.5 58.5t58 23.5t58 -23.5t23.5 -58.5t-23.5 -58.5t-58 -23.5t-58 23.5t-23.5 58.5zM653 1237q0 35 23.5 58.5 t58.5 23.5t58.5 -23.5t23.5 -58.5t-23.5 -58.5t-58.5 -23.5t-58.5 23.5t-23.5 58.5z" />
<glyph unicode="&#xf7;" horiz-adv-x="1064" d="M92 465v98h881v-98h-881zM451 160q0 35 23.5 58.5t58 23.5t58 -23.5t23.5 -58.5t-23.5 -58.5t-58 -23.5t-58 23.5t-23.5 58.5zM451 876.5q0 34.5 23.5 58t58 23.5t58 -23.5t23.5 -58t-23.5 -58t-58 -23.5t-58 23.5t-23.5 58z" />
<glyph unicode="&#xf8;" horiz-adv-x="1114" d="M82 467q0 100 35 190.5t98.5 157t150.5 105t191 38.5q78 0 147.5 -22.5t126.5 -63.5l91 109l71 -61l-92 -109q61 -68 96 -156t35 -188q0 -102 -34.5 -191.5t-98 -156t-150.5 -105.5t-192 -39q-82 0 -152.5 24t-128.5 67l-79 -97l-72 62l82 98q-59 66 -92 153t-33 185z M193 467q0 -152 81 -258l490 586q-41 29 -93.5 44t-113.5 15q-88 0 -155.5 -30.5t-113.5 -84t-70.5 -123t-24.5 -149.5zM342 143q86 -63 213 -63q88 0 156.5 30.5t114.5 84t71 123t25 149.5q0 156 -88 262z" />
<glyph unicode="&#xf9;" d="M147 338v596h107v-580q0 -72 19.5 -124t54 -85.5t82 -49t100.5 -15.5q61 0 108.5 17.5t83 47t61 66.5t44.5 74v649h106v-934h-96v166q-41 -74 -119.5 -132.5t-201.5 -58.5q-66 0 -128.5 20.5t-111.5 65.5t-79 113t-30 164zM260 1382l80 76l305 -305l-72 -68z" />
<glyph unicode="&#xfa;" d="M147 338v596h107v-580q0 -72 19.5 -124t54 -85.5t82 -49t100.5 -15.5q61 0 108.5 17.5t83 47t61 66.5t44.5 74v649h106v-934h-96v166q-41 -74 -119.5 -132.5t-201.5 -58.5q-66 0 -128.5 20.5t-111.5 65.5t-79 113t-30 164zM418 1153l305 305l72 -72l-308 -301z" />
<glyph unicode="&#xfb;" d="M147 338v596h107v-580q0 -72 19.5 -124t54 -85.5t82 -49t100.5 -15.5q61 0 108.5 17.5t83 47t61 66.5t44.5 74v649h106v-934h-96v166q-41 -74 -119.5 -132.5t-201.5 -58.5q-66 0 -128.5 20.5t-111.5 65.5t-79 113t-30 164zM209 1161l328 236l327 -236l-61 -76l-266 197 l-267 -197z" />
<glyph unicode="&#xfc;" d="M147 338v596h107v-580q0 -72 19.5 -124t54 -85.5t82 -49t100.5 -15.5q61 0 108.5 17.5t83 47t61 66.5t44.5 74v649h106v-934h-96v166q-41 -74 -119.5 -132.5t-201.5 -58.5q-66 0 -128.5 20.5t-111.5 65.5t-79 113t-30 164zM266 1237q0 35 23.5 58.5t58.5 23.5t58.5 -23.5 t23.5 -58.5t-23.5 -58.5t-58.5 -23.5t-58.5 23.5t-23.5 58.5zM637 1237q0 35 23.5 58.5t58.5 23.5t58.5 -23.5t23.5 -58.5t-23.5 -58.5t-58.5 -23.5t-58.5 23.5t-23.5 58.5z" />
<glyph unicode="&#xfd;" horiz-adv-x="1001" d="M29 934h114l406 -838l325 838h111l-237 -598l-89 -225l-79 -201l-60 -148l-28 -67q-41 -104 -99.5 -147.5t-136.5 -43.5q-51 0 -96 18.5t-97 63.5l64 86q23 -23 55.5 -43t75.5 -20q47 0 79 30.5t60 100.5l97 244zM408 1153l305 305l71 -72l-307 -301z" />
<glyph unicode="&#xfe;" horiz-adv-x="1161" d="M180 -471h107v621q10 -16 34.5 -45t66.5 -58t101.5 -50.5t137.5 -21.5q96 0 180 36t146.5 100.5t98 155.5t35.5 199.5t-35.5 200t-98 156t-146.5 100t-178 35.5q-78 0 -136.5 -21.5t-100.5 -50t-67.5 -58t-37.5 -46.5v654h-107v-1907zM287 283v368q20 37 52 74t74 65.5 t95 46t115 17.5q80 0 145.5 -29.5t111.5 -82t71.5 -123t25.5 -152.5t-25.5 -152.5t-71.5 -123t-112 -82t-145 -29.5q-61 0 -114.5 17.5t-95.5 46t-74 65.5t-52 74z" />
<glyph unicode="&#xff;" horiz-adv-x="1001" d="M29 934h114l406 -838l325 838h111l-237 -598l-89 -225l-79 -201l-60 -148l-28 -67q-41 -104 -99.5 -147.5t-136.5 -43.5q-51 0 -96 18.5t-97 63.5l64 86q23 -23 55.5 -43t75.5 -20q47 0 79 30.5t60 100.5l97 244zM242 1237q0 35 23.5 58.5t58 23.5t58.5 -23.5t24 -58.5 t-24 -58.5t-58.5 -23.5t-58 23.5t-23.5 58.5zM612 1237q0 35 23.5 58.5t58.5 23.5t58.5 -23.5t23.5 -58.5t-23.5 -58.5t-58.5 -23.5t-58.5 23.5t-23.5 58.5z" />
<glyph unicode="&#x152;" horiz-adv-x="1732" d="M90 717q0 162 52.5 295t146.5 226t224 144.5t286 51.5h807v-107h-631v-536h581v-107h-581v-578h643v-106h-819q-156 0 -286 51t-224 144.5t-146.5 225.5t-52.5 296zM207 717q0 -129 43 -240.5t122 -193.5t187.5 -129.5t239.5 -47.5h61v1221h-61q-131 0 -239.5 -47 t-187.5 -129t-122 -193.5t-43 -240.5z" />
<glyph unicode="&#x153;" horiz-adv-x="1902" d="M74 467q0 100 34.5 190.5t98 157t150.5 105t192 38.5q143 0 251.5 -70.5t168.5 -185.5v-18q53 121 160.5 197.5t250.5 76.5q94 0 178 -36.5t145.5 -101t97.5 -156t36 -197.5v-21q0 -6 -2 -22h-805q2 -55 26.5 -115.5t71 -111t114 -84t157.5 -33.5q55 0 104 13t90 36 t73 51.5t56 59.5l72 -74q-68 -82 -171 -136.5t-226 -54.5q-72 0 -135.5 20.5t-119 56.5t-98.5 86t-71 110v-8q-57 -117 -167 -191t-257 -74q-104 0 -191.5 39t-151 105.5t-98 156t-34.5 191.5zM184 467q0 -80 24.5 -149.5t71 -123t114 -84t155.5 -30.5t155.5 30.5t113.5 84 t70.5 123t24.5 149.5t-24.5 149.5t-70.5 123t-113.5 84t-155.5 30.5t-155.5 -30.5t-114 -84t-71 -123t-24.5 -149.5zM1034 522h692q-2 39 -20 96.5t-59 109.5t-106.5 89t-160.5 37q-96 0 -160.5 -38t-105.5 -90t-59.5 -108.5t-20.5 -95.5z" />
<glyph unicode="&#x178;" horiz-adv-x="1163" d="M33 1434h123l428 -762l428 762h118l-495 -871v-563h-107v563zM317 1724.5q0 34.5 24 58t58.5 23.5t58 -23.5t23.5 -58t-23.5 -58.5t-58 -24t-58.5 24t-24 58.5zM688 1724.5q0 34.5 23.5 58t58.5 23.5t58.5 -23.5t23.5 -58t-23.5 -58.5t-58.5 -24t-58.5 24t-23.5 58.5z " />
<glyph unicode="&#x2c6;" horiz-adv-x="856" d="M100 1135l328 235l328 -235l-62 -76l-266 196l-266 -196z" />
<glyph unicode="&#x2dc;" horiz-adv-x="798" d="M84 1208q23 72 76 111t119 39q41 0 74.5 -14.5t62.5 -30.5l55 -31q29 -14 59 -14q33 0 66 22.5t43 77.5l86 -51q-23 -72 -76 -111t-119 -39q-41 0 -74.5 14.5t-62.5 30.5l-55 31q-29 14 -59 14q-33 0 -66 -22.5t-43 -77.5z" />
<glyph unicode="&#x2000;" horiz-adv-x="964" />
<glyph unicode="&#x2001;" horiz-adv-x="1929" />
<glyph unicode="&#x2002;" horiz-adv-x="964" />
<glyph unicode="&#x2003;" horiz-adv-x="1929" />
<glyph unicode="&#x2004;" horiz-adv-x="643" />
<glyph unicode="&#x2005;" horiz-adv-x="482" />
<glyph unicode="&#x2006;" horiz-adv-x="321" />
<glyph unicode="&#x2007;" horiz-adv-x="321" />
<glyph unicode="&#x2008;" horiz-adv-x="241" />
<glyph unicode="&#x2009;" horiz-adv-x="385" />
<glyph unicode="&#x200a;" horiz-adv-x="107" />
<glyph unicode="&#x2010;" horiz-adv-x="681" d="M68 436v99h546v-99h-546z" />
<glyph unicode="&#x2011;" horiz-adv-x="681" d="M68 436v99h546v-99h-546z" />
<glyph unicode="&#x2012;" horiz-adv-x="681" d="M68 436v99h546v-99h-546z" />
<glyph unicode="&#x2013;" horiz-adv-x="1024" d="M0 451v98h1024v-98h-1024z" />
<glyph unicode="&#x2014;" horiz-adv-x="2048" d="M0 451v98h2048v-98h-2048z" />
<glyph unicode="&#x2018;" horiz-adv-x="307" d="M102 946v488h103v-488h-103z" />
<glyph unicode="&#x2019;" horiz-adv-x="307" d="M102 946v488h103v-488h-103z" />
<glyph unicode="&#x201c;" horiz-adv-x="684" d="M164 946v488h102v-488h-102zM418 946v488h102v-488h-102z" />
<glyph unicode="&#x201d;" horiz-adv-x="684" d="M164 946v488h102v-488h-102zM418 946v488h102v-488h-102z" />
<glyph unicode="&#x201e;" horiz-adv-x="684" d="M164 201h102v-488h-102v488zM418 201h102v-488h-102v488z" />
<glyph unicode="&#x2022;" horiz-adv-x="831" d="M236 717q0 76 52 128t128 52t128 -52t52 -128t-52 -128t-128 -52t-128 52t-52 128z" />
<glyph unicode="&#x2026;" horiz-adv-x="2048" d="M266 57.5q0 34.5 23.5 58t58.5 23.5t58.5 -23.5t23.5 -58t-23.5 -58.5t-58.5 -24t-58.5 24t-23.5 58.5zM942 57.5q0 34.5 23.5 58t58.5 23.5t58.5 -23.5t23.5 -58t-23.5 -58.5t-58.5 -24t-58.5 24t-23.5 58.5zM1618 57.5q0 34.5 23.5 58t58.5 23.5t58.5 -23.5t23.5 -58 t-23.5 -58.5t-58.5 -24t-58.5 24t-23.5 58.5z" />
<glyph unicode="&#x202f;" horiz-adv-x="385" />
<glyph unicode="&#x2039;" horiz-adv-x="610" d="M45 502l352 459l82 -64l-305 -395l305 -396l-82 -63z" />
<glyph unicode="&#x203a;" horiz-adv-x="610" d="M131 106l305 396l-305 395l82 64l352 -459l-352 -459z" />
<glyph unicode="&#x205f;" horiz-adv-x="482" />
<glyph unicode="&#x20ac;" horiz-adv-x="1187" d="M68 553v96h155q-2 16 -2 35v33v33q0 18 2 34h-155v97h165q23 125 77.5 230.5t138 182t194.5 120.5t246 44q82 0 145.5 -13t100.5 -28l-35 -96q-45 16 -101.5 24.5t-105.5 8.5q-104 0 -194.5 -35t-161 -97.5t-119.5 -149.5t-70 -191h547v-97h-561q-2 -16 -2 -34v-33v-35 q0 -16 2 -33h561v-96h-547q23 -109 72 -196t119.5 -148.5t159.5 -95t192 -33.5q53 0 110.5 9t102.5 28l33 -97q-41 -16 -105.5 -30.5t-146.5 -14.5q-135 0 -245 43t-192.5 120t-137 183.5t-77.5 231.5h-165z" />
<glyph unicode="&#x2122;" horiz-adv-x="1546" d="M33 1356v78h526v-78h-223v-680h-84v680h-219zM713 676v758h88l268 -424l268 424h88v-758h-84v614l-272 -428l-272 428v-614h-84z" />
<glyph unicode="&#x25fc;" horiz-adv-x="931" d="M0 0v932h932v-932h-932z" />
</font>
</defs>
</svg>
