<?xml version="1.0" standalone="no"?>
<!DOCTYPE svg PUBLIC "-//W3C//DTD SVG 1.1//EN" "http://www.w3.org/Graphics/SVG/1.1/DTD/svg11.dtd" >
<svg xmlns="http://www.w3.org/2000/svg" xmlns:xlink="http://www.w3.org/1999/xlink" version="1.1">
<metadata></metadata>
<defs>
<font id="uni_neueheavy_italic" horiz-adv-x="1290" >
<font-face units-per-em="2048" ascent="1536" descent="-512" />
<missing-glyph horiz-adv-x="407" />
<glyph horiz-adv-x="0" />
<glyph horiz-adv-x="682" />
<glyph unicode=" "  horiz-adv-x="407" />
<glyph unicode="&#x09;" horiz-adv-x="407" />
<glyph unicode="&#xa0;" horiz-adv-x="407" />
<glyph unicode="!" horiz-adv-x="548" d="M29 176q14 72 65.5 116t124.5 44q84 0 128.5 -58t27.5 -145q-12 -70 -64.5 -115t-126.5 -45q-82 0 -126 58.5t-29 144.5zM131 487l84 596l61 349q6 32 39 32h232q17 0 25.5 -11t5.5 -28l-60 -348l-125 -596q-6 -30 -39 -30h-190q-18 0 -27 9.5t-6 26.5z" />
<glyph unicode="&#x22;" horiz-adv-x="796" d="M166 924l100 510q6 30 39 30h195q19 0 26.5 -11t1.5 -28l-139 -512q-8 -28 -41 -28h-151q-40 0 -31 39zM510 924l100 510q6 30 39 30h195q19 0 26.5 -11t1.5 -28l-139 -512q-6 -28 -39 -28h-153q-37 0 -31 39z" />
<glyph unicode="#" horiz-adv-x="1544" d="M35 410l53 159q9 31 41 31h248l90 260h-238q-19 0 -26.5 11t-1.5 28l53 162q10 29 41 29h248l125 346q9 28 41 28h186q20 0 27.5 -10.5t1.5 -28.5l-119 -335h246l123 346q9 28 40 28h189q19 0 27 -11t2 -28l-119 -335h235q20 0 28.5 -11t2.5 -28l-53 -162 q-10 -29 -41 -29h-248l-92 -260h235q20 0 28.5 -11t2.5 -30l-53 -160q-8 -28 -41 -28h-248l-121 -342q-10 -29 -41 -29h-188q-19 0 -27 11t-2 28l119 332h-248l-121 -342q-10 -29 -41 -29h-188q-19 0 -27 11t-2 28l119 332h-238q-20 0 -27 10.5t-1 28.5zM637 600h248l90 260 h-246z" />
<glyph unicode="$" horiz-adv-x="1202" d="M16 223l148 174q20 25 49 6q167 -135 344 -135q96 0 164.5 38.5t79.5 111.5q6 37 -8.5 65.5t-51.5 50.5t-77.5 37t-106.5 33q-69 20 -128.5 48t-114.5 71t-90.5 96t-50.5 126t-1 157q31 179 155.5 272.5t311.5 112.5l27 145q6 33 39 33h178q17 0 25 -10.5t5 -28.5 l-24 -147q181 -29 328 -144q28 -18 4 -49l-160 -182q-19 -22 -49 -4q-149 100 -312 100q-190 0 -211 -129q-6 -35 7.5 -62.5t48 -48t70.5 -34.5t94 -31q36 -11 64.5 -21t69 -27t69.5 -34t66 -42t58.5 -52t47.5 -63.5t32 -76.5t13 -91t-9 -107q-20 -101 -68 -176.5 t-117 -120.5t-144.5 -70t-165.5 -34l-27 -160q-7 -33 -39 -33h-178q-17 0 -26 10.5t-7 28.5l29 162q-197 38 -359 184q-26 23 -2 51z" />
<glyph unicode="%" horiz-adv-x="1662" d="M137 983l37 201q27 144 119 218.5t225 74.5q122 0 193 -86.5t47 -212.5l-37 -201q-27 -147 -115.5 -221t-224.5 -74q-125 0 -196.5 85.5t-47.5 215.5zM185.5 12q-5.5 12 7.5 31l1095 1387q17 20 43 20h182q22 0 28 -12t-7 -31l-1096 -1387q-17 -20 -43 -20h-182 q-22 0 -27.5 12zM346 971q-8 -47 10.5 -69.5t53.5 -22.5q37 0 63 25t35 73l41 211q9 44 -9 68t-53 24q-36 0 -64.5 -26t-37.5 -72zM975 287l37 200q26 142 117.5 216.5t224.5 74.5q123 0 193.5 -85.5t47.5 -211.5l-36 -200q-27 -147 -115.5 -221t-224.5 -74 q-124 0 -195.5 86t-48.5 215zM1184 274q-9 -45 9.5 -68.5t53.5 -23.5q36 0 64 26.5t37 72.5l38 211q9 43 -8.5 67.5t-52.5 24.5q-37 0 -65 -26.5t-37 -72.5z" />
<glyph unicode="&#x26;" horiz-adv-x="1224" d="M37 408q42 241 332 419q-94 172 -66 316q28 155 145.5 251.5t286.5 96.5q102 0 177.5 -51.5t108 -136t17.5 -181.5q-39 -220 -311 -389q61 -103 104 -186q25 34 103 145q17 30 47 13l152 -82q30 -17 14 -48q-83 -137 -180 -260q29 -53 84.5 -149t70.5 -123 q12 -19 5.5 -31t-27.5 -12h-248q-27 0 -43 25q-7 16 -43 84q-165 -129 -360 -129q-80 0 -153.5 31t-127.5 85t-79 136t-9 176zM324 406q-12 -67 26 -110.5t111 -43.5q92 0 182 80q-57 102 -145 264q-78 -49 -121 -93t-53 -97zM567 1128q-15 -68 37 -167q77 42 121 80.5 t51 84.5q6 55 -16 89t-68 34q-51 0 -84 -32.5t-41 -88.5z" />
<glyph unicode="'" horiz-adv-x="452" d="M166 924l100 510q6 30 39 30h193q40 0 30 -39l-139 -512q-6 -28 -39 -28h-153q-40 0 -31 39z" />
<glyph unicode="(" horiz-adv-x="626" d="M113 764q80 461 409 911q15 21 43 21h211q22 0 28 -12t-7 -31q-339 -465 -418 -922q-41 -227 -18 -471t108 -457q13 -41 -29 -41h-202q-32 0 -41 29q-169 486 -84 973z" />
<glyph unicode=")" horiz-adv-x="626" d="M-109.5 -224q-5.5 12 7.5 31q337 463 417 922q41 227 18 471t-108 457q-13 41 29 41h203q32 0 41 -29q169 -486 84 -973q-80 -459 -410 -911q-15 -21 -43 -21h-211q-22 0 -27.5 12z" />
<glyph unicode="*" horiz-adv-x="921" d="M162 1110l82 168q6 14 18.5 19t26.5 -1l168 -57l37 193q6 32 36 32h181q17 0 25 -10.5t5 -28.5l-32 -184l182 55q36 13 43 -26l24 -168q5 -30 -26 -43l-193 -62l84 -147q19 -28 -12 -49l-156 -109q-30 -20 -47 13l-84 174l-141 -181q-23 -27 -49 -4l-133 105 q-28 22 -4 49l137 160l-152 55q-34 14 -20 47z" />
<glyph unicode="+" d="M178 588l37 203q3 30 37 30h307l59 336q7 33 37 33h207q39 0 33 -39l-59 -330h297q38 0 32 -39l-37 -200q-2 -15 -11.5 -24t-24.5 -9h-304l-59 -336q-7 -33 -37 -33h-207q-18 0 -26.5 10.5t-5.5 28.5l59 330h-301q-18 0 -27 10.5t-6 28.5z" />
<glyph unicode="," horiz-adv-x="497" d="M-123 -246l209 516q14 27 41 27h215q21 0 28.5 -11t-1.5 -30l-248 -516q-12 -27 -41 -27h-174q-42 0 -29 41z" />
<glyph unicode="-" horiz-adv-x="790" d="M106 512l37 209q7 33 37 33h500q17 0 25.5 -11t5.5 -28l-37 -211q-6 -31 -37 -31h-500q-17 0 -25.5 11t-5.5 28z" />
<glyph unicode="." horiz-adv-x="501" d="M12 184q14 72 66 116t127 44q85 0 130 -58t30 -147q-12 -71 -64.5 -115t-130.5 -44q-83 0 -128 58.5t-30 145.5z" />
<glyph unicode="/" horiz-adv-x="960" d="M-33 12q-7 12 4 31l795 1397q12 24 41 24h227q21 0 28 -12t-3 -31l-791 -1396q-12 -25 -41 -25h-231q-22 0 -29 12z" />
<glyph unicode="0" horiz-adv-x="1239" d="M102 516l80 451q46 263 206 393.5t398 130.5q105 0 192.5 -37t147 -104t84 -168.5t2.5 -223.5l-79 -452q-48 -268 -207.5 -400.5t-397.5 -132.5q-105 0 -193 37.5t-148 105.5t-83.5 171.5t-1.5 228.5zM416 494q-20 -113 24 -163t131 -50q92 0 158.5 52.5t85.5 164.5 l84 475q19 112 -26 162.5t-134 50.5q-90 0 -155 -52.5t-86 -164.5z" />
<glyph unicode="1" horiz-adv-x="804" d="M123 1145q-13 30 12 47l395 258q22 14 45 14h213q17 0 26 -10.5t7 -28.5l-246 -1392q-6 -31 -38 -31h-244q-37 0 -31 39l184 1040l-196 -129q-14 -10 -27.5 -5t-19.5 20z" />
<glyph unicode="2" horiz-adv-x="1136" d="M-18 39l30 188q5 24 25 41l395 350q206 178 286.5 269t94.5 174q10 62 -21 97.5t-114 35.5q-143 0 -303 -141q-13 -14 -26.5 -12t-22.5 20l-103 180q-17 30 6 49q98 89 223.5 145t264.5 56q216 0 328.5 -120t76.5 -318q-20 -119 -91 -226t-222 -260q-160 -152 -326 -276 h494q18 0 27 -10.5t6 -28.5l-39 -219q-7 -33 -39 -33h-920q-36 0 -30 39z" />
<glyph unicode="3" horiz-adv-x="1136" d="M-6 168q-20 25 6 51l143 164q24 22 50 -4q55 -53 120.5 -79t169.5 -26q96 0 165 56.5t89 161.5q17 90 -34.5 138t-151.5 48q-61 0 -135 -19q-36 -9 -43 25l-33 117q-6 28 14 45l369 325h-459q-17 0 -26 10.5t-7 28.5l41 222q3 32 37 32h826q35 0 32 -39l-32 -174 q-3 -25 -21 -41l-381 -329v-2q158 4 252.5 -120.5t65.5 -293.5q-42 -235 -199 -362.5t-393 -127.5q-168 0 -277 51t-188 142z" />
<glyph unicode="4" horiz-adv-x="1189" d="M6 295l31 180q7 27 16 43l623 924q16 22 45 22h266q21 0 28 -12t-5 -31l-588 -878h266l74 264q10 29 41 29h209q35 0 32 -39l-45 -254h111q17 0 25.5 -11t5.5 -28l-37 -215q-7 -33 -39 -33h-117l-39 -223q-7 -33 -37 -33h-239q-18 0 -27 10.5t-6 28.5l39 217h-602 q-17 0 -25.5 11t-5.5 28z" />
<glyph unicode="5" horiz-adv-x="1163" d="M43 170q-20 25 4 49l135 160q12 11 26 11t25 -9q116 -107 289 -107q104 0 170.5 61.5t85.5 166.5q29 188 -176 188q-140 0 -250 -74q-21 -13 -49 -4l-141 52q-31 10 -25 43l154 725q6 32 39 32h798q18 0 27 -10.5t6 -28.5l-39 -227q-6 -31 -39 -31h-548l-56 -256 q82 45 226 45q210 0 313.5 -131t66.5 -344q-42 -239 -198 -372.5t-410 -133.5q-274 0 -434 195z" />
<glyph unicode="6" horiz-adv-x="1198" d="M92 471l90 500q28 159 115.5 278.5t213.5 180.5t273 61q253 0 422 -139q26 -20 4 -49l-147 -187q-22 -28 -49 -4q-106 82 -262 82q-102 0 -170.5 -58t-85.5 -163l-19 -105q109 66 248 66q216 0 323 -125.5t70 -335.5q-40 -225 -203 -362.5t-395 -137.5q-150 0 -256.5 65 t-151 178.5t-20.5 254.5zM410 481q-19 -100 22 -154.5t131 -54.5q95 0 159 57.5t83 159.5q31 185 -162 185q-90 0 -153 -49.5t-80 -143.5z" />
<glyph unicode="7" horiz-adv-x="1060" d="M81 12q-7 12 3 31l674 1128h-565q-18 0 -27 10.5t-6 28.5l39 222q3 32 37 32h907q17 0 25.5 -11t5.5 -28l-29 -174q-3 -20 -15 -41l-706 -1185q-16 -25 -43 -25h-272q-21 0 -28 12z" />
<glyph unicode="8" horiz-adv-x="1239" d="M70 451q19 108 84 196.5t163 134.5q-130 118 -96 305q30 176 185 290t376 114q219 0 338.5 -120.5t87.5 -305.5q-16 -88 -66 -166t-130 -125q77 -51 111 -141.5t14 -196.5q-41 -228 -198.5 -345.5t-414.5 -117.5q-230 0 -360.5 131.5t-93.5 346.5zM385 440 q-15 -83 33.5 -130.5t148.5 -47.5q103 0 172 51.5t84 137.5q12 78 -37.5 122.5t-150.5 44.5q-102 0 -169.5 -47.5t-80.5 -130.5zM514 1051q-12 -77 30.5 -119.5t131.5 -42.5q95 0 156 45t73 121q12 74 -31 114.5t-137 40.5q-90 0 -150 -42t-73 -117z" />
<glyph unicode="9" horiz-adv-x="1198" d="M59 156q-23 23 0 49l142 170q23 25 51 0q115 -103 266 -103q100 0 165.5 57t84.5 160l18 105q-108 -64 -245 -64q-129 0 -226.5 64.5t-140.5 176.5t-18 245q38 220 197.5 347.5t389.5 127.5q235 0 351.5 -141t76.5 -363l-92 -522q-40 -234 -199 -363t-403 -129 q-122 0 -231.5 49t-186.5 134zM465 997q-15 -93 24 -144.5t132 -51.5q92 0 156 48.5t81 139.5l2 12q17 97 -25.5 149t-134.5 52q-93 0 -155.5 -54.5t-79.5 -150.5z" />
<glyph unicode=":" horiz-adv-x="565" d="M39 184q12 71 64 115.5t122 44.5q87 0 133 -57.5t31 -147.5q-12 -70 -64.5 -114.5t-123.5 -44.5q-87 0 -132 57t-30 147zM172 932q12 72 64 117t124 45q87 0 134 -59t30 -146q-12 -72 -65 -117t-125 -45q-86 0 -131.5 58.5t-30.5 146.5z" />
<glyph unicode=";" horiz-adv-x="563" d="M-94 -242l211 523q9 28 41 28h215q42 0 26 -43l-249 -522q-15 -27 -44 -27h-174q-19 0 -26 11t0 30zM178 934q14 73 65.5 116.5t125.5 43.5q83 0 127.5 -58t29.5 -147q-14 -69 -66.5 -113.5t-125.5 -44.5q-82 0 -126.5 58.5t-29.5 144.5z" />
<glyph unicode="&#x3c;" d="M178 623l25 135q6 27 30 39l906 428q19 9 30 0.5t7 -29.5l-46 -250q-6 -26 -32 -37l-561 -217l475 -229q28 -15 22 -45l-43 -242q-7 -41 -45 -20l-749 422q-25 16 -19 45z" />
<glyph unicode="=" d="M137 367l39 213q6 30 37 30h883q36 0 30 -39l-36 -211q-6 -30 -37 -30h-883q-39 0 -33 37zM217 799l37 213q6 30 39 30h878q19 0 27.5 -10.5t5.5 -27.5l-37 -211q-7 -33 -39 -33h-880q-17 0 -25.5 11t-5.5 28z" />
<glyph unicode="&#x3e;" d="M170 188l47 250q3 24 31 37l561 232l-473 215q-28 16 -25 45l43 239q10 42 45 21l750 -422q23 -14 20 -45l-26 -131q-3 -26 -29 -39l-905 -432q-20 -9 -31 -0.5t-8 30.5z" />
<glyph unicode="?" horiz-adv-x="1017" d="M186 1290q-13 29 11 47q192 154 442 154q73 0 138.5 -16.5t121.5 -50.5t92 -86.5t51 -124.5t-2 -164q-12 -71 -40 -126.5t-63 -90.5t-75.5 -64.5t-80.5 -54.5t-74.5 -52.5t-61 -67.5t-37.5 -91l-6 -41q-3 -21 -35 -21h-219q-38 0 -31 39l13 78q12 65 39.5 117.5t63 86 t76.5 61.5t81 52.5t74 50t59 61.5t33 81q13 69 -23.5 113.5t-134.5 44.5q-143 0 -289 -113q-14 -13 -26.5 -10t-20.5 20zM240 182q12 72 63.5 116t126.5 44q82 0 126.5 -57.5t29.5 -145.5q-12 -70 -65 -114.5t-126 -44.5q-83 0 -127.5 58t-27.5 144z" />
<glyph unicode="@" horiz-adv-x="1742" d="M78 272q-11 114 10 242l49 277q59 328 290 514t622 186q132 0 246 -27t199.5 -76t148.5 -109.5t110 -135.5q13 -26 8 -47l-90 -527q-34 -205 -133.5 -306t-251.5 -101q-132 0 -188 78q-114 -82 -285 -82q-153 0 -234.5 108.5t-52.5 268.5l33 176q29 161 136 257.5 t280 96.5q187 0 325 -82q22 -14 19 -45l-80 -455q-7 -45 7.5 -71t62.5 -25q101 6 123 127l98 541q-54 94 -189 158.5t-309 64.5q-286 0 -452 -134.5t-209 -371.5l-47 -264q-28 -152 14 -275.5t144.5 -194.5t244.5 -71q193 0 365 78q35 18 45 -22l26 -123q6 -29 -16 -41 q-91 -48 -210.5 -77.5t-234.5 -29.5q-133 0 -245 38.5t-189 107.5t-128 164.5t-62 209.5zM770 543q-13 -82 10 -119t84 -37q63 0 127 35l68 393q-31 23 -94 23q-68 0 -112 -39t-56 -111z" />
<glyph unicode="A" d="M-76 11.5q-7 11.5 2 31.5l682 1395q12 26 41 26h299q33 0 39 -32l211 -1395q6 -37 -33 -37h-256q-34 0 -37 33l-28 239h-461l-111 -245q-9 -27 -41 -27h-280q-20 0 -27 11.5zM512 563h299q-8 86 -28 279.5t-27 265.5h-8q-158 -375 -236 -545z" />
<glyph unicode="B" horiz-adv-x="1275" d="M57 39l246 1393q6 32 37 32h504q212 0 316 -120q81 -93 80 -223q0 -39 -7 -81q-15 -90 -63 -159t-123 -107q87 -45 124 -131q24 -56 24 -125q0 -37 -7 -78q-36 -215 -181 -327.5t-401 -112.5h-516q-18 0 -27 10.5t-6 28.5zM424 289h217q89 0 147.5 46t73.5 136q3 18 3 34 q0 124 -158 124h-224zM532 893h189q78 0 126 39.5t60 111.5q4 19 4 36q0 104 -139 104h-188z" />
<glyph unicode="C" horiz-adv-x="1167" d="M106 559l72 416q29 168 119 285t223 174t301 57q117 0 222 -37t182 -102q28 -18 4 -49l-150 -177q-18 -24 -49 -6q-109 74 -237 74q-120 0 -194 -67.5t-93 -184.5l-72 -414q-5 -34 -6 -63q0 -79 40 -127q54 -66 173 -66q71 0 148 24t141 66q32 19 49 -14l96 -201 q14 -32 -6 -43q-219 -131 -487 -131q-258 0 -390 157q-98 116 -98 296q0 63 12 133z" />
<glyph unicode="D" horiz-adv-x="1325" d="M57 39l246 1393q1 15 11.5 23.5t25.5 8.5h481q115 0 208.5 -35t160.5 -105q68 -70 94 -184q13 -58 12 -123q0 -65 -12 -138l-59 -338q-26 -149 -81.5 -254.5t-140 -167.5t-188.5 -90.5t-237 -28.5h-490q-17 0 -25.5 11t-5.5 28zM426 297h203q109 0 175.5 62t90.5 196 l63 365q8 45 8 82q0 68 -28 106q-43 58 -154 59h-204z" />
<glyph unicode="E" horiz-adv-x="1171" d="M57 39l248 1393q6 32 37 32h842q18 0 27 -10.5t6 -28.5l-39 -221q-7 -33 -37 -33h-557l-52 -284h488q37 0 31 -39l-39 -215q-7 -33 -37 -33h-494l-53 -305h580q35 0 32 -39l-36 -223q-6 -33 -39 -33h-875q-36 0 -33 39z" />
<glyph unicode="F" horiz-adv-x="1126" d="M57 39l248 1393q1 15 11.5 23.5t25.5 8.5h848q18 0 27 -10.5t6 -28.5l-39 -223q-3 -33 -37 -33h-561l-60 -331h478q35 0 32 -39l-41 -224q-6 -32 -37 -32h-485l-92 -510q-3 -33 -37 -33h-254q-18 0 -27 10.5t-6 28.5z" />
<glyph unicode="G" horiz-adv-x="1288" d="M104 539l74 438q42 245 215.5 379.5t423.5 134.5q133 0 251.5 -39.5t207.5 -108.5q25 -23 4 -51l-158 -178q-19 -25 -49 -8q-123 88 -289 88q-112 0 -185.5 -65.5t-92.5 -182.5l-74 -430q-5 -29 -5 -55q0 -69 35 -119q49 -68 152 -68q136 3 230 56l47 256h-217 q-17 0 -25.5 11t-5.5 28l35 194q1 15 11.5 24t25.5 9h495q17 0 25.5 -11t5.5 -28l-106 -604q-7 -27 -21 -39q-102 -90 -248.5 -142.5t-300.5 -52.5q-159 0 -274.5 73.5t-164.5 202.5q-32 83 -32 179q0 53 10 109z" />
<glyph unicode="H" horiz-adv-x="1361" d="M57 39l246 1393q6 32 37 32h254q36 0 33 -39l-95 -536h422l97 543q3 32 36 32h254q17 0 26 -10.5t7 -28.5l-248 -1392q-3 -33 -36 -33h-254q-17 0 -25.5 11t-5.5 28l98 553h-424l-98 -559q-7 -33 -39 -33h-252q-18 0 -27 10.5t-6 28.5z" />
<glyph unicode="I" horiz-adv-x="614" d="M57 39l246 1393q6 32 39 32h252q18 0 27 -10.5t6 -28.5l-246 -1392q-7 -33 -37 -33h-254q-17 0 -26 10.5t-7 28.5z" />
<glyph unicode="J" horiz-adv-x="1062" d="M-51 168l139 180q19 25 51 6q99 -80 234 -80q177 0 215 201l168 957q6 32 39 32h254q35 0 32 -39l-166 -962q-41 -234 -191.5 -361t-379.5 -127q-227 0 -391 142q-25 25 -4 51z" />
<glyph unicode="K" horiz-adv-x="1284" d="M57 39l246 1393q6 32 39 32h252q39 0 33 -39l-90 -507l462 526q17 20 43 20h330q23 0 29.5 -13t-8.5 -32l-580 -614l391 -762q9 -19 1.5 -31t-27.5 -12h-289q-32 0 -41 27l-268 553l-123 -119l-76 -428q-7 -33 -39 -33h-252q-18 0 -27 10.5t-6 28.5z" />
<glyph unicode="L" horiz-adv-x="1048" d="M57 39l246 1393q1 15 11.5 23.5t25.5 8.5h254q36 0 33 -39l-199 -1128h520q18 0 27 -10.5t6 -28.5l-39 -225q-7 -33 -39 -33h-815q-17 0 -25.5 11t-5.5 28z" />
<glyph unicode="M" horiz-adv-x="1722" d="M57 39l244 1393q6 32 37 32h289q33 0 41 -30l102 -351q74 -283 102 -419h7q152 272 249 423l230 355q14 22 43 22h299q18 0 27 -10.5t6 -28.5l-244 -1392q-7 -33 -39 -33h-250q-17 0 -26 10.5t-7 28.5l45 260q36 211 129 649l-10 2q-81 -156 -241 -415l-132 -205 q-14 -25 -40 -25h-187q-32 0 -41 31l-61 209q-88 338 -99 395h-10q-32 -253 -94 -635l-47 -272q-3 -33 -39 -33h-250q-18 0 -27 10.5t-6 28.5z" />
<glyph unicode="N" horiz-adv-x="1402" d="M57 39l246 1393q1 15 11.5 23.5t25.5 8.5h270q35 0 41 -28l162 -486q66 -211 127 -440l10 2q29 261 82 567l62 353q6 32 36 32h250q18 0 27 -10.5t6 -28.5l-246 -1392q-7 -33 -39 -33h-268q-29 0 -41 29l-162 434q-40 105 -80 246.5t-61 240.5l-8 -4q-34 -371 -78 -606 l-53 -307q-7 -33 -37 -33h-252q-17 0 -25.5 11t-5.5 28z" />
<glyph unicode="O" horiz-adv-x="1343" d="M109 592l63 362q44 252 219 394.5t443 142.5q262 -1 390 -165q95 -121 95 -303q0 -65 -12 -138l-64 -363q-44 -263 -218.5 -406t-451.5 -143q-260 -1 -386 171q-91 124 -91 304q0 68 13 144zM434 555q-7 -40 -7 -75q-1 -78 33 -131q48 -77 161 -77q120 0 195 71t97 198 l66 374q7 40 7 74q0 75 -33 127q-48 76 -162 76q-120 0 -192.5 -69t-96.5 -197z" />
<glyph unicode="P" horiz-adv-x="1253" d="M57 39l246 1393q1 15 11.5 23.5t25.5 8.5h465q256 0 383 -152q94 -112 94 -275q0 -58 -12 -122q-41 -223 -194 -351t-396 -128h-227l-72 -403q-7 -33 -39 -33h-254q-17 0 -25.5 11t-5.5 28zM504 729h182q108 0 173.5 55t82.5 158q5 30 5 57q0 70 -35 112q-48 58 -152 58 h-178z" />
<glyph unicode="Q" horiz-adv-x="1359" d="M109 592l63 362q44 253 219.5 395t444.5 142q264 0 393 -165q95 -120 95 -301q0 -66 -13 -140l-62 -363q-34 -192 -139 -321l117 -148q21 -27 -6 -51l-191 -152q-27 -24 -47 7l-123 168q-127 -47 -285 -50h-3q-261 0 -386 169q-90 122 -90 302q0 69 13 146zM436 555 q-7 -40 -7 -74q0 -77 33 -129q49 -76 161 -76q120 0 195 70t97 195l66 374q7 40 7 75q0 76 -33 128q-48 74 -162 74q-120 0 -192.5 -69t-96.5 -197z" />
<glyph unicode="R" horiz-adv-x="1265" d="M57 39l244 1393q6 32 39 32h471q162 0 272.5 -70t153.5 -188q27 -75 27 -163q0 -51 -9 -105q-53 -320 -356 -412l229 -485q9 -19 2.5 -30t-26.5 -11h-279q-32 0 -41 27l-188 460h-135l-78 -454q-7 -33 -39 -33h-254q-18 0 -27 10.5t-6 28.5zM512 778h180q204 0 234 185 q4 28 4 53q0 153 -168 153h-182z" />
<glyph unicode="S" horiz-adv-x="1228" d="M27 223l147 183q21 27 51 4q175 -136 348 -136q94 0 161 37.5t79 106.5q2 11 2 21q-1 55 -51 89q-60 40 -191 76q-88 25 -157.5 63t-126 95.5t-79.5 141.5q-13 47 -13 102q0 42 8 88q14 84 50 151t86.5 112.5t117 76t140.5 44t159 13.5q143 0 257 -38t222 -118 q29 -19 6 -49l-143 -184q-21 -24 -49 -6q-156 100 -330 100q-82 0 -133.5 -36t-63.5 -99q-2 -12 -2 -24q0 -51 40 -79q49 -36 163 -69q94 -29 157 -57.5t142.5 -85.5t109.5 -150q17 -52 18 -113q0 -48 -11 -102q-24 -115 -83.5 -197.5t-144 -127t-176 -64t-198.5 -19.5 q-154 0 -275.5 50.5t-232.5 148.5q-26 23 -4 51z" />
<glyph unicode="T" horiz-adv-x="1150" d="M143 1206l41 226q6 32 37 32h1028q39 0 33 -39l-41 -225q-3 -33 -37 -33h-354l-201 -1134q-7 -33 -37 -33h-256q-17 0 -25 10.5t-5 28.5l200 1128h-350q-36 0 -33 39z" />
<glyph unicode="U" horiz-adv-x="1361" d="M139 582l152 850q6 32 37 32h258q18 0 26.5 -10.5t5.5 -28.5l-157 -880q-8 -43 -7 -79q0 -75 32 -121q48 -69 149 -69q104 0 172.5 64t91.5 190l156 902q6 32 37 32h258q35 0 32 -39l-159 -919q-44 -255 -204 -393t-431 -138q-252 1 -374 163q-88 117 -88 296 q0 70 13 148z" />
<glyph unicode="V" horiz-adv-x="1302" d="M164 1427q-3 17 6 27t27 10h260q36 0 39 -32l73 -625q32 -273 43 -438h13q116 288 172 413l303 656q13 26 43 26h282q20 0 27 -11.5t-2 -31.5l-694 -1394q-12 -27 -41 -27h-307q-33 0 -39 33z" />
<glyph unicode="W" horiz-adv-x="1941" d="M168 1427q-1 17 8.5 27t26.5 10h262q16 0 26.5 -9t10.5 -25l20 -463q6 -130 6 -341q0 -117 -2 -259h11q88 292 215 614l176 434q13 29 41 29h288q34 0 37 -33l35 -453q17 -287 17 -591h12q104 348 211 632l170 437q12 28 41 28h274q20 0 28 -11t1 -30l-610 -1396 q-13 -27 -43 -27h-297q-32 0 -35 33l-27 403q-7 134 -14 588h-13q-60 -238 -167 -498l-211 -497q-13 -29 -41 -29h-297q-34 0 -37 33z" />
<glyph unicode="X" horiz-adv-x="1239" d="M-65 13q-6 13 6 30l510 692l-244 688q-6 19 2 30t27 11h266q32 0 41 -28l141 -465l303 469q15 24 43 24h295q22 0 28.5 -12t-5.5 -31l-496 -692l276 -688q13 -41 -28 -41h-275q-29 0 -39 29l-165 465l-308 -469q-16 -25 -43 -25h-307q-22 0 -28 13z" />
<glyph unicode="Y" horiz-adv-x="1191" d="M160 1425q-6 17 1.5 28t26.5 11h267q31 0 37 -30l149 -605h4l348 611q15 24 41 24h283q20 0 26.5 -12t-4.5 -31l-579 -901l-92 -487q-6 -33 -37 -33h-256q-39 0 -33 39l90 487z" />
<glyph unicode="Z" horiz-adv-x="1214" d="M-20 39l32 174q4 17 21 41l772 917h-549q-17 0 -25.5 11t-5.5 28l39 222q6 32 37 32h950q18 0 27 -10.5t6 -28.5l-33 -168q-6 -26 -18 -43l-760 -921h592q37 0 31 -39l-39 -221q-7 -33 -39 -33h-1006q-18 0 -26.5 10.5t-5.5 28.5z" />
<glyph unicode="[" horiz-adv-x="628" d="M2 -199l328 1862q7 33 39 33h366q36 0 33 -39l-33 -184q-6 -33 -39 -33h-133l-250 -1422h127q36 0 33 -38l-33 -187q-6 -31 -39 -31h-366q-39 0 -33 39z" />
<glyph unicode="\" horiz-adv-x="925" d="M201 1425q-9 39 32 39h197q30 0 39 -30l326 -1395q3 -18 -6 -28.5t-27 -10.5h-199q-31 0 -41 31z" />
<glyph unicode="]" horiz-adv-x="626" d="M-72 -199l33 185q6 32 39 32h133l250 1422h-127q-36 0 -33 39l33 186q6 31 39 31h367q38 0 32 -39l-327 -1862q-7 -33 -39 -33h-367q-36 0 -33 39z" />
<glyph unicode="^" d="M217 1137q-6 13 8 30l465 498q22 18 45 18h221q30 0 43 -24l291 -492q19 -43 -24 -43h-217q-25 0 -41 25l-187 328l-291 -334q-16 -19 -45 -19h-239q-23 0 -29 13z" />
<glyph unicode="_" horiz-adv-x="1136" d="M-57 -250l32 191q3 32 37 32h914q38 0 32 -39l-34 -190q-1 -15 -11.5 -24t-25.5 -9h-914q-17 0 -25 10.5t-5 28.5z" />
<glyph unicode="`" horiz-adv-x="501" d="M182.5 1539q6.5 13 28.5 13h190q28 0 41 -26l129 -266q9 -19 2 -30t-26 -11h-141q-30 0 -44 22l-174 268q-12 17 -5.5 30z" />
<glyph unicode="a" horiz-adv-x="1034" d="M14 360q50 287 465 287q92 0 174 -16l4 33q4 25 4 46q0 45 -20 71q-30 38 -123 38q-145 0 -244 -47q-36 -16 -47 16l-63 168q-10 30 6 41q75 45 185 71t233 26q210 0 308 -132q70 -93 70 -234q0 -59 -12 -126l-92 -518q-7 -31 -31 -39q-205 -72 -425 -72q-212 1 -318 109 q-82 84 -81 204q0 35 7 74zM319 344q-2 -13 -2 -25q0 -39 25 -61q33 -29 102 -29q63 0 142 17l28 178q-68 14 -131 14q-149 0 -164 -94z" />
<glyph unicode="b" horiz-adv-x="1101" d="M33 119l235 1313q1 15 11.5 23.5t25.5 8.5h238q35 0 32 -39l-67 -376q85 45 197 45q174 0 272 -132q72 -97 73 -232q0 -48 -10 -101l-36 -213q-37 -214 -178.5 -328.5t-366.5 -114.5q-104 0 -212 27.5t-194 73.5q-25 14 -20 45zM369 266q53 -24 123 -24q167 0 202 196 l39 226q6 27 6 50q1 47 -23 76q-34 44 -108 44q-80 0 -147 -41z" />
<glyph unicode="c" horiz-adv-x="923" d="M63 449l46 253q33 189 170.5 290.5t338.5 101.5q174 0 312 -99q26 -19 6 -49l-121 -155q-21 -24 -49 -7q-72 43 -158 43q-81 0 -129.5 -40.5t-62.5 -116.5l-43 -242q-6 -30 -6 -56q0 -52 24 -84q36 -48 113 -48q92 0 192 59q33 20 49 -12l80 -176q17 -33 -16 -50 q-160 -88 -352 -88q-210 1 -321 131q-83 97 -83 241q0 49 10 104z" />
<glyph unicode="d" horiz-adv-x="1103" d="M59 449l43 235q32 184 161.5 297t311.5 113q118 0 199 -43l68 381q6 32 37 32h237q18 0 27 -10.5t6 -28.5l-236 -1339q-3 -28 -30 -37q-88 -35 -198 -55.5t-212 -20.5q-220 0 -335 135q-88 103 -88 247q0 45 9 94zM371 426q-6 -34 -7 -62q0 -50 21 -76q32 -42 117 -42 q83 0 135 22l92 529q-49 34 -135 34q-150 0 -184 -186z" />
<glyph unicode="e" horiz-adv-x="1062" d="M57 403l54 297q35 193 175 293.5t335 100.5q208 0 320 -112q83 -83 83 -224q0 -49 -10 -105l-35 -198q-6 -31 -37 -31h-569l-6 -29q-4 -24 -5 -45q0 -117 146 -117q129 0 266 82q33 23 47 -10l84 -158q14 -35 -12 -49q-183 -125 -428 -125q-207 -1 -325 117 q-91 91 -91 229q0 40 8 84zM410 629h299l10 51q3 17 3 33q0 44 -23 77q-31 44 -105 44q-67 0 -114 -39.5t-60 -110.5z" />
<glyph unicode="f" horiz-adv-x="671" d="M23 39l190 1067q34 191 148.5 288t304.5 97q82 0 129 -8q34 -6 28 -43l-35 -195q-3 -34 -32 -31q-44 7 -86 7q-127 0 -154 -144l-6 -41h180q36 0 33 -39l-33 -188q-7 -33 -39 -33h-188l-133 -743q-3 -33 -37 -33h-238q-18 0 -26.5 10.5t-5.5 28.5z" />
<glyph unicode="g" horiz-adv-x="1103" d="M-16 -242l125 160q21 27 49 6q97 -63 227 -63q94 0 148.5 47.5t74.5 150.5q-95 -30 -182 -30q-199 0 -297 125q-71 92 -71 224q0 49 10 105l34 195q37 208 180.5 312t352.5 104q221 0 412 -86q28 -16 22 -45l-149 -863q-48 -279 -173 -396.5t-389 -117.5q-122 0 -209 30 t-161 93q-26 20 -4 49zM377 457q-5 -26 -5 -48q0 -116 130 -116q96 0 149 39l80 467q-40 24 -123 24q-79 0 -130 -39t-64 -116z" />
<glyph unicode="h" horiz-adv-x="1116" d="M23 39l247 1393q3 32 37 32h236q17 0 25 -10.5t5 -28.5l-65 -374q88 43 201 43q182 0 271 -131q62 -91 62 -227q0 -60 -12 -128l-102 -575q-1 -15 -11.5 -24t-25.5 -9h-236q-18 0 -26.5 10.5t-5.5 28.5l104 606q6 32 6 58q0 122 -133 122q-67 0 -137 -34l-133 -758 q-7 -33 -39 -33h-236q-35 0 -32 39z" />
<glyph unicode="i" horiz-adv-x="528" d="M23 39l176 995q3 31 37 31h237q39 0 33 -37l-176 -995q-7 -33 -39 -33h-238q-17 0 -25 10.5t-5 28.5zM244 1405q12 68 61 108.5t119 40.5q78 0 121 -54q32 -40 32 -97q0 -20 -4 -41q-12 -64 -62 -106t-118 -42q-78 0 -121 56q-32 41 -32 95q0 19 4 40z" />
<glyph unicode="j" horiz-adv-x="544" d="M-217 -362l37 208q6 34 35 31q16 -2 51 -2q107 0 133 160l174 999q6 31 39 31h237q37 0 31 -37l-178 -1030q-21 -118 -62.5 -200.5t-101 -127.5t-125 -64.5t-147.5 -19.5q-42 0 -96 8q-34 6 -27 44zM258 1405q14 68 62.5 108.5t117.5 40.5q78 0 122 -54q32 -41 32 -97 q0 -20 -4 -41q-12 -64 -62 -106t-118 -42q-78 0 -122 56q-32 41 -32 96q0 18 4 39z" />
<glyph unicode="k" horiz-adv-x="1036" d="M23 39l247 1393q6 32 37 32h238q18 0 27 -10.5t6 -28.5l-123 -696l290 318q13 18 43 18h281q23 0 28 -13t-10 -30l-401 -412l264 -569q16 -41 -26 -41h-260q-32 0 -41 29l-154 362l-90 -86l-49 -272q-1 -15 -11.5 -24t-25.5 -9h-238q-35 0 -32 39z" />
<glyph unicode="l" horiz-adv-x="610" d="M80 414l180 1018q6 32 37 32h238q17 0 25 -10.5t5 -28.5l-180 -1028q-6 -32 -6 -57q0 -96 86 -96h41q19 2 27.5 -6.5t5.5 -26.5l-33 -195q-6 -29 -27 -32q-53 -11 -108 -11q-165 1 -245 121q-56 84 -56 207q0 53 10 113z" />
<glyph unicode="m" horiz-adv-x="1638" d="M20 39l170 936q7 26 31 37q195 82 397 82q153 0 254 -82q154 82 304 82q210 0 312 -140q74 -102 74 -248q0 -53 -10 -112l-102 -561q-1 -15 -11.5 -24t-25.5 -9h-231q-36 0 -33 39l104 598q6 33 6 60q0 128 -129 128q-69 0 -137 -37q8 -42 7 -88q0 -51 -9 -106l-100 -561 q-1 -15 -11.5 -24t-25.5 -9h-231q-18 0 -27 10.5t-6 28.5l104 598q6 35 6 63q0 125 -118 125q-69 0 -119 -24l-139 -768q-6 -33 -37 -33h-236q-37 0 -31 39z" />
<glyph unicode="n" horiz-adv-x="1118" d="M20 39l168 936q7 26 31 37q216 82 416 82q228 0 332 -133q76 -97 75 -241q0 -54 -10 -114l-102 -573q-7 -33 -39 -33h-236q-35 0 -32 39l102 598q6 34 6 61q0 127 -135 127q-78 0 -131 -24l-135 -768q-6 -33 -39 -33h-238q-18 0 -27 10.5t-6 28.5z" />
<glyph unicode="o" horiz-adv-x="1095" d="M59 438l43 254q34 186 176 294t355 108q137 0 237 -62t142 -166q28 -70 29 -149q0 -39 -7 -80l-47 -258q-36 -195 -173 -300.5t-361 -105.5q-205 1 -317 135q-86 103 -85 240q0 43 8 90zM367 408q-4 -23 -4 -44q-1 -46 21 -77q32 -45 103 -45q79 0 128 40t61 113l47 262 q3 19 3 37q0 48 -24 83q-33 48 -104 48q-73 0 -122.5 -41.5t-61.5 -111.5z" />
<glyph unicode="p" horiz-adv-x="1103" d="M-45 -350l231 1321q6 26 29 37q88 39 199 61.5t215 22.5q219 0 333 -134q87 -103 87 -247q0 -45 -9 -95l-41 -235q-31 -182 -161 -295t-312 -113q-119 0 -198 45l-68 -374q-1 -15 -11.5 -24t-25.5 -9h-237q-38 0 -31 39zM373 272q51 -39 131 -39q156 0 190 189l37 217 q6 35 6 63q0 50 -20 78q-32 43 -117 43q-77 0 -135 -30z" />
<glyph unicode="q" horiz-adv-x="1101" d="M59 438l39 215q40 212 179 326.5t356 114.5q107 0 217 -27t197 -72q26 -15 20 -47l-233 -1304q-7 -33 -39 -33h-238q-36 0 -33 39l68 366q-84 -43 -199 -43q-170 0 -271 133q-73 97 -73 230q0 48 10 102zM367 403q-4 -23 -4 -43q0 -52 25 -84q33 -43 101 -43q82 0 148 37 l96 533q-55 22 -129 22q-158 0 -196 -196z" />
<glyph unicode="r" horiz-adv-x="735" d="M23 39l161 930q6 26 31 39q186 86 379 86q77 0 170 -19q17 -3 24.5 -14.5t4.5 -26.5l-37 -200q-3 -34 -41 -31q-58 10 -119 10q-70 0 -133 -25l-133 -755q-7 -33 -37 -33h-238q-18 0 -26.5 10.5t-5.5 28.5z" />
<glyph unicode="s" horiz-adv-x="987" d="M-6 160l117 159q21 27 49 9q119 -88 266 -88q142 0 158 77q4 18 -2 32.5t-17 24t-33 18t-40 13t-48 11.5q-78 16 -140.5 46.5t-108.5 77t-64 112.5q-10 35 -10 75q0 35 8 72q61 295 463 295q193 0 360 -95q32 -19 9 -49l-121 -162q-17 -26 -49 -10q-95 56 -228 56 q-120 0 -131 -68q-1 -8 -1 -15q0 -31 29 -47q36 -20 124 -40q52 -11 97.5 -28.5t92 -49t76.5 -70.5q30 -40 44 -98q7 -31 7 -64q0 -30 -6 -63q-30 -159 -155.5 -238.5t-323.5 -79.5q-246 0 -416 138q-27 21 -6 49z" />
<glyph unicode="t" horiz-adv-x="671" d="M80 410l153 878q7 33 39 33h201q38 0 35 -37l-12 -244h163q18 0 27 -10.5t6 -28.5l-33 -188q-6 -33 -38 -33h-168l-70 -395q-4 -24 -4 -43q0 -98 104 -98h56q19 2 27.5 -6.5t4.5 -28.5l-32 -191q-6 -31 -35 -34q-57 -11 -105 -11q-179 1 -268 111q-62 77 -62 206 q0 55 11 120z" />
<glyph unicode="u" horiz-adv-x="1107" d="M88 459l102 575q6 31 37 31h238q37 0 31 -37l-103 -600q-6 -33 -6 -60q0 -126 131 -126q74 0 127 22l137 770q3 31 37 31h240q37 0 31 -37l-166 -936q-6 -28 -31 -37q-199 -80 -412 -80q-225 0 -329 132q-75 96 -75 238q0 54 11 114z" />
<glyph unicode="v" horiz-adv-x="1044" d="M100 1028q-3 37 35 37h238q34 0 37 -33l49 -440q15 -130 24 -270h4q12 30 51 126t60 146l195 444q13 27 43 27h254q20 0 26.5 -11t-2.5 -30l-506 -997q-12 -27 -41 -27h-270q-36 0 -39 33z" />
<glyph unicode="w" horiz-adv-x="1519" d="M106 1028q-3 37 35 37h236q37 0 37 -35l8 -336q4 -180 4 -344h8q65 205 119 342l131 332q12 27 41 27h244q35 0 35 -33l16 -328q6 -174 6 -287v-53h8q25 78 123 348l125 340q12 27 41 27h236q21 0 28 -10t-2 -29l-438 -999q-13 -27 -43 -27h-256q-34 0 -37 35l-14 340 q-1 30 -3 145t-3 156h-7q-51 -166 -106 -301l-146 -346q-10 -29 -38 -29h-261q-33 0 -36 33z" />
<glyph unicode="x" horiz-adv-x="1005" d="M-66.5 13q-6.5 13 5.5 30l374 510l-174 473q-12 39 27 39h248q30 0 39 -29l82 -305l190 311q11 23 41 23h258q22 0 28.5 -12t-5.5 -29l-349 -494l191 -489q7 -19 -1 -30t-28 -11h-252q-30 0 -39 31l-92 297l-205 -303q-16 -25 -43 -25h-266q-23 0 -29.5 13z" />
<glyph unicode="y" horiz-adv-x="1103" d="M-20.5 -272q-0.5 14 8.5 26l127 162q19 27 51 8q92 -65 219 -65q98 0 150 47t69 153q-92 -30 -174 -30q-189 0 -283 128q-68 93 -68 228q0 51 9 107l98 542q3 31 37 31h236q39 0 33 -37l-103 -565q-6 -30 -6 -55q0 -47 22 -75q33 -42 105 -42q77 0 137 35l125 708 q6 31 39 31h236q35 0 32 -37l-164 -928q-50 -276 -177 -395t-378 -119q-231 0 -368 119q-12 9 -12.5 23z" />
<glyph unicode="z" horiz-adv-x="983" d="M-27 39l25 133q6 24 20 41l519 590h-363q-37 0 -31 37l37 194q3 31 37 31h748q36 0 30 -37l-20 -125q-6 -23 -21 -41l-518 -596h402q36 0 30 -39l-37 -194q-2 -15 -11.5 -24t-24.5 -9h-789q-39 0 -33 39z" />
<glyph unicode="{" horiz-adv-x="679" d="M78 651l24 162q3 26 37 33q63 14 102.5 76t51.5 141l57 328q29 165 105 235t223 70h108q36 0 33 -39l-33 -191q-6 -30 -38 -30h-35q-38 0 -67 -27.5t-38 -77.5l-59 -330q-17 -100 -74 -175t-135 -105q58 -23 92.5 -106.5t16.5 -180.5l-58 -330q-7 -46 4.5 -63.5 t48.5 -17.5h50q17 0 25 -10.5t5 -28.5l-35 -191q-3 -31 -36 -31h-99q-135 0 -197.5 85t-35.5 241l57 330q8 48 9 87.5t-18 68.5t-60 38q-36 6 -31 39z" />
<glyph unicode="|" horiz-adv-x="548" d="M-6 -246l348 1977q6 32 39 32h215q17 0 25.5 -11t5.5 -28l-348 -1976q-7 -33 -37 -33h-215q-18 0 -27 10.5t-6 28.5z" />
<glyph unicode="}" horiz-adv-x="677" d="M-72 -197l33 191q6 31 39 31h35q38 0 66.5 27t37.5 77l60 330q17 100 74 175t135 105q-58 23 -92.5 106.5t-16.5 180.5l57 330q7 46 -4.5 64t-48.5 18h-49q-17 0 -25.5 11t-5.5 28l35 190q3 31 37 31h98q135 0 198 -85t36 -241l-58 -330q-8 -48 -9 -87.5t18.5 -68.5 t60.5 -38q36 -6 31 -39l-25 -162q-3 -26 -37 -33q-63 -14 -102 -76t-51 -141l-58 -327q-29 -165 -104.5 -235.5t-222.5 -70.5h-109q-36 0 -33 39z" />
<glyph unicode="~" d="M180 657q-22 26 2 50q111 137 283 137q69 0 135 -23.5t123.5 -47t105.5 -23.5q40 0 82 15t70 42q29 26 51 -2l113 -143q20 -27 -6 -56q-118 -129 -275 -129q-72 0 -136 23.5t-119.5 47t-106.5 23.5q-94 0 -156 -59q-29 -26 -51 2z" />
<glyph unicode="&#xa1;" horiz-adv-x="530" d="M-39 -356l62 346l124 590q3 32 39 32h187q39 0 33 -37l-82 -585l-64 -352q-7 -33 -37 -33h-229q-36 0 -33 39zM162 934q12 70 64.5 115t125.5 45q83 0 127 -59t29 -146q-14 -71 -65.5 -114.5t-125.5 -43.5q-83 0 -127.5 57.5t-27.5 145.5z" />
<glyph unicode="&#xa2;" horiz-adv-x="978" d="M80 449l45 253q29 160 136 259t267 124l29 166q6 31 37 31h151q36 0 33 -37l-28 -164q107 -20 196 -86q29 -19 6 -49l-118 -155q-22 -25 -52 -7q-72 43 -155 43q-82 0 -131.5 -40.5t-63.5 -116.5l-43 -242q-17 -91 19 -139.5t112 -48.5q95 0 195 59q34 20 47 -12l82 -176 q13 -32 -15 -48q-131 -74 -272 -86l-29 -163q-2 -15 -11.5 -24t-24.5 -9h-152q-17 0 -25.5 11t-5.5 28l29 170q-148 39 -219 160.5t-39 298.5z" />
<glyph unicode="&#xa3;" horiz-adv-x="1101" d="M-2 39l33 186q5 25 37 35q125 30 155 219l23 131h-107q-39 0 -33 39l35 191q6 32 37 32h117l37 191q34 202 157.5 315t317.5 113q214 0 346 -123q24 -24 2 -49l-131 -150q-22 -22 -51 -4q-83 58 -185 58q-71 0 -116.5 -48t-59.5 -135l-30 -168h256q18 0 26.5 -10t5.5 -28 l-34 -191q-7 -33 -37 -33h-260l-25 -137q-31 -154 -133 -211h567q17 0 25.5 -11t5.5 -28l-35 -190q-3 -33 -37 -33h-876q-36 0 -33 39z" />
<glyph unicode="&#xa4;" horiz-adv-x="1257" d="M66 274q-22 29 4 52l131 114q-48 117 -21 275q24 139 107 252l-82 104q-24 27 4 49l137 121q12 12 26.5 11.5t24.5 -13.5l80 -102q120 63 258 63q147 0 248 -72l131 115q28 25 51 -4l90 -113q19 -28 -4 -51l-141 -123q41 -106 14 -250q-24 -146 -106 -256l96 -120 q11 -12 9 -26t-15 -24l-135 -120q-30 -23 -51 4l-93 119q-125 -64 -258 -64q-137 0 -231 59l-135 -118q-25 -25 -51 4zM426 709q-20 -109 31.5 -175.5t152.5 -66.5q100 0 177 69t94 173q17 108 -35 174.5t-152 66.5q-99 0 -174 -68t-94 -173z" />
<glyph unicode="&#xa5;" horiz-adv-x="1273" d="M164 219l24 143q6 31 37 31h228l20 103h-223q-17 0 -25.5 11t-5.5 28l23 143q6 31 39 31h133l-207 716q-5 18 3 28.5t26 10.5h260q34 0 39 -30l141 -643h6l342 647q12 26 41 26h285q22 0 28.5 -12t-4.5 -31l-448 -712h114q37 0 31 -37l-24 -144q-6 -32 -37 -32h-217 l-19 -103h211q37 0 31 -37l-25 -143q-1 -15 -11.5 -24t-25.5 -9h-217l-30 -147q-3 -33 -37 -33h-250q-17 0 -25.5 11t-5.5 28l27 141h-221q-37 0 -31 39z" />
<glyph unicode="&#xa6;" horiz-adv-x="555" d="M-4 -246l151 846q3 33 37 33h215q17 0 26 -10.5t7 -28.5l-149 -846q-7 -33 -37 -33h-217q-36 0 -33 39zM197 887l149 844q6 32 37 32h215q18 0 27 -10.5t6 -28.5l-150 -843q-7 -33 -37 -33h-217q-17 0 -25 10.5t-5 28.5z" />
<glyph unicode="&#xa7;" horiz-adv-x="1019" d="M-12 -147q-15 28 10 47l160 125q27 21 49 -11q67 -98 188 -98q61 0 107.5 33.5t56.5 91.5q6 36 -20 65.5t-72 51.5t-102.5 46t-111.5 56t-98 72.5t-63.5 104.5t-7.5 145q15 93 70 165t137 115q-42 52 -60.5 125t-5.5 152q19 112 88.5 193.5t164 120t200.5 38.5 q179 0 307 -121q23 -26 -2 -51l-141 -129q-20 -20 -49 0q-62 41 -148 41q-61 0 -101.5 -31t-47.5 -84q-5 -44 21 -78t70.5 -58.5t99.5 -48.5t108 -55t93.5 -70.5t58.5 -102.5t3 -144q-30 -162 -184 -266q112 -98 78 -281q-32 -174 -158 -272t-307 -98q-135 0 -236 58 t-155 153zM356 600q-12 -67 39 -108.5t176 -73.5q39 23 67 61.5t36 77.5q7 53 -39 90t-166 76q-96 -47 -113 -123z" />
<glyph unicode="&#xa8;" horiz-adv-x="714" d="M152 1384q12 67 57.5 105.5t109.5 38.5q63 0 96.5 -43.5t20.5 -110.5q-12 -67 -56.5 -106t-107.5 -39t-97.5 42.5t-22.5 112.5zM578 1384q12 67 57.5 105.5t109.5 38.5q63 0 96.5 -43.5t20.5 -110.5q-12 -67 -55.5 -106t-106.5 -39q-64 0 -99 42t-23 113z" />
<glyph unicode="&#xa9;" horiz-adv-x="1595" d="M115 725q31 179 112 325.5t195 242t253 147t288 51.5q142 0 262 -55.5t201.5 -154.5t114.5 -248t3 -324q-40 -229 -164 -398t-296 -253.5t-371 -84.5q-145 0 -267.5 53t-207 148t-119.5 238.5t-4 312.5zM263.5 461q24.5 -112 91 -187t164.5 -113t220 -38q114 0 221 39.5 t196 112.5t153 187.5t88 254.5q25 155 2 271.5t-88 194.5t-159.5 117t-213.5 39q-118 0 -227.5 -40t-201 -116t-156.5 -195t-89 -267q-25 -148 -0.5 -260zM489 631l33 178q28 157 135 239t254 82q142 0 236 -88q24 -21 0 -49l-100 -116q-21 -24 -50 -5q-49 43 -116 43 q-52 0 -86.5 -29.5t-44.5 -86.5l-29 -162q-11 -60 15 -88.5t77 -28.5q77 0 145 47q33 23 48 -12l57 -113q16 -29 -8 -47q-117 -92 -283 -92q-66 0 -122.5 21.5t-98 61.5t-59 103.5t-3.5 141.5z" />
<glyph unicode="&#xab;" horiz-adv-x="1142" d="M72 569q-15 27 4 49l332 408q17 21 43 21h225q23 0 29 -13.5t-9 -32.5l-340 -405l193 -408q16 -43 -29 -43h-219q-28 0 -43 27zM532 569q-15 26 5 49l331 408q18 21 43 21h226q23 0 29 -13.5t-9 -32.5l-340 -405l193 -408q16 -43 -29 -43h-219q-28 0 -43 27z" />
<glyph unicode="&#xac;" d="M168 623l35 198q3 31 37 31h880q37 0 31 -39l-92 -518q-1 -15 -11.5 -24t-25.5 -9h-197q-36 0 -30 39l51 283h-647q-17 0 -25.5 11t-5.5 28z" />
<glyph unicode="&#xad;" horiz-adv-x="790" d="M106 512l37 209q7 33 37 33h500q17 0 25.5 -11t5.5 -28l-37 -211q-6 -31 -37 -31h-500q-17 0 -25.5 11t-5.5 28z" />
<glyph unicode="&#xae;" horiz-adv-x="972" d="M166 1075q36 193 171 304.5t316 111.5q79 0 147.5 -30.5t116.5 -85.5t68.5 -138.5t3.5 -181.5q-35 -195 -168.5 -305.5t-320.5 -110.5q-77 0 -145 31t-116.5 86t-69 138.5t-3.5 180.5zM262 1069q-28 -160 46.5 -250t211.5 -90q138 0 242.5 90t132.5 248 q28 161 -46.5 248.5t-211.5 87.5q-136 0 -242 -89t-133 -245zM403 877l68 391q3 14 16 14h146q68 0 105 -35.5t24 -103.5q-9 -54 -42 -86.5t-79 -40.5l78 -139q8 -13 -8 -13h-70q-13 0 -18 10l-68 136h-43l-23 -133q-3 -13 -16 -13h-57q-16 0 -13 13zM526 1090h68 q72 0 80 57q4 27 -11.5 40t-44.5 13h-73z" />
<glyph unicode="&#xaf;" horiz-adv-x="620" d="M137 1292l27 142q1 15 11.5 23.5t25.5 8.5h538q17 0 25.5 -11t5.5 -28l-27 -141q-7 -33 -36 -33h-537q-18 0 -27 10.5t-6 28.5z" />
<glyph unicode="&#xb0;" horiz-adv-x="768" d="M170 1165q27 151 132 233.5t249 82.5q140 0 214 -88.5t48 -239.5q-26 -150 -130 -237t-249 -87q-139 0 -214.5 92.5t-49.5 243.5zM360 1159q-11 -69 20.5 -103t90.5 -34q57 0 99 34.5t55 102.5q10 65 -20 97t-87 32q-59 0 -103 -32.5t-55 -96.5z" />
<glyph unicode="&#xb1;" d="M96 100l33 187q6 32 37 32h881q35 0 32 -38l-32 -187q-6 -33 -37 -33h-883q-38 0 -31 39zM209 778l39 209q6 31 37 31h305l51 287q6 32 39 32h201q37 0 30 -39l-49 -280h301q37 0 31 -39l-37 -209q-6 -31 -37 -31h-307l-49 -282q-1 -15 -11.5 -24t-25.5 -9h-201 q-18 0 -26.5 10.5t-5.5 28.5l49 276h-303q-17 0 -25.5 11t-5.5 28z" />
<glyph unicode="&#xb2;" horiz-adv-x="655" d="M100 879l19 110q6 25 24 41l254 201q134 108 144 166q12 61 -58 61q-71 0 -151 -55q-33 -27 -51 10l-48 88q-12 30 13 49q133 95 274 95q123 0 185.5 -73t44.5 -177q-10 -62 -53 -121t-136 -144q-53 -47 -131 -96h229q37 0 31 -39l-22 -123q-1 -15 -11.5 -23.5 t-25.5 -8.5h-498q-18 0 -27 10.5t-6 28.5z" />
<glyph unicode="&#xb3;" horiz-adv-x="671" d="M113 942q-20 23 2 49l86 92q25 25 51 -2q59 -55 141 -55q114 0 133 98q7 41 -17 63.5t-77 22.5q-17 0 -49 -4q-37 -6 -43 27l-10 41q-6 26 16 45l49 49q67 60 109 86h-240q-37 0 -31 39l21 109q3 32 37 32h463q38 0 32 -39l-12 -73q-5 -23 -26 -41l-189 -156q20 0 43 -4 q70 -16 105.5 -74.5t19.5 -152.5q-23 -125 -116.5 -195t-233.5 -70q-166 0 -264 113z" />
<glyph unicode="&#xb4;" horiz-adv-x="557" d="M151.5 1232q-5.5 13 8.5 30l219 270q17 20 45 20h213q23 0 29 -14t-11 -31l-272 -270q-15 -18 -43 -18h-160q-23 0 -28.5 13z" />
<glyph unicode="&#xb6;" horiz-adv-x="1480" d="M125 963q39 218 206.5 359.5t407.5 141.5h713q17 0 26 -10.5t7 -28.5l-295 -1677q-3 -33 -37 -33h-217q-17 0 -25.5 11t-5.5 28l248 1417h-209l-250 -1423q-7 -33 -37 -33h-215q-18 0 -26.5 10.5t-5.5 28.5l120 676q-146 0 -248 70.5t-142.5 191.5t-14.5 271z" />
<glyph unicode="&#xb7;" horiz-adv-x="514" d="M94 672q14 72 66 115.5t127 43.5q85 0 129.5 -57.5t29.5 -146.5q-12 -71 -64 -115.5t-130 -44.5q-83 0 -128 59t-30 146z" />
<glyph unicode="&#xb8;" horiz-adv-x="362" d="M-156 -373l9 68q5 31 43 22q27 -6 57 -6q106 0 115 62q3 22 -13 35.5t-55 17.5q-31 3 -43 27q-3 3 12 28l58 105q12 24 43 24h71q21 0 28.5 -13t-3.5 -30l-37 -59q76 -8 116 -56.5t27 -119.5q-13 -79 -85.5 -120.5t-194.5 -41.5q-72 0 -121 16q-30 6 -27 41z" />
<glyph unicode="&#xb9;" horiz-adv-x="491" d="M178 1456q-14 31 15 47l194 119q21 12 45 12h129q36 0 33 -39l-129 -723q-6 -32 -39 -32h-131q-36 0 -33 39l90 510l-76 -48q-31 -19 -47 13z" />
<glyph unicode="&#xbb;" horiz-adv-x="1140" d="M-2.5 158q-6.5 13 8.5 32l340 406l-192 408q-16 43 28 43h219q28 0 43 -27l187 -397q15 -28 -4 -50l-332 -407q-17 -21 -43 -21h-225q-23 0 -29.5 13zM458 158q-6 13 9 32l340 406l-193 408q-16 43 29 43h219q28 0 43 -27l187 -397q15 -27 -5 -50l-331 -407 q-18 -21 -43 -21h-226q-23 0 -29 13z" />
<glyph unicode="&#xbc;" horiz-adv-x="1773" d="M188 1286q-16 29 13 47l196 119q21 12 43 12h129q18 0 27 -10.5t6 -28.5l-129 -723q-3 -32 -39 -32h-131q-38 0 -31 39l90 510l-77 -48q-30 -20 -47 13zM197 12q-6 12 6 31l1073 1399q16 22 43 22h139q22 0 28.5 -12t-5.5 -31l-1071 -1398q-17 -23 -43 -23h-142 q-22 0 -28 12zM1006 172l18 107q2 19 16 43l306 450q14 23 45 23h139q22 0 28 -12t-6 -31l-288 -430h137l31 120q6 29 38 29h121q17 0 26 -10.5t7 -28.5l-20 -110h43q15 0 22 -11t4 -28l-20 -117q-6 -33 -39 -33h-45l-17 -100q-6 -33 -39 -33h-135q-17 0 -25 10.5t-5 28.5 l16 94h-326q-18 0 -26.5 10.5t-5.5 28.5z" />
<glyph unicode="&#xbd;" horiz-adv-x="1685" d="M172.5 12q-6.5 12 5.5 31l1073 1399q17 22 43 22h140q22 0 28 -12t-6 -31l-1071 -1398q-17 -23 -43 -23h-141q-22 0 -28.5 12zM186 1286q-16 29 13 47l196 119q21 12 43 12h129q18 0 27 -10.5t6 -28.5l-129 -723q-3 -32 -39 -32h-131q-38 0 -31 39l90 510l-77 -48 q-30 -20 -47 13zM952 39l19 111q5 24 24 40l254 201q134 108 144 166q12 61 -58 61q-71 0 -151 -55q-36 -28 -51 10l-48 89q-13 32 13 49q131 94 274 94q123 0 185.5 -73t44.5 -177q-10 -62 -53 -120.5t-136 -143.5q-63 -54 -131 -96h227q39 0 33 -39l-22 -123 q-7 -33 -39 -33h-496q-18 0 -27 10.5t-6 28.5z" />
<glyph unicode="&#xbe;" horiz-adv-x="1910" d="M113 774q-20 23 2 49l86 90q23 25 51 0q57 -57 141 -57q114 0 133 98q7 42 -17 64t-77 22q-33 0 -49 -4q-37 -6 -43 27l-10 41q-6 25 16 47l148 135h-230q-37 0 -31 39l21 109q3 30 37 30h463q38 0 32 -39l-12 -71q-6 -27 -26 -41l-189 -156q20 0 43 -6q70 -16 106 -74 t19 -151q-23 -125 -116.5 -196t-233.5 -71q-165 0 -264 115zM354.5 12q-6.5 12 5.5 31l1074 1399q16 22 43 22h139q22 0 28 -12t-6 -31l-1071 -1398q-17 -23 -43 -23h-141q-22 0 -28.5 12zM1149 172l18 107q2 16 17 43l305 450q14 23 45 23h139q22 0 28.5 -12t-5.5 -31 l-289 -430h137l31 120q6 29 39 29h121q35 0 32 -39l-20 -110h43q15 0 22.5 -11t4.5 -28l-21 -117q-6 -33 -39 -33h-45l-16 -100q-6 -33 -39 -33h-135q-17 0 -25.5 11t-5.5 28l16 94h-325q-18 0 -27 10.5t-6 28.5z" />
<glyph unicode="&#xbf;" horiz-adv-x="1007" d="M-31 -139q-15 72 2 164q12 71 40 126.5t63 90.5t75.5 64t80.5 54.5t74.5 52.5t61 67t37.5 91l7 41q3 21 34 21h220q37 0 30 -39l-12 -78q-12 -65 -39.5 -117.5t-63 -86t-76.5 -61.5t-81 -52.5t-74 -50t-59 -61.5t-33 -81q-13 -69 23.5 -113.5t134.5 -44.5q142 0 288 113 q14 13 27 10t21 -20l75 -168q13 -30 -10 -47q-192 -154 -442 -154q-73 0 -138.5 16.5t-121.5 51t-92.5 87t-51.5 124.5zM426 934q12 70 64.5 115t125.5 45q83 0 128 -58.5t28 -144.5q-12 -72 -63.5 -116t-126.5 -44q-82 0 -126.5 57.5t-29.5 145.5z" />
<glyph unicode="&#xc0;" d="M-76 11.5q-7 11.5 2 31.5l682 1395q12 26 41 26h299q33 0 39 -32l211 -1395q6 -37 -33 -37h-256q-34 0 -37 33l-28 239h-461l-111 -245q-9 -27 -41 -27h-280q-20 0 -27 11.5zM507 1905q6 12 28 12h217q30 0 43 -25l145 -266q9 -19 2 -31t-27 -12h-167q-28 0 -43 21 l-191 270q-13 19 -7 31zM512 563h299q-8 86 -28 279.5t-27 265.5h-8q-158 -375 -236 -545z" />
<glyph unicode="&#xc1;" d="M-76 11.5q-7 11.5 2 31.5l682 1395q12 26 41 26h299q33 0 39 -32l211 -1395q6 -37 -33 -37h-256q-34 0 -37 33l-28 239h-461l-111 -245q-9 -27 -41 -27h-280q-20 0 -27 11.5zM512 563h299q-8 86 -28 279.5t-27 265.5h-8q-158 -375 -236 -545zM669.5 1596q-5.5 13 8.5 32 l235 268q18 21 43 21h230q23 0 29 -14t-11 -31l-291 -273q-19 -16 -41 -16h-174q-23 0 -28.5 13z" />
<glyph unicode="&#xc2;" d="M-76 11.5q-7 11.5 2 31.5l682 1395q12 26 41 26h299q33 0 39 -32l211 -1395q6 -37 -33 -37h-256q-34 0 -37 33l-28 239h-461l-111 -245q-9 -27 -41 -27h-280q-20 0 -27 11.5zM453 1585q-5 14 10 31l274 270q19 19 43 19h191q29 0 43 -23l174 -268q10 -19 3.5 -31 t-26.5 -12h-204q-30 0 -43 24l-72 131l-121 -135q-20 -20 -43 -20h-201q-23 0 -28 14zM512 563h299q-8 86 -28 279.5t-27 265.5h-8q-158 -375 -236 -545z" />
<glyph unicode="&#xc3;" d="M-76 11.5q-7 11.5 2 31.5l682 1395q12 26 41 26h299q33 0 39 -32l211 -1395q6 -37 -33 -37h-256q-34 0 -37 33l-28 239h-461l-111 -245q-9 -27 -41 -27h-280q-20 0 -27 11.5zM445 1675.5q-4 12.5 4 26.5q38 71 101 124.5t138 53.5q51 0 152 -45q84 -35 106 -35 q39 0 78 45q22 25 49 10l105 -65q30 -17 14 -43q-40 -72 -104.5 -127t-135.5 -55q-15 0 -30 2.5t-34.5 9t-28 9.5t-33.5 14t-27 12q-80 33 -107 33q-41 0 -78 -46q-22 -25 -49 -10l-102 66q-14 8 -18 20.5zM512 563h299q-8 86 -28 279.5t-27 265.5h-8q-158 -375 -236 -545z " />
<glyph unicode="&#xc4;" d="M-74 11.5q-7 11.5 2 31.5l682 1395q12 26 41 26h299q33 0 39 -32l211 -1395q6 -37 -33 -37h-256q-34 0 -37 33l-28 239h-461l-111 -245q-9 -27 -41 -27h-280q-20 0 -27 11.5zM475 1720q11 66 58.5 108t113.5 42q67 0 101.5 -45t23.5 -109q-12 -68 -59 -108.5t-113 -40.5 q-68 0 -101 45t-24 108zM514 563h299q-8 86 -28 279.5t-27 265.5h-8q-158 -375 -236 -545zM909 1720q11 68 58 109t114 41t100.5 -44.5t24.5 -109.5q-11 -68 -58 -108.5t-114 -40.5q-70 0 -103 45t-22 108z" />
<glyph unicode="&#xc5;" d="M-76 11.5q-7 11.5 2 31.5l682 1395q12 26 41 26h299q33 0 39 -32l211 -1395q6 -37 -33 -37h-256q-34 0 -37 33l-28 239h-461l-111 -245q-9 -27 -41 -27h-280q-20 0 -27 11.5zM512 563h299q-8 86 -28 279.5t-27 265.5h-8q-158 -375 -236 -545zM586 1798q22 107 105 167 t216 60q110 0 178 -73.5t48 -175.5q-22 -109 -105.5 -169.5t-214.5 -60.5q-114 0 -181.5 73.5t-45.5 178.5zM762 1786q-8 -41 13.5 -63.5t68.5 -22.5q43 0 73 23t37 63t-14 62t-66 22q-43 0 -74 -22.5t-38 -61.5z" />
<glyph unicode="&#xc6;" horiz-adv-x="1808" d="M-92.5 12q-6.5 12 4.5 31l876 1399q14 22 43 22h988q18 0 26.5 -10.5t5.5 -28.5l-39 -219q-6 -32 -36 -32h-529l-51 -291h461q17 0 25.5 -11t5.5 -28l-35 -213q-6 -33 -37 -33h-467l-53 -307h551q38 0 32 -39l-41 -219q-3 -33 -36 -33h-844q-39 0 -33 39l45 244h-346 l-154 -258q-16 -25 -43 -25h-293q-20 0 -26.5 12zM590 573h231l101 560h-9z" />
<glyph unicode="&#xc7;" horiz-adv-x="1167" d="M104 559l72 416q29 168 119 285t223 174t301 57q117 0 222 -37t182 -102q28 -18 4 -49l-150 -177q-18 -24 -49 -6q-109 74 -237 74q-120 0 -194 -67.5t-93 -184.5l-72 -414q-20 -124 33.5 -190t173.5 -66q71 0 148 24t141 66q32 19 49 -14l96 -201q14 -32 -6 -43 q-194 -118 -432 -129l-45 -81q77 -7 116 -51.5t31 -110.5q-20 -181 -293 -181q-66 0 -116 17q-28 6 -25 41l10 72q3 18 13.5 22.5t29.5 -0.5q27 -6 58 -6q96 0 110 59q5 23 -11 37.5t-58 18.5q-32 3 -43 26q-3 5 12 29l59 113q-213 28 -317 180.5t-62 398.5z" />
<glyph unicode="&#xc8;" horiz-adv-x="1171" d="M57 39l248 1393q6 32 37 32h842q18 0 27 -10.5t6 -28.5l-39 -221q-7 -33 -37 -33h-557l-52 -284h488q37 0 31 -39l-39 -215q-7 -33 -37 -33h-494l-53 -305h580q35 0 32 -39l-36 -223q-6 -33 -39 -33h-875q-36 0 -33 39zM484.5 1905q5.5 12 27.5 12h217q31 0 43 -25 l146 -266q9 -19 2 -31t-27 -12h-168q-28 0 -43 21l-190 270q-13 19 -7.5 31z" />
<glyph unicode="&#xc9;" horiz-adv-x="1171" d="M57 39l248 1393q6 32 37 32h842q18 0 27 -10.5t6 -28.5l-39 -221q-7 -33 -37 -33h-557l-52 -284h488q37 0 31 -39l-39 -215q-7 -33 -37 -33h-494l-53 -305h580q35 0 32 -39l-36 -223q-6 -33 -39 -33h-875q-36 0 -33 39zM633 1576q-6 13 8 32l236 268q17 20 43 20h229 q23 0 29 -14t-11 -31l-290 -272q-19 -16 -41 -16h-174q-23 0 -29 13z" />
<glyph unicode="&#xca;" horiz-adv-x="1171" d="M57 39l248 1393q6 32 37 32h842q18 0 27 -10.5t6 -28.5l-39 -221q-7 -33 -37 -33h-557l-52 -284h488q37 0 31 -39l-39 -215q-7 -33 -37 -33h-494l-53 -305h580q35 0 32 -39l-36 -223q-6 -33 -39 -33h-875q-36 0 -33 39zM412 1589q-5 14 10 31l274 270q19 19 43 19h191 q29 0 43 -23l174 -268q10 -19 3.5 -31t-26.5 -12h-204q-30 0 -43 24l-72 132l-121 -136q-20 -20 -43 -20h-201q-23 0 -28 14z" />
<glyph unicode="&#xcb;" horiz-adv-x="1171" d="M57 39l248 1393q6 32 37 32h842q18 0 27 -10.5t6 -28.5l-39 -221q-7 -33 -37 -33h-557l-52 -284h488q37 0 31 -39l-39 -215q-7 -33 -37 -33h-494l-53 -305h580q35 0 32 -39l-36 -223q-6 -33 -39 -33h-875q-36 0 -33 39zM449 1720q11 66 58.5 108t113.5 42q67 0 101 -45 t23 -109q-12 -68 -59 -108.5t-113 -40.5q-68 0 -100.5 45t-23.5 108zM883 1720q11 68 58 109t114 41t100.5 -44.5t24.5 -109.5q-11 -68 -58 -108.5t-114 -40.5q-70 0 -103 45t-22 108z" />
<glyph unicode="&#xcc;" horiz-adv-x="614" d="M57 39l246 1393q6 32 39 32h252q18 0 27 -10.5t6 -28.5l-246 -1392q-7 -33 -37 -33h-254q-17 0 -26 10.5t-7 28.5zM201.5 1886q5.5 12 27.5 12h217q31 0 43 -24l146 -266q9 -19 2 -31t-27 -12h-168q-29 0 -43 20l-190 270q-13 19 -7.5 31z" />
<glyph unicode="&#xcd;" horiz-adv-x="614" d="M57 39l246 1393q6 32 39 32h252q18 0 27 -10.5t6 -28.5l-246 -1392q-7 -33 -37 -33h-254q-17 0 -26 10.5t-7 28.5zM346 1580q-6 13 8 32l236 268q18 21 43 21h229q23 0 29.5 -14.5t-10.5 -31.5l-291 -272q-19 -16 -41 -16h-174q-23 0 -29 13z" />
<glyph unicode="&#xce;" horiz-adv-x="614" d="M57 39l246 1393q6 32 39 32h252q18 0 27 -10.5t6 -28.5l-246 -1392q-7 -33 -37 -33h-254q-36 0 -33 39zM152 1568q-5 14 10 31l268 281q18 18 43 18h143q28 0 41 -24l166 -277q11 -17 4.5 -30t-26.5 -13h-191q-31 0 -43 27l-49 102l-98 -108q-18 -21 -43 -21h-197 q-23 0 -28 14z" />
<glyph unicode="&#xcf;" horiz-adv-x="614" d="M57 39l246 1393q6 32 39 32h252q18 0 27 -10.5t6 -28.5l-246 -1392q-7 -33 -37 -33h-254q-17 0 -26 10.5t-7 28.5zM168 1720q11 66 58.5 108t113.5 42q67 0 101.5 -45t23.5 -109q-12 -68 -59 -108.5t-113 -40.5q-68 0 -101 45t-24 108zM578 1720q12 68 59 109t113 41 q68 0 101.5 -44.5t22.5 -109.5q-9 -67 -56.5 -108t-115.5 -41q-69 0 -101.5 44.5t-22.5 108.5z" />
<glyph unicode="&#xd0;" horiz-adv-x="1355" d="M39 686l22 127q6 31 39 31h125l107 588q3 32 37 32h483q114 0 207.5 -34.5t161.5 -106t92 -182t0 -262.5l-58 -338q-26 -149 -81.5 -254.5t-140 -167.5t-189 -90.5t-238.5 -28.5h-489q-17 0 -25.5 11t-5.5 28l107 610h-123q-37 0 -31 37zM455 297h204q109 0 175 62 t90 196l63 365q23 130 -20 188.5t-152 58.5h-207l-57 -323h186q37 0 31 -39l-23 -125q-3 -31 -36 -31h-191z" />
<glyph unicode="&#xd1;" horiz-adv-x="1402" d="M57 39l246 1393q1 15 11.5 23.5t25.5 8.5h270q35 0 41 -28l162 -486q66 -211 127 -440l10 2q29 261 82 567l62 353q6 32 36 32h250q18 0 27 -10.5t6 -28.5l-246 -1392q-7 -33 -39 -33h-268q-29 0 -41 29l-162 434q-40 105 -80 246.5t-61 240.5l-8 -4q-34 -371 -78 -606 l-53 -307q-7 -33 -37 -33h-252q-17 0 -25.5 11t-5.5 28zM526.5 1687.5q-4.5 12.5 3.5 26.5q38 71 101.5 124.5t138.5 53.5q51 0 152 -45q84 -35 106 -35q38 0 78 46q22 25 49 10l105 -66q30 -17 14 -43q-40 -72 -104.5 -127t-135.5 -55q-15 0 -30 2.5t-34.5 9t-28 9.5 t-33.5 14t-27 12q-80 33 -107 33q-42 0 -78 -45q-22 -25 -49 -10l-102 65q-14 8 -18.5 20.5z" />
<glyph unicode="&#xd2;" horiz-adv-x="1343" d="M109 592l63 362q44 252 219 394.5t443 142.5q262 0 390.5 -164.5t82.5 -441.5l-64 -363q-44 -263 -218.5 -406t-451.5 -143q-260 0 -386 171.5t-78 447.5zM434 555q-22 -129 26.5 -206t160.5 -77q120 0 195 71t97 198l66 374q22 126 -26 201.5t-162 75.5 q-120 0 -192.5 -69t-96.5 -197zM566 1905q6 12 28 12h217q31 0 43 -25l145 -266q9 -19 2.5 -31t-26.5 -12h-168q-28 0 -43 21l-191 270q-13 19 -7 31z" />
<glyph unicode="&#xd3;" horiz-adv-x="1343" d="M109 592l63 362q44 252 219 394.5t443 142.5q262 0 390.5 -164.5t82.5 -441.5l-64 -363q-44 -263 -218.5 -406t-451.5 -143q-260 0 -386 171.5t-78 447.5zM434 555q-22 -129 26.5 -206t160.5 -77q120 0 195 71t97 198l66 374q22 126 -26 201.5t-162 75.5 q-120 0 -192.5 -69t-96.5 -197zM704.5 1598q-5.5 13 8.5 32l235 268q18 21 43 21h230q23 0 29 -14t-11 -31l-291 -272q-20 -17 -41 -17h-174q-23 0 -28.5 13z" />
<glyph unicode="&#xd4;" horiz-adv-x="1343" d="M109 592l63 362q44 252 219 394.5t443 142.5q262 0 390.5 -164.5t82.5 -441.5l-64 -363q-44 -263 -218.5 -406t-451.5 -143q-260 0 -386 171.5t-78 447.5zM434 555q-22 -129 26.5 -206t160.5 -77q120 0 195 71t97 198l66 374q22 126 -26 201.5t-162 75.5 q-120 0 -192.5 -69t-96.5 -197zM488 1581q-5 14 10 31l274 270q19 19 43 19h191q29 0 43 -23l174 -268q10 -19 3.5 -31t-26.5 -12h-205q-30 0 -43 24l-71 131l-121 -135q-20 -20 -43 -20h-201q-23 0 -28 14z" />
<glyph unicode="&#xd5;" horiz-adv-x="1343" d="M109 592l63 362q44 252 219 394.5t443 142.5q262 0 390.5 -164.5t82.5 -441.5l-64 -363q-44 -263 -218.5 -406t-451.5 -143q-260 0 -386 171.5t-78 447.5zM434 555q-22 -129 26.5 -206t160.5 -77q120 0 195 71t97 198l66 374q22 126 -26 201.5t-162 75.5 q-120 0 -192.5 -69t-96.5 -197zM490 1695.5q-4 12.5 4 26.5q38 71 101.5 125t137.5 54q10 0 21 -1.5t19.5 -3t20.5 -5t18.5 -5.5t19.5 -7.5t17.5 -7.5t18.5 -8.5t17 -7.5q81 -34 106 -34q39 0 78 45q22 25 49 10l105 -66q30 -17 14 -43q-40 -72 -104.5 -127t-135.5 -55 q-15 0 -30 2.5t-34.5 9t-28 9.5t-33.5 14t-27 12q-80 33 -107 33q-42 0 -78 -45q-22 -25 -49 -10l-102 65q-14 8 -18 20.5z" />
<glyph unicode="&#xd6;" horiz-adv-x="1343" d="M109 592l63 362q44 252 219 394.5t443 142.5q262 0 390.5 -164.5t82.5 -441.5l-64 -363q-44 -263 -218.5 -406t-451.5 -143q-260 0 -386 171.5t-78 447.5zM434 555q-22 -129 26.5 -206t160.5 -77q120 0 195 71t97 198l66 374q22 126 -26 201.5t-162 75.5 q-120 0 -192.5 -69t-96.5 -197zM514 1739q11 66 58.5 107.5t113.5 41.5q67 0 101.5 -44.5t23.5 -108.5q-12 -68 -59 -109t-113 -41q-68 0 -101 45.5t-24 108.5zM948 1739q11 68 58 108.5t114 40.5t100.5 -44t24.5 -109q-11 -68 -58 -109t-114 -41q-70 0 -103 45t-22 109z " />
<glyph unicode="&#xd7;" d="M125 328q-18 27 6 51l348 307l-237 303q-20 30 4 51l172 152q27 24 49 -4l238 -303l346 307q12 12 26 11t25 -15l119 -150q22 -26 -4 -49l-351 -311l236 -301q20 -30 -4 -49l-172 -152q-12 -12 -26 -11.5t-23 13.5l-236 301l-344 -303q-28 -25 -51 4z" />
<glyph unicode="&#xd8;" horiz-adv-x="1343" d="M19.5 -119q-5.5 12 7.5 31l153 240q-118 169 -71 440l63 362q44 252 219 394.5t443 142.5q127 0 223 -41l69 104q12 25 43 25h177q22 0 27.5 -12t-7.5 -31l-141 -213q129 -163 82 -438l-64 -363q-44 -263 -218.5 -406t-451.5 -143q-122 0 -227 43l-80 -122 q-12 -25 -43 -25h-176q-22 0 -27.5 12zM434 555q-22 -129 26.5 -206t160.5 -77q120 0 195 71t97 198l66 374q22 126 -26 201.5t-162 75.5q-120 0 -192.5 -69t-96.5 -197z" />
<glyph unicode="&#xd9;" horiz-adv-x="1361" d="M139 582l152 850q6 32 37 32h258q18 0 26.5 -10.5t5.5 -28.5l-157 -880q-23 -131 24.5 -200t149.5 -69q104 0 172.5 64t91.5 190l156 902q6 32 37 32h258q35 0 32 -39l-159 -919q-44 -255 -204 -393t-431 -138q-252 0 -374 162.5t-75 444.5zM562 1905q6 12 28 12h217 q31 0 43 -25l145 -266q9 -19 2.5 -31t-26.5 -12h-168q-28 0 -43 21l-191 270q-13 19 -7 31z" />
<glyph unicode="&#xda;" horiz-adv-x="1361" d="M139 582l152 850q6 32 37 32h258q18 0 26.5 -10.5t5.5 -28.5l-157 -880q-23 -131 24.5 -200t149.5 -69q104 0 172.5 64t91.5 190l156 902q6 32 37 32h258q35 0 32 -39l-159 -919q-44 -255 -204 -393t-431 -138q-252 0 -374 162.5t-75 444.5zM710.5 1588q-5.5 13 8.5 32 l235 268q18 21 43 21h230q23 0 29 -14t-11 -31l-291 -273q-19 -16 -41 -16h-174q-23 0 -28.5 13z" />
<glyph unicode="&#xdb;" horiz-adv-x="1361" d="M139 582l152 850q6 32 37 32h258q18 0 26.5 -10.5t5.5 -28.5l-157 -880q-23 -131 24.5 -200t149.5 -69q104 0 172.5 64t91.5 190l156 902q6 32 37 32h258q35 0 32 -39l-159 -919q-44 -255 -204 -393t-431 -138q-252 0 -374 162.5t-75 444.5zM494 1597q-5 14 10 31 l274 270q19 19 43 19h191q29 0 43 -23l174 -268q10 -19 3.5 -31t-26.5 -12h-205q-29 0 -43 25l-71 131l-121 -135q-21 -21 -43 -21h-201q-23 0 -28 14z" />
<glyph unicode="&#xdc;" horiz-adv-x="1361" d="M139 582l152 850q6 32 37 32h258q18 0 26.5 -10.5t5.5 -28.5l-157 -880q-23 -131 24.5 -200t149.5 -69q104 0 172.5 64t91.5 190l156 902q6 32 37 32h258q35 0 32 -39l-159 -919q-44 -255 -204 -393t-431 -138q-252 0 -374 162.5t-75 444.5zM526 1759q11 66 58.5 108 t113.5 42q67 0 101.5 -45t23.5 -109q-12 -68 -59 -108.5t-113 -40.5q-68 0 -101 45t-24 108zM961 1759q11 68 58 109t114 41t100 -44.5t24 -109.5q-11 -68 -58 -108.5t-114 -40.5q-70 0 -102.5 44.5t-21.5 108.5z" />
<glyph unicode="&#xdd;" horiz-adv-x="1191" d="M160 1425q-6 17 1.5 28t26.5 11h267q31 0 37 -30l149 -605h4l348 611q15 24 41 24h283q20 0 26.5 -12t-4.5 -31l-579 -901l-92 -487q-6 -33 -37 -33h-256q-39 0 -33 39l90 487zM612.5 1580q-5.5 13 8.5 32l235 268q18 21 43 21h229q24 0 30 -14.5t-11 -31.5l-291 -272 q-19 -16 -41 -16h-174q-23 0 -28.5 13z" />
<glyph unicode="&#xde;" horiz-adv-x="1271" d="M57 39l246 1393q1 15 11.5 23.5t25.5 8.5h256q17 0 25.5 -11t5.5 -28l-29 -165h176q253 0 376 -151.5t81 -389.5q-39 -225 -192 -354t-394 -129h-231l-35 -203q-7 -33 -37 -33h-252q-36 0 -33 39zM467 530h184q109 0 172.5 57t81.5 163q17 105 -27.5 160t-152.5 55h-180z " />
<glyph unicode="&#xdf;" horiz-adv-x="1161" d="M23 39l180 1003q39 219 180 334t350 115q138 0 236.5 -64.5t138 -170t16.5 -228.5q-15 -81 -67 -153t-135 -105q93 -51 133 -144.5t16 -222.5q-35 -199 -167 -309t-326 -110q-82 0 -144 16q-33 9 -26 43l34 193q6 34 43 28q45 -10 82 -10q75 0 131 49t68 137 q13 83 -26 124.5t-119 41.5h-72q-39 0 -33 39l35 197q6 30 39 30h76q57 0 101 48.5t56 126.5q13 81 -21 127.5t-102 46.5q-157 0 -196 -205l-176 -983q-7 -33 -37 -33h-238q-36 0 -30 39z" />
<glyph unicode="&#xe0;" horiz-adv-x="1034" d="M14 360q50 287 465 287q92 0 174 -16l4 33q14 79 -16 117t-123 38q-145 0 -244 -47q-36 -16 -47 16l-63 168q-10 30 6 41q75 45 185 71t233 26q210 0 308.5 -131.5t57.5 -360.5l-92 -518q-7 -31 -31 -39q-205 -72 -425 -72q-212 0 -317.5 108.5t-74.5 278.5zM319 344 q-10 -57 23 -86t102 -29q63 0 142 17l28 178q-68 14 -131 14q-149 0 -164 -94zM340.5 1525q6.5 13 28.5 13h190q27 0 41 -27l129 -266q9 -19 2 -30t-26 -11h-142q-29 0 -43 23l-174 268q-12 17 -5.5 30z" />
<glyph unicode="&#xe1;" horiz-adv-x="1034" d="M14 360q50 287 465 287q92 0 174 -16l4 33q14 79 -16 117t-123 38q-145 0 -244 -47q-36 -16 -47 16l-63 168q-10 30 6 41q75 45 185 71t233 26q210 0 308.5 -131.5t57.5 -360.5l-92 -518q-7 -31 -31 -39q-205 -72 -425 -72q-212 0 -317.5 108.5t-74.5 278.5zM319 344 q-10 -57 23 -86t102 -29q63 0 142 17l28 178q-68 14 -131 14q-149 0 -164 -94zM450.5 1211q-5.5 13 8.5 30l219 270q18 21 45 21h213q23 0 29 -14t-11 -31l-272 -270q-16 -19 -43 -19h-160q-23 0 -28.5 13z" />
<glyph unicode="&#xe2;" horiz-adv-x="1034" d="M14 360q50 287 465 287q92 0 174 -16l4 33q14 79 -16 117t-123 38q-145 0 -244 -47q-36 -16 -47 16l-63 168q-10 30 6 41q75 45 185 71t233 26q210 0 308.5 -131.5t57.5 -360.5l-92 -518q-7 -31 -31 -39q-205 -72 -425 -72q-212 0 -317.5 108.5t-74.5 278.5zM252.5 1212 q-5.5 14 11.5 29l273 272q19 19 43 19h165q29 0 43 -25l170 -266q10 -19 3.5 -31t-27.5 -12h-174q-32 0 -43 25l-76 133l-129 -139q-19 -19 -45 -19h-184q-25 0 -30.5 14zM319 344q-10 -57 23 -86t102 -29q63 0 142 17l28 178q-68 14 -131 14q-149 0 -164 -94z" />
<glyph unicode="&#xe3;" horiz-adv-x="1034" d="M14 360q50 287 465 287q92 0 174 -16l4 33q14 79 -16 117t-123 38q-145 0 -244 -47q-36 -16 -47 16l-63 168q-10 30 6 41q75 45 185 71t233 26q210 0 308.5 -131.5t57.5 -360.5l-92 -518q-7 -31 -31 -39q-205 -72 -425 -72q-212 0 -317.5 108.5t-74.5 278.5zM264 1329 q26 43 57 78t81 63.5t104 28.5q61 0 149 -45q75 -35 107 -35q38 0 80 45q22 28 51 9l96 -66q31 -17 15 -43q-39 -69 -99 -120.5t-131 -51.5q-64 0 -156 47q-81 33 -108 33q-47 0 -86 -45q-27 -27 -49 -10l-96 63q-31 21 -15 49zM319 344q-10 -57 23 -86t102 -29q63 0 142 17 l28 178q-68 14 -131 14q-149 0 -164 -94z" />
<glyph unicode="&#xe4;" horiz-adv-x="1034" d="M14 360q50 287 465 287q92 0 174 -16l4 33q14 79 -16 117t-123 38q-145 0 -244 -47q-36 -16 -47 16l-63 168q-10 30 6 41q75 45 185 71t233 26q210 0 308.5 -131.5t57.5 -360.5l-92 -518q-7 -31 -31 -39q-205 -72 -425 -72q-212 0 -317.5 108.5t-74.5 278.5zM270 1358 q12 66 58 104.5t110 38.5t97 -43t20 -110q-12 -67 -56.5 -106.5t-107.5 -39.5t-98 43t-23 113zM319 344q-10 -57 23 -86t102 -29q63 0 142 17l28 178q-68 14 -131 14q-149 0 -164 -94zM696 1358q12 66 58 104.5t110 38.5q63 0 96.5 -43t20.5 -110q-12 -68 -55.5 -107 t-106.5 -39q-64 0 -99.5 42.5t-23.5 113.5z" />
<glyph unicode="&#xe5;" horiz-adv-x="1034" d="M14 360q50 287 465 287q92 0 174 -16l4 33q14 79 -16 117t-123 38q-145 0 -244 -47q-36 -16 -47 16l-63 168q-10 30 6 41q75 45 185 71t233 26q210 0 308.5 -131.5t57.5 -360.5l-92 -518q-7 -31 -31 -39q-205 -72 -425 -72q-212 0 -317.5 108.5t-74.5 278.5zM319 344 q-10 -57 23 -86t102 -29q63 0 142 17l28 178q-68 14 -131 14q-149 0 -164 -94zM385 1393q19 102 100 160.5t205 58.5q100 0 164 -66t47 -153q-22 -100 -102 -158.5t-199 -58.5q-102 0 -168 65.5t-47 151.5zM549 1393q-7 -37 15 -60.5t63 -23.5q42 0 70.5 23t37.5 61 q9 39 -12 61.5t-64 22.5q-41 0 -72 -22.5t-38 -61.5z" />
<glyph unicode="&#xe6;" horiz-adv-x="1599" d="M14 352q29 146 153.5 218.5t326.5 72.5q86 0 165 -14l7 39q31 161 -148 161q-129 0 -244 -59q-37 -16 -49 18l-67 166q-12 31 16 50q178 90 395 90q183 0 287 -123q132 123 320 123q130 0 223 -55t133.5 -159.5t15.5 -242.5l-32 -184q-1 -15 -11.5 -24t-25.5 -9h-564 l-6 -39q-9 -79 24 -115.5t118 -36.5q144 0 274 80q33 23 49 -10l76 -143q16 -32 -12 -50q-192 -131 -437 -131q-155 0 -256 82q-164 -82 -319 -82q-217 0 -331.5 104.5t-80.5 272.5zM315 340q-10 -54 26 -84.5t103 -30.5q97 0 177 37q-11 58 -5 131l7 29q-62 12 -136 12 q-149 0 -172 -94zM946 623h311l9 49q13 77 -21 119.5t-106 42.5t-121.5 -42.5t-61.5 -117.5z" />
<glyph unicode="&#xe7;" horiz-adv-x="923" d="M63 449l46 253q33 189 170.5 290.5t338.5 101.5q174 0 312 -99q26 -19 6 -49l-121 -155q-21 -24 -49 -7q-72 43 -158 43q-81 0 -129.5 -40.5t-62.5 -116.5l-43 -242q-18 -91 18 -139.5t113 -48.5q92 0 192 59q33 20 49 -12l80 -176q17 -33 -16 -50q-146 -82 -326 -88 l-30 -65q76 -8 116 -56.5t27 -119.5q-13 -79 -86 -120.5t-195 -41.5q-71 0 -120 16q-30 6 -27 41l8 68q5 31 43 22q27 -6 57 -6q106 0 115 62q3 22 -12.5 35.5t-54.5 17.5q-31 3 -43 27q-3 3 12 28l49 105q-158 33 -235 156.5t-44 306.5z" />
<glyph unicode="&#xe8;" horiz-adv-x="1062" d="M57 403l54 297q35 193 175 293.5t335 100.5q208 0 320 -112.5t73 -328.5l-35 -198q-6 -31 -37 -31h-569l-6 -29q-30 -162 141 -162q129 0 266 82q33 23 47 -10l84 -158q14 -35 -12 -49q-183 -125 -428 -125q-207 0 -324.5 117.5t-83.5 312.5zM375 1519q6 13 28 13h191 q28 0 41 -27l129 -266q9 -19 1.5 -30t-26.5 -11h-141q-29 0 -43 23l-174 268q-12 17 -6 30zM410 629h299l10 51q11 66 -20 110t-105 44q-67 0 -114 -39.5t-60 -110.5z" />
<glyph unicode="&#xe9;" horiz-adv-x="1062" d="M57 403l54 297q35 193 175 293.5t335 100.5q208 0 320 -112.5t73 -328.5l-35 -198q-6 -31 -37 -31h-569l-6 -29q-30 -162 141 -162q129 0 266 82q33 23 47 -10l84 -158q14 -35 -12 -49q-183 -125 -428 -125q-207 0 -324.5 117.5t-83.5 312.5zM410 629h299l10 51 q11 66 -20 110t-105 44q-67 0 -114 -39.5t-60 -110.5zM491.5 1211q-5.5 13 8.5 30l219 270q18 21 45 21h213q23 0 29 -14t-11 -31l-272 -270q-16 -19 -43 -19h-160q-23 0 -28.5 13z" />
<glyph unicode="&#xea;" horiz-adv-x="1062" d="M57 403l54 297q35 193 175 293.5t335 100.5q208 0 320 -112.5t73 -328.5l-35 -198q-6 -31 -37 -31h-569l-6 -29q-30 -162 141 -162q129 0 266 82q33 23 47 -10l84 -158q14 -35 -12 -49q-183 -125 -428 -125q-207 0 -324.5 117.5t-83.5 312.5zM291.5 1192q-5.5 14 11.5 29 l272 272q18 18 43 18h166q30 0 43 -24l170 -266q10 -19 3.5 -31t-27.5 -12h-174q-32 0 -43 24l-76 133l-129 -139q-18 -18 -45 -18h-184q-25 0 -30.5 14zM410 629h299l10 51q11 66 -20 110t-105 44q-67 0 -114 -39.5t-60 -110.5z" />
<glyph unicode="&#xeb;" horiz-adv-x="1062" d="M57 403l54 297q35 193 175 293.5t335 100.5q208 0 320 -112.5t73 -328.5l-35 -198q-6 -31 -37 -31h-569l-6 -29q-30 -162 141 -162q129 0 266 82q33 23 47 -10l84 -158q14 -35 -12 -49q-183 -125 -428 -125q-207 0 -324.5 117.5t-83.5 312.5zM319 1343q12 67 58 105.5 t110 38.5q63 0 96.5 -43.5t20.5 -110.5q-12 -67 -56.5 -106t-107.5 -39t-98 42.5t-23 112.5zM410 629h299l10 51q11 66 -20 110t-105 44q-67 0 -114 -39.5t-60 -110.5zM745 1343q12 67 58 105.5t110 38.5q63 0 96.5 -43.5t20.5 -110.5q-12 -67 -55.5 -106t-106.5 -39 q-64 0 -99.5 42t-23.5 113z" />
<glyph unicode="&#xec;" horiz-adv-x="528" d="M23 39l176 995q6 31 39 31h237q18 0 27 -10t6 -27l-178 -995q-7 -33 -37 -33h-238q-17 0 -26 11t-6 28zM100.5 1511q6.5 13 28.5 13h190q27 0 41 -27l129 -266q9 -19 2 -30t-26 -11h-141q-29 0 -43 22l-175 269q-12 17 -5.5 30z" />
<glyph unicode="&#xed;" horiz-adv-x="528" d="M23 39l176 995q6 31 39 31h237q18 0 27 -10t6 -27l-178 -995q-7 -33 -37 -33h-238q-17 0 -26 11t-6 28zM225 1199q-6 13 8 30l220 270q18 21 45 21h213q23 0 29 -14t-11 -31l-272 -271q-15 -18 -43 -18h-160q-23 0 -29 13z" />
<glyph unicode="&#xee;" horiz-adv-x="522" d="M23 39l176 989q3 33 37 33h231q17 0 26.5 -11t6.5 -28l-176 -989q-7 -33 -39 -33h-230q-18 0 -26.5 10.5t-5.5 28.5zM38 1187q-6 13 11 32l266 278q16 19 45 19h162q25 0 43 -25l162 -274q10 -17 2.5 -30t-27.5 -13h-186q-29 0 -41 24l-65 131l-119 -135q-17 -20 -43 -20 h-180q-24 0 -30 13z" />
<glyph unicode="&#xef;" horiz-adv-x="528" d="M23 39l176 995q6 31 39 31h237q18 0 27 -10t6 -27l-178 -995q-7 -33 -37 -33h-238q-17 0 -26 11t-6 28zM66 1339q12 67 57.5 105.5t109.5 38.5q63 0 96.5 -43.5t20.5 -110.5q-12 -68 -56 -106.5t-108 -38.5q-63 0 -97.5 42.5t-22.5 112.5zM469 1339q12 67 58 105.5 t110 38.5q63 0 96.5 -43.5t20.5 -110.5q-12 -67 -55.5 -106t-106.5 -39q-64 0 -99.5 42t-23.5 113z" />
<glyph unicode="&#xf0;" horiz-adv-x="1118" d="M55 434l31 170q28 160 157.5 265.5t305.5 105.5q79 0 144 -29t108 -78q3 157 -96 262l-138 -100q-28 -23 -49 8l-37 56q-20 30 11 51l92 67q-87 37 -191 37q-38 0 -35 39l33 182q5 33 37 33q236 0 401 -110l134 98q28 22 49 -10l35 -56q18 -28 -11 -51l-100 -74 q187 -217 119 -602l-54 -295q-35 -202 -179 -316t-369 -114q-92 0 -172.5 32t-138 89.5t-82 146t-5.5 193.5zM362 399q-27 -157 130 -157q78 0 128.5 40t63.5 115l25 142q15 79 -18 124.5t-109 45.5q-79 0 -130 -43t-65 -117z" />
<glyph unicode="&#xf1;" horiz-adv-x="1118" d="M20 39l168 936q7 26 31 37q216 82 416 82q228 0 332 -133t65 -355l-102 -573q-7 -33 -39 -33h-236q-35 0 -32 39l102 598q36 188 -129 188q-78 0 -131 -24l-135 -768q-6 -33 -39 -33h-238q-18 0 -27 10.5t-6 28.5zM315 1333q26 43 57 78t81 63.5t104 28.5q62 0 150 -45 q75 -35 106 -35q38 0 80 45q22 28 51 9l96 -66q31 -17 15 -43q-39 -69 -99 -120.5t-131 -51.5q-63 0 -155 47q-81 33 -109 33q-47 0 -86 -45q-27 -27 -49 -10l-96 63q-31 21 -15 49z" />
<glyph unicode="&#xf2;" horiz-adv-x="1095" d="M59 438l43 254q34 186 176 294t355 108q137 0 237 -62t142.5 -166.5t21.5 -228.5l-47 -258q-36 -195 -173 -300.5t-361 -105.5q-204 0 -316.5 134.5t-77.5 330.5zM367 408q-14 -76 17.5 -121t102.5 -45q79 0 128 40t61 113l47 262q12 72 -21 120t-104 48 q-73 0 -122.5 -41.5t-61.5 -111.5zM379.5 1519q6.5 13 28.5 13h190q28 0 41 -27l129 -266q9 -19 1.5 -30t-26.5 -11h-141q-29 0 -43 23l-174 268q-12 17 -5.5 30z" />
<glyph unicode="&#xf3;" horiz-adv-x="1095" d="M59 438l43 254q34 186 176 294t355 108q137 0 237 -62t142.5 -166.5t21.5 -228.5l-47 -258q-36 -195 -173 -300.5t-361 -105.5q-204 0 -316.5 134.5t-77.5 330.5zM367 408q-14 -76 17.5 -121t102.5 -45q79 0 128 40t61 113l47 262q12 72 -21 120t-104 48 q-73 0 -122.5 -41.5t-61.5 -111.5zM497.5 1211q-5.5 13 8.5 30l219 270q18 21 45 21h213q23 0 29 -14t-11 -31l-272 -270q-16 -19 -43 -19h-160q-23 0 -28.5 13z" />
<glyph unicode="&#xf4;" horiz-adv-x="1095" d="M59 438l43 254q34 186 176 294t355 108q137 0 237 -62t142.5 -166.5t21.5 -228.5l-47 -258q-36 -195 -173 -300.5t-361 -105.5q-204 0 -316.5 134.5t-77.5 330.5zM297.5 1192q-5.5 14 11.5 29l273 272q18 18 43 18h166q30 0 43 -24l170 -266q9 -19 2.5 -31t-27.5 -12 h-174q-32 0 -43 24l-76 133l-129 -139q-18 -18 -45 -18h-184q-25 0 -30.5 14zM367 408q-14 -76 17.5 -121t102.5 -45q79 0 128 40t61 113l47 262q12 72 -21 120t-104 48q-73 0 -122.5 -41.5t-61.5 -111.5z" />
<glyph unicode="&#xf5;" horiz-adv-x="1095" d="M59 438l43 254q34 186 176 294t355 108q137 0 237 -62t142.5 -166.5t21.5 -228.5l-47 -258q-36 -195 -173 -300.5t-361 -105.5q-204 0 -316.5 134.5t-77.5 330.5zM299 1317q26 43 57 78t81 63.5t104 28.5q61 0 149 -45q75 -35 107 -35q38 0 80 45q22 28 51 8l96 -65 q30 -17 14 -43q-39 -69 -98.5 -120.5t-130.5 -51.5q-64 0 -156 47q-81 33 -108 33q-46 0 -86 -46q-27 -27 -49 -10l-97 64q-30 20 -14 49zM367 408q-14 -76 17.5 -121t102.5 -45q79 0 128 40t61 113l47 262q12 72 -21 120t-104 48q-73 0 -122.5 -41.5t-61.5 -111.5z" />
<glyph unicode="&#xf6;" horiz-adv-x="1095" d="M59 438l43 254q34 186 176 294t355 108q137 0 237 -62t142.5 -166.5t21.5 -228.5l-47 -258q-36 -195 -173 -300.5t-361 -105.5q-204 0 -316.5 134.5t-77.5 330.5zM330 1343q12 67 58 105.5t110 38.5q63 0 96 -43.5t20 -110.5q-12 -67 -56 -106t-107 -39t-98 42.5 t-23 112.5zM367 408q-14 -76 17.5 -121t102.5 -45q79 0 128 40t61 113l47 262q12 72 -21 120t-104 48q-73 0 -122.5 -41.5t-61.5 -111.5zM756 1343q12 67 58 105.5t110 38.5q63 0 96 -43.5t20 -110.5q-12 -68 -55 -106.5t-106 -38.5q-64 0 -99.5 42t-23.5 113z" />
<glyph unicode="&#xf7;" d="M176 578l39 219q6 32 37 32h883q17 0 25 -10.5t5 -27.5l-39 -220q-3 -30 -36 -30h-883q-37 0 -31 37zM422 274q14 74 66 118t128 44q88 0 134.5 -57.5t29.5 -147.5q-14 -74 -67.5 -118.5t-128.5 -44.5q-88 0 -133.5 57.5t-28.5 148.5zM569 1135q14 74 66 118.5t127 44.5 q90 0 136.5 -58t29.5 -150q-13 -72 -67.5 -116t-129.5 -44q-88 0 -133.5 57.5t-28.5 147.5z" />
<glyph unicode="&#xf8;" horiz-adv-x="1097" d="M-10 -92l143 205q-109 132 -72 325l45 254q34 187 176.5 294.5t358.5 107.5q92 0 168 -31l88 121q17 20 45 20h145q48 0 21 -41l-145 -207q52 -63 72 -145.5t3 -173.5l-47 -258q-36 -195 -173 -300.5t-361 -105.5q-84 0 -172 31l-84 -117q-17 -20 -45 -20h-146 q-47 0 -20 41zM371 408q-14 -76 18.5 -121t102.5 -45q79 0 127.5 40t60.5 113l47 262q14 71 -19.5 119.5t-105.5 48.5q-73 0 -122.5 -41.5t-61.5 -111.5z" />
<glyph unicode="&#xf9;" horiz-adv-x="1107" d="M88 459l102 575q6 31 37 31h238q37 0 31 -37l-103 -600q-34 -186 125 -186q74 0 127 22l137 770q3 31 37 31h240q37 0 31 -37l-166 -936q-6 -28 -31 -37q-199 -80 -412 -80q-225 0 -328.5 132t-64.5 352zM377.5 1519q6.5 13 28.5 13h190q28 0 41 -27l129 -266 q9 -19 1.5 -30t-26.5 -11h-141q-29 0 -43 23l-174 268q-12 17 -5.5 30z" />
<glyph unicode="&#xfa;" horiz-adv-x="1107" d="M88 459l102 575q6 31 37 31h238q37 0 31 -37l-103 -600q-34 -186 125 -186q74 0 127 22l137 770q3 31 37 31h240q37 0 31 -37l-166 -936q-6 -28 -31 -37q-199 -80 -412 -80q-225 0 -328.5 132t-64.5 352zM526.5 1207q-5.5 13 8.5 30l219 270q18 21 45 21h213q23 0 29 -14 t-11 -31l-272 -271q-15 -18 -43 -18h-160q-23 0 -28.5 13z" />
<glyph unicode="&#xfb;" horiz-adv-x="1107" d="M88 459l102 575q6 31 37 31h238q37 0 31 -37l-103 -600q-34 -186 125 -186q74 0 127 22l137 770q3 31 37 31h240q37 0 31 -37l-166 -936q-6 -28 -31 -37q-199 -80 -412 -80q-225 0 -328.5 132t-64.5 352zM305.5 1212q-5.5 14 11.5 29l273 272q19 19 43 19h166 q29 0 43 -25l170 -266q9 -19 2.5 -31t-27.5 -12h-174q-32 0 -43 25l-76 133l-129 -139q-19 -19 -45 -19h-184q-25 0 -30.5 14z" />
<glyph unicode="&#xfc;" horiz-adv-x="1107" d="M88 459l102 575q6 31 37 31h238q37 0 31 -37l-103 -600q-34 -186 125 -186q74 0 127 22l137 770q3 31 37 31h240q37 0 31 -37l-166 -936q-6 -28 -31 -37q-199 -80 -412 -80q-225 0 -328.5 132t-64.5 352zM336 1348q12 66 58 104.5t110 38.5q63 0 96.5 -43.5t20.5 -110.5 q-12 -67 -56.5 -106t-107.5 -39t-98 43t-23 113zM762 1348q12 66 58 104.5t110 38.5q63 0 96.5 -43.5t20.5 -110.5q-12 -67 -55.5 -106t-106.5 -39q-64 0 -99.5 42.5t-23.5 113.5z" />
<glyph unicode="&#xfd;" horiz-adv-x="1103" d="M-20.5 -272q-0.5 14 8.5 26l127 162q19 27 51 8q92 -65 219 -65q98 0 150 47t69 153q-92 -30 -174 -30q-189 0 -283 128t-59 335l98 542q3 31 37 31h236q39 0 33 -37l-103 -565q-17 -88 16 -130t105 -42q77 0 137 35l125 708q6 31 39 31h236q35 0 32 -37l-164 -928 q-50 -276 -177 -395t-378 -119q-231 0 -368 119q-12 9 -12.5 23zM512 1193q-6 13 8 30l219 270q17 20 45 20h213q24 0 30 -14t-11 -31l-273 -270q-15 -18 -43 -18h-159q-23 0 -29 13z" />
<glyph unicode="&#xfe;" horiz-adv-x="1103" d="M-47 -354l315 1786q6 32 39 32h238q17 0 26 -10.5t7 -28.5l-66 -362q82 29 158 29q193 0 299 -135.5t71 -340.5l-41 -235q-31 -182 -161 -295t-312 -113q-116 0 -198 45l-68 -378q-1 -15 -11.5 -24t-25.5 -9h-237q-36 0 -33 39zM373 272q51 -39 131 -39q156 0 190 189 l37 227q17 95 -15 140t-116 45q-76 0 -135 -39z" />
<glyph unicode="&#xff;" horiz-adv-x="1103" d="M-20.5 -272q-0.5 14 8.5 26l127 162q19 27 51 8q92 -65 219 -65q98 0 150 47t69 153q-92 -30 -174 -30q-189 0 -283 128t-59 335l98 542q3 31 37 31h236q39 0 33 -37l-103 -565q-17 -88 16 -130t105 -42q77 0 137 35l125 708q6 31 39 31h236q35 0 32 -37l-164 -928 q-50 -276 -177 -395t-378 -119q-231 0 -368 119q-12 9 -12.5 23zM332 1356q12 66 58 104.5t110 38.5q63 0 96 -43t20 -110q-12 -67 -56 -106.5t-107 -39.5t-98 43t-23 113zM758 1356q12 66 58 104.5t110 38.5q63 0 96 -43t20 -110q-12 -68 -55 -107t-106 -39 q-64 0 -99.5 42.5t-23.5 113.5z" />
<glyph unicode="&#x152;" horiz-adv-x="1900" d="M102 336q-23 113 2 250l70 379q43 249 211.5 387.5t400.5 138.5q168 0 273 -102l8 43q6 32 37 32h807q36 0 33 -39l-41 -221q-6 -33 -39 -33h-539l-49 -284h469q17 0 26 -10.5t7 -28.5l-39 -217q-6 -31 -37 -31h-477l-54 -303h566q36 0 30 -39l-41 -225q-2 -15 -11.5 -24 t-24.5 -9h-830q-18 0 -27 10.5t-6 28.5l7 31q-124 -97 -304 -97q-110 0 -200.5 44.5t-147.5 125t-80 193.5zM432 557q-21 -126 25 -200t141 -74q99 0 181 53.5t98 146.5l77 459q19 109 -31 176.5t-155 67.5q-101 2 -174 -63.5t-94 -186.5z" />
<glyph unicode="&#x153;" horiz-adv-x="1679" d="M59 438l47 254q34 186 173 294t344 108q179 0 286 -117q135 117 328 117q100 0 179.5 -27t135 -80t76.5 -138.5t2 -195.5l-35 -198q-6 -33 -39 -33h-565l-8 -43q-12 -71 24.5 -108.5t114.5 -37.5q133 0 267 82q35 21 49 -10l82 -158q17 -34 -11 -49q-183 -125 -430 -125 q-189 0 -299 113q-128 -113 -329 -113q-203 0 -316 134.5t-76 330.5zM367 408q-14 -76 17.5 -121t102.5 -45q79 0 127 40t62 113l49 277q8 66 -25.5 109.5t-101.5 43.5q-73 0 -122.5 -41.5t-61.5 -111.5zM1026 625h297l10 55q13 67 -18 112.5t-105 45.5q-68 0 -115 -41 t-59 -113z" />
<glyph unicode="&#x178;" horiz-adv-x="1191" d="M160 1425q-6 17 1.5 28t26.5 11h267q31 0 37 -30l149 -605h4l348 611q15 24 41 24h283q20 0 26.5 -12t-4.5 -31l-579 -901l-92 -487q-6 -33 -37 -33h-256q-39 0 -33 39l90 487zM430 1741q11 66 58.5 107.5t113.5 41.5q67 0 101.5 -44.5t23.5 -108.5q-12 -68 -59 -109 t-113 -41q-68 0 -101 45.5t-24 108.5zM864 1741q11 68 58 108.5t114 40.5t100.5 -44t24.5 -109q-11 -68 -58 -109t-114 -41q-70 0 -103 45t-22 109z" />
<glyph unicode="&#x2c6;" horiz-adv-x="712" d="M125.5 1233q-5.5 14 11.5 29l273 272q18 18 43 18h165q31 0 44 -24l169 -266q10 -19 3.5 -31t-27.5 -12h-174q-32 0 -43 24l-76 133l-129 -139q-18 -18 -45 -18h-184q-25 0 -30.5 14z" />
<glyph unicode="&#x2dc;" horiz-adv-x="753" d="M158 1354q103 170 241 170q62 0 150 -45q75 -35 106 -35q38 0 80 45q22 28 51 8l97 -65q30 -17 14 -43q-39 -69 -98.5 -120.5t-130.5 -51.5q-64 0 -156 47q-78 32 -109 32q-47 0 -86 -45q-27 -27 -49 -10l-96 64q-30 20 -14 49z" />
<glyph unicode="&#x2000;" horiz-adv-x="1012" />
<glyph unicode="&#x2001;" horiz-adv-x="2025" />
<glyph unicode="&#x2002;" horiz-adv-x="1012" />
<glyph unicode="&#x2003;" horiz-adv-x="2025" />
<glyph unicode="&#x2004;" horiz-adv-x="675" />
<glyph unicode="&#x2005;" horiz-adv-x="506" />
<glyph unicode="&#x2006;" horiz-adv-x="337" />
<glyph unicode="&#x2007;" horiz-adv-x="337" />
<glyph unicode="&#x2008;" horiz-adv-x="253" />
<glyph unicode="&#x2009;" horiz-adv-x="405" />
<glyph unicode="&#x200a;" horiz-adv-x="112" />
<glyph unicode="&#x2010;" horiz-adv-x="790" d="M106 512l37 209q7 33 37 33h500q17 0 25.5 -11t5.5 -28l-37 -211q-6 -31 -37 -31h-500q-17 0 -25.5 11t-5.5 28z" />
<glyph unicode="&#x2011;" horiz-adv-x="790" d="M106 512l37 209q7 33 37 33h500q17 0 25.5 -11t5.5 -28l-37 -211q-6 -31 -37 -31h-500q-17 0 -25.5 11t-5.5 28z" />
<glyph unicode="&#x2012;" horiz-adv-x="790" d="M106 512l37 209q7 33 37 33h500q17 0 25.5 -11t5.5 -28l-37 -211q-6 -31 -37 -31h-500q-17 0 -25.5 11t-5.5 28z" />
<glyph unicode="&#x2013;" horiz-adv-x="1191" d="M106 512l37 209q7 33 37 33h901q17 0 25.5 -11t5.5 -28l-37 -211q-3 -31 -37 -31h-901q-17 0 -25.5 11t-5.5 28z" />
<glyph unicode="&#x2014;" horiz-adv-x="1966" d="M106 512l37 209q7 33 37 33h1675q17 0 25.5 -11t5.5 -28l-37 -211q-6 -31 -37 -31h-1675q-17 0 -25.5 11t-5.5 28z" />
<glyph unicode="&#x2018;" horiz-adv-x="522" d="M129.5 892q-7.5 11 1.5 30l248 516q12 26 41 26h176q19 0 26.5 -11t0.5 -30l-209 -516q-13 -26 -41 -26h-215q-21 0 -28.5 11z" />
<glyph unicode="&#x2019;" horiz-adv-x="518" d="M137 922l211 514q9 28 41 28h213q45 0 29 -43l-250 -514q-12 -26 -41 -26h-174q-20 0 -28 11t-1 30z" />
<glyph unicode="&#x201a;" horiz-adv-x="497" d="M-123 -246l209 516q14 27 41 27h215q21 0 28.5 -11t-1.5 -30l-248 -516q-12 -27 -41 -27h-174q-42 0 -29 41z" />
<glyph unicode="&#x201c;" horiz-adv-x="937" d="M129 926l252 512q14 26 43 26h170q19 0 26.5 -11t0.5 -30l-211 -512q-10 -26 -41 -26h-213q-43 0 -27 41zM547 926l252 512q12 26 41 26h172q19 0 26 -11t0 -30l-209 -512q-13 -26 -41 -26h-215q-42 0 -26 41z" />
<glyph unicode="&#x201d;" horiz-adv-x="935" d="M137 922l209 514q12 28 41 28h215q20 0 27 -11.5t-2 -31.5l-248 -516q-11 -24 -41 -24h-174q-19 0 -26.5 11t-0.5 30zM555 922l211 514q9 28 39 28h215q21 0 28.5 -11.5t-1.5 -31.5l-248 -516q-11 -24 -41 -24h-174q-42 0 -29 41z" />
<glyph unicode="&#x201e;" horiz-adv-x="917" d="M-121 -246l207 516q14 27 41 27h215q21 0 28.5 -11t-1.5 -30l-248 -516q-12 -27 -41 -27h-174q-19 0 -26.5 11t-0.5 30zM297 -246l209 516q14 27 41 27h215q22 0 28.5 -11t-2.5 -30l-247 -516q-15 -27 -43 -27h-172q-42 0 -29 41z" />
<glyph unicode="&#x2022;" horiz-adv-x="802" d="M152 711q20 114 107 187t198 73q129 0 197.5 -86t45.5 -219q-20 -115 -105 -189t-198 -74q-128 0 -199 88.5t-46 219.5z" />
<glyph unicode="&#x2026;" horiz-adv-x="1558" d="M10 184q12 71 64 115.5t125 44.5q83 0 127.5 -58t29.5 -147q-12 -70 -65 -114.5t-127 -44.5q-81 0 -125 58.5t-29 145.5zM543 184q12 71 63.5 115.5t124.5 44.5q83 0 128 -58t30 -147q-12 -70 -65.5 -114.5t-127.5 -44.5q-81 0 -124.5 58.5t-28.5 145.5zM1073 184 q14 72 65.5 116t125.5 44q82 0 127 -58t28 -147q-12 -70 -64 -114.5t-126 -44.5q-83 0 -127 58.5t-29 145.5z" />
<glyph unicode="&#x202f;" horiz-adv-x="405" />
<glyph unicode="&#x2039;" horiz-adv-x="681" d="M72 569q-15 27 4 49l332 408q17 21 43 21h225q23 0 29 -13.5t-9 -32.5l-340 -405l193 -408q16 -43 -29 -43h-219q-28 0 -43 27z" />
<glyph unicode="&#x203a;" horiz-adv-x="679" d="M-2.5 160.5q-6.5 13.5 8.5 32.5l340 405l-192 408q-16 43 28 43h219q28 0 43 -27l187 -397q15 -28 -4 -50l-332 -407q-17 -21 -43 -21h-225q-23 0 -29.5 13.5z" />
<glyph unicode="&#x205f;" horiz-adv-x="506" />
<glyph unicode="&#x20ac;" horiz-adv-x="1318" d="M68 532l20 113q3 33 37 33h125l16 96h-116q-18 0 -27 10.5t-6 28.5l20 113q6 32 37 32h123l4 19q56 252 221.5 383t413.5 131q117 0 221.5 -37t181.5 -102q25 -17 4 -49l-147 -170q-22 -25 -49 -7q-104 74 -240 74q-115 0 -187 -63.5t-97 -178.5h299q18 0 26.5 -10 t5.5 -28l-20 -113q-7 -33 -37 -33h-305l-17 -96h297q17 0 26 -10.5t7 -28.5l-20 -113q-6 -32 -39 -32h-299q-9 -111 44.5 -170.5t166.5 -59.5q70 0 146 24t140 66q33 20 50 -12l96 -195q16 -31 -14 -49q-215 -125 -480 -125q-237 0 -367.5 138.5t-107.5 382.5h-121 q-35 0 -32 38z" />
<glyph unicode="&#x2122;" horiz-adv-x="1294" d="M201 1366l14 82q3 16 18 16h439q17 0 14 -16l-14 -88q-3 -14 -23 -14h-153l-84 -476q-3 -20 -21 -20h-86q-9 0 -14.5 6.5t-3.5 15.5l82 474h-148q-23 0 -20 20zM631 870l102 576q3 18 21 18h108q18 0 21 -16l57 -272l21 -109l55 109l153 272q10 16 27 16h109q21 0 18 -24 l-102 -570q-3 -20 -27 -20h-70q-12 0 -18 6.5t-4 15.5l35 201l47 209h-4l-74 -139l-113 -191q-5 -14 -24 -14h-60q-17 0 -20 18l-47 187l-27 139h-2l-29 -209l-34 -207q-3 -16 -21 -16h-82q-19 0 -16 20z" />
<glyph unicode="&#x25fc;" horiz-adv-x="1064" d="M0 0v1065h1065v-1065h-1065z" />
</font>
</defs>
</svg>
